<svg xmlns="http://www.w3.org/2000/svg" width="24" height="24" viewBox="0 0 24 24">
  <path fill="none" stroke="#5E5E5E" stroke-linecap="round" stroke-linejoin="round" stroke-width="1.5" d="M23.2,2.054 C23.2135353,1.84699771 23.1408445,1.64361651 22.9991666,1.49208926 C22.8574886,1.34056202 22.659444,1.25438662 22.452,1.254 L1.5,1.254 C1.29246118,1.254 1.0942382,1.34017719 0.952495684,1.49177346 C0.810753168,1.64336974 0.738164057,1.84692287 0.752,2.054 C1.11343941,7.08676317 4.7804287,11.2638285 9.724,12.274 L9.724,22.149 C9.72410906,22.4399299 9.89245785,22.7045507 10.1559292,22.8279324 C10.4194006,22.9513141 10.7304568,22.9111952 10.954,22.725 L13.954,20.225 C14.1252275,20.0827429 14.2241953,19.8716115 14.224,19.649 L14.224,12.274 C19.1693272,11.2657135 22.838432,7.08810084 23.2,2.054 Z"/>
</svg>
