<svg xmlns="http://www.w3.org/2000/svg" width="24" height="24" viewBox="0 0 24 24">
  <path fill="none" stroke="#5E5E5E" stroke-linecap="round" stroke-linejoin="round" stroke-width="1.5" d="M0.75,0.75 L0.75,23.25 L23.25,23.25 M13.5,6.74999935 L0.75,6.74999935 L0.75,3.74999935 L13.5,3.74999935 C13.7035024,3.74973416 13.8987464,3.83045748 14.0426444,3.97435555 C14.1865425,4.11825362 14.2672658,4.31349757 14.2670007,4.517 L14.2670007,5.983 C14.2670007,6.18642105 14.1861913,6.3815105 14.0423509,6.5253509 C13.8985105,6.6691913 13.703421,6.74999935 13.5,6.74999935 L13.5,6.74999935 Z M13.5,12.7499993 L0.75,12.7499993 L0.75,9.74999935 L13.5,9.74999935 C13.7035024,9.74973416 13.8987464,9.83045748 14.0426444,9.97435555 C14.1865425,10.1182536 14.2672658,10.3134976 14.2670007,10.517 L14.2670007,11.983 C14.2670007,12.186421 14.1861913,12.3815105 14.0423509,12.5253509 C13.8985105,12.6691913 13.703421,12.7499993 13.5,12.7499993 L13.5,12.7499993 Z M19.483,18.7499993 L0.75,18.7499993 L0.75,15.7499993 L19.483,15.7499993 C19.6865024,15.7497342 19.8817464,15.8304575 20.0256444,15.9743556 C20.1695425,16.1182536 20.2502658,16.3134976 20.25,16.517 L20.25,17.983 C20.25,18.4066024 19.9066024,18.7499993 19.483,18.7499993 Z"/>
</svg>
