<?xml version="1.0" encoding="UTF-8"?>
<svg width="24px" height="24px" viewBox="0 0 24 24" version="1.1" xmlns="http://www.w3.org/2000/svg" xmlns:xlink="http://www.w3.org/1999/xlink">
    <!-- Generator: Sketch 61 (89581) - https://sketch.com -->
    <title>Shape</title>
    <desc>Created with Sketch.</desc>
    <g id="Icons" stroke="none" stroke-width="1" fill="none" fill-rule="evenodd" stroke-linecap="round" stroke-linejoin="round">
        <g id="Icons-/-Signatures-/-Create-Signature" stroke="#5E5E5E" stroke-width="1.5">
            <path d="M0.75,4.5 L8.25,4.5 M4.5,0.75 L4.5,8.25 M4.6,23.186 L13.638,20.173 C16.0782606,19.3580389 17.7230421,17.0727474 17.7210019,14.5 L17.7210019,14.5 C17.7210019,11.2000986 15.0459014,8.525 11.746,8.525 L11.746,8.525 C9.17392898,8.525 6.89045619,10.1709512 6.077,12.611 L3.064,21.653 C2.9181829,22.0891576 3.03178054,22.5702703 3.35728749,22.8951415 C3.68279445,23.2200127 4.16412832,23.3326695 4.6,23.186 Z M3.357,22.893 L10.174,16.076 M11.474,16.615 C12.4896517,16.615 13.313,15.7916517 13.313,14.776 C13.313,13.7603483 12.4896517,12.937 11.474,12.937 C10.4583483,12.937 9.635,13.7603483 9.635,14.776 C9.635,15.7916517 10.4583483,16.615 11.474,16.615 Z M13.367,8.752 L17.968,3 L23.25,8.282 L17.498,12.883" id="Shape"></path>
        </g>
    </g>
</svg>