<?xml version="1.0" encoding="UTF-8"?>
<svg width="136px" height="136px" viewBox="0 0 136 136" version="1.1" xmlns="http://www.w3.org/2000/svg" xmlns:xlink="http://www.w3.org/1999/xlink">
    <!-- Generator: Sketch 61 (89581) - https://sketch.com -->
    <title>Group 13</title>
    <desc>Created with Sketch.</desc>
    <defs>
        <circle id="path-1" cx="64" cy="64" r="64"></circle>
        <filter x="-5.1%" y="-4.3%" width="110.2%" height="110.2%" filterUnits="objectBoundingBox" id="filter-2">
            <feOffset dx="0" dy="1" in="SourceAlpha" result="shadowOffsetOuter1"></feOffset>
            <feGaussianBlur stdDeviation="2" in="shadowOffsetOuter1" result="shadowBlurOuter1"></feGaussianBlur>
            <feComposite in="shadowBlurOuter1" in2="SourceAlpha" operator="out" result="shadowBlurOuter1"></feComposite>
            <feColorMatrix values="0 0 0 0 0.2172589   0 0 0 0 0.276448458   0 0 0 0 0.374003917  0 0 0 0.119650136 0" type="matrix" in="shadowBlurOuter1"></feColorMatrix>
        </filter>
    </defs>
    <g id="Settings" stroke="none" stroke-width="1" fill="none" fill-rule="evenodd">
        <g id="settings-–-personal-profile-–-block-style" transform="translate(-389.000000, -182.000000)">
            <g id="Group-14" transform="translate(393.000000, 185.000000)">
                <g id="Group-13">
                    <g id="Oval-Copy-2">
                        <use fill="black" fill-opacity="1" filter="url(#filter-2)" xlink:href="#path-1"></use>
                        <circle stroke="#FFFFFF" stroke-width="8" stroke-linejoin="square" fill="#EEEEF1" fill-rule="evenodd" cx="64" cy="64" r="60"></circle>
                    </g>
                    <g id="Icons-/-Profile-Image-Composition-/-Filled" transform="translate(48.000000, 48.000000)" fill="#C4C1C2">
                        <path d="M21.6493333,20.7373333 L20.436,20.2906667 C20.284,20.2346667 20.132,19.9866667 20.036,19.624 C19.7944646,18.6685591 19.8446195,17.662675 20.18,16.736 C21.5626667,15.2146667 22.9133333,13.3373333 22.9133333,8.66266667 C22.9133333,3.596 19.4466667,1.32933333 16.0066667,1.32933333 C12.5666667,1.32933333 9.09333333,3.6 9.09333333,8.66666667 C9.09333333,13.3413333 10.444,15.2186667 11.8226667,16.736 C12.1617359,17.6631756 12.2133147,18.6710546 11.9706667,19.628 C11.868,19.9866667 11.716,20.2346667 11.5706667,20.2946667 L10.3573333,20.7413333 C5.732,22.4426667 2.38933333,23.6746667 1.41066667,25.6306667 C0.544977455,27.4113215 0.0643085745,29.3544413 0,31.3333333 C0,31.7015232 0.298476833,32 0.666666667,32 L31.3333333,32 C31.7015232,32 32,31.7015232 32,31.3333333 C31.9383338,29.3535688 31.4599282,27.4090523 30.596,25.6266667 C29.6173333,23.6666667 26.2746667,22.4386667 21.6493333,20.7373333 Z M1.33333333,6.66666667 C2.069713,6.66666667 2.66666667,6.069713 2.66666667,5.33333333 L2.66666667,3.33333333 C2.66666667,2.9651435 2.9651435,2.66666667 3.33333333,2.66666667 L5.33333333,2.66666667 C6.069713,2.66666667 6.66666667,2.069713 6.66666667,1.33333333 C6.66666667,0.596953667 6.069713,-9.23705556e-14 5.33333333,-9.23705556e-14 L2.66666667,-9.23705556e-14 C1.19390733,-9.23705556e-14 0,1.19390733 0,2.66666667 L0,5.33333333 C0,6.069713 0.596953667,6.66666667 1.33333333,6.66666667 Z M2.66666667,20 L5.33333333,20 C6.069713,20 6.66666667,19.4030463 6.66666667,18.6666667 C6.66666667,17.930287 6.069713,17.3333333 5.33333333,17.3333333 L3.33333333,17.3333333 C2.9651435,17.3333333 2.66666667,17.0348565 2.66666667,16.6666667 L2.66666667,14.6666667 C2.66666667,13.930287 2.069713,13.3333333 1.33333333,13.3333333 C0.596953667,13.3333333 0,13.930287 0,14.6666667 L0,17.3333333 C0,18.8060927 1.19390733,20 2.66666667,20 Z M29.3333333,-9.23705556e-14 L26.6666667,-9.23705556e-14 C25.930287,-9.23705556e-14 25.3333333,0.596953667 25.3333333,1.33333333 C25.3333333,2.069713 25.930287,2.66666667 26.6666667,2.66666667 L28.6666667,2.66666667 C29.0348565,2.66666667 29.3333333,2.9651435 29.3333333,3.33333333 L29.3333333,5.33333333 C29.3333333,6.069713 29.930287,6.66666667 30.6666667,6.66666667 C31.4030463,6.66666667 32,6.069713 32,5.33333333 L32,2.66666667 C32,1.19390733 30.8060927,-9.23705556e-14 29.3333333,-9.23705556e-14 Z M30.6666667,13.3333333 C29.930287,13.3333333 29.3333333,13.930287 29.3333333,14.6666667 L29.3333333,16.6666667 C29.3333333,17.0348565 29.0348565,17.3333333 28.6666667,17.3333333 L26.6666667,17.3333333 C25.930287,17.3333333 25.3333333,17.930287 25.3333333,18.6666667 C25.3333333,19.4030463 25.930287,20 26.6666667,20 L29.3333333,20 C30.8060927,20 32,18.8060927 32,17.3333333 L32,14.6666667 C32,13.930287 31.4030463,13.3333333 30.6666667,13.3333333 Z" id="Shape"></path>
                    </g>
                </g>
            </g>
        </g>
    </g>
</svg>