<?xml version="1.0" encoding="UTF-8"?>
<svg width="24px" height="24px" viewBox="0 0 24 24" version="1.1" xmlns="http://www.w3.org/2000/svg" xmlns:xlink="http://www.w3.org/1999/xlink">
    <!-- Generator: Sketch 61 (89581) - https://sketch.com -->
    <title>Shape</title>
    <desc>Created with Sketch.</desc>
    <g id="Icons" stroke="none" stroke-width="1" fill="none" fill-rule="evenodd">
        <g id="Icons-/-Money-&amp;-Finance-/-Card-payment" fill="#5E5E5E">
            <path d="M3,15 C2.44771525,15 2,14.5522847 2,14 L2,8 C2,7.72385763 2.22385763,7.5 2.5,7.5 L19.5,7.5 C19.7761424,7.5 20,7.72385763 20,8 L20,9.151 C20.0001414,9.5544957 20.247332,9.91675082 20.623,10.064 L20.644,10.072 C20.9477806,10.1955151 21.2931097,10.159749 21.5651285,9.97659769 C21.8371472,9.7934464 22,9.48693075 22,9.159 L22,3 C22,1.34314575 20.6568542,0 19,0 L3,0 C1.34314575,0 0,1.34314575 0,3 L0,14 C0,15.6568542 1.34314575,17 3,17 L8.547,17 C8.98179881,16.9886941 9.35299292,16.6826652 9.447,16.258 L9.462,16.2 C9.55004028,15.9216726 9.50107169,15.6180945 9.32998264,15.3815659 C9.1588936,15.1450373 8.8858989,15.0035048 8.594,15 L3,15 Z M2,3 C2,2.44771525 2.44771525,2 3,2 L19,2 C19.5522847,2 20,2.44771525 20,3 L20,4 C20,4.27614237 19.7761424,4.5 19.5,4.5 L2.5,4.5 C2.22385763,4.5 2,4.27614237 2,4 L2,3 Z M8,11 L5,11 C4.44771525,11 4,11.4477153 4,12 C4,12.5522847 4.44771525,13 5,13 L8,13 C8.55228475,13 9,12.5522847 9,12 C9,11.4477153 8.55228475,11 8,11 Z M17.5,11 C13.9101491,11 11,13.9101491 11,17.5 C11,21.0898509 13.9101491,24 17.5,24 C21.0898509,24 24,21.0898509 24,17.5 C24,15.7760928 23.3151805,14.1227924 22.0961941,12.9038059 C20.8772076,11.6848195 19.2239072,11 17.5,11 Z M16.416,16.294 L19.126,17.309 C19.9303756,17.7244346 20.3734409,18.6126386 20.2214956,19.5051175 C20.0695502,20.3975965 19.3575305,21.0891461 18.461,21.215 C18.3392485,21.2337999 18.2495466,21.3388064 18.25,21.462 L18.25,22 C18.25,22.4142136 17.9142136,22.75 17.5,22.75 C17.0857864,22.75 16.75,22.4142136 16.75,22 L16.75,21.5 C16.75,21.3619288 16.6380712,21.25 16.5,21.25 L15.5,21.25 C15.0857864,21.25 14.75,20.9142136 14.75,20.5 C14.75,20.0857864 15.0857864,19.75 15.5,19.75 L18,19.75 C18.5,19.75 18.75,19.577 18.75,19.236 C18.7650479,19.044541 18.7055779,18.8546668 18.584,18.706 L15.874,17.691 C15.1406705,17.3387982 14.6955621,16.5756987 14.75,15.764 C14.7825196,14.7548964 15.5425914,13.9185632 16.544,13.79 C16.6631715,13.7686932 16.7499528,13.6650612 16.75,13.544 L16.75,13 C16.75,12.5857864 17.0857864,12.25 17.5,12.25 C17.9142136,12.25 18.25,12.5857864 18.25,13 L18.25,13.5 C18.25,13.6380712 18.3619288,13.75 18.5,13.75 L19.5,13.75 C19.9142136,13.75 20.25,14.0857864 20.25,14.5 C20.25,14.9142136 19.9142136,15.25 19.5,15.25 L17,15.25 C16.594,15.25 16.25,15.485 16.25,15.764 C16.2349521,15.955459 16.2944221,16.1453332 16.416,16.294 Z" id="Shape"></path>
        </g>
    </g>
</svg>