<?xml version="1.0" encoding="UTF-8"?>
<svg width="24px" height="24px" viewBox="0 0 24 24" version="1.1" xmlns="http://www.w3.org/2000/svg" xmlns:xlink="http://www.w3.org/1999/xlink">
    <!-- Generator: Sketch 61 (89581) - https://sketch.com -->
    <title>Shape</title>
    <desc>Created with Sketch.</desc>
    <g id="Icons" stroke="none" stroke-width="1" fill="none" fill-rule="evenodd" stroke-linecap="round" stroke-linejoin="round">
        <g id="Icons-/-AI-/-Bot" stroke="#5E5E5E" stroke-width="1.5">
            <path d="M18.75,7.5 C18.75,3.77207794 15.7279221,0.75 12,0.75 C8.27207794,0.75 5.25,3.77207794 5.25,7.5 L5.25,11.25 L18.75,11.25 L18.75,7.5 Z M9,6.75 L9,8.25 M15,6.75 L15,8.25 M5.25,11.25 C7.3,21.472 9,23.25 12,23.25 C15,23.25 16.706,21.472 18.75,11.25 L5.25,11.25 Z M5.25,11.25 L3.75,11.25 C2.92157288,11.25 2.25,11.9215729 2.25,12.75 L2.25,17.25 M0.75,20.25 L0.75,18.75 C0.75,17.9215729 1.42157288,17.25 2.25,17.25 C3.07842712,17.25 3.75,17.9215729 3.75,18.75 L3.75,20.25 M18.75,11.25 L20.25,11.25 C21.0784271,11.25 21.75,11.9215729 21.75,12.75 L21.75,17.25 M23.25,20.25 L23.25,18.75 C23.25,17.9215729 22.5784271,17.25 21.75,17.25 C20.9215729,17.25 20.25,17.9215729 20.25,18.75 L20.25,20.25" id="Shape"></path>
        </g>
    </g>
</svg>