<?xml version="1.0" encoding="UTF-8"?>
<svg width="24px" height="25px" viewBox="0 0 24 25" version="1.1" xmlns="http://www.w3.org/2000/svg" xmlns:xlink="http://www.w3.org/1999/xlink">
    <!-- Generator: Sketch 61 (89581) - https://sketch.com -->
    <title>Shape</title>
    <desc>Created with Sketch.</desc>
    <g id="Icons" stroke="none" stroke-width="1" fill="none" fill-rule="evenodd" stroke-linecap="round" stroke-linejoin="round">
        <g id="Icons-/-Office-Files-/-CSV" stroke="#5E5E5E" stroke-width="1.5">
            <path d="M5.251,23.254 L2.251,23.254 C1.42257288,23.254 0.751,22.5824271 0.751,21.754 L0.751,2.254 C0.751,1.42557288 1.42257288,0.754 2.251,0.754 L12.88,0.754 C13.2775472,0.754 13.6588016,0.911981752 13.94,1.193 L19.812,7.064 C20.0932632,7.34544347 20.251,7.72710629 20.251,8.125 L20.251,12.754 M20.251,8.254 L14.251,8.254 C13.4225729,8.254 12.751,7.58242712 12.751,6.754 L12.751,0.754 M11.251,15.754 C9.59414575,15.754 8.251,17.0971458 8.251,18.754 L8.251,20.254 C8.251,21.9108542 9.59414575,23.254 11.251,23.254 M17.251,15.754 L15.751,15.754 C14.9225729,15.754 14.251,16.4255729 14.251,17.254 C14.251,19.504 17.251,19.504 17.251,21.754 C17.251,22.5824271 16.5794271,23.254 15.751,23.254 L14.251,23.254 M20.251,15.754 L20.251,18.3 C20.2510593,20.0635027 20.7729714,21.7875526 21.751,23.255 C22.7290286,21.7875526 23.2509407,20.0635027 23.251,18.3 L23.251,15.754" id="Shape"></path>
        </g>
    </g>
</svg>