<?xml version="1.0" encoding="UTF-8"?>
<svg width="20px" height="20px" viewBox="0 0 20 20" version="1.1" xmlns="http://www.w3.org/2000/svg" xmlns:xlink="http://www.w3.org/1999/xlink">
    <!-- Generator: Sketch 61 (89581) - https://sketch.com -->
    <title>Shape</title>
    <desc>Created with Sketch.</desc>
    <g id="Icons" stroke="none" stroke-width="1" fill="none" fill-rule="evenodd">
        <g id="Icons-/-Edit-Pen-/-Filled" transform="translate(-2.000000, -2.000000)" fill="#5E5E5E">
            <path d="M4.10414227,15.817964 C4.24488284,15.7839377 4.39318262,15.8254519 4.4958668,15.9276212 L4.4958668,15.9276212 L8.06716327,19.5030082 C8.16965316,19.6057631 8.21139639,19.7544623 8.17737516,19.8956089 C8.14335393,20.0367555 8.03846205,20.1500461 7.90043607,20.1947225 L7.90043607,20.1947225 L2.54849319,21.9794957 C2.39853314,22.0279449 2.2340981,21.9890489 2.12167158,21.8785338 C2.0101589,21.7665985 1.971428,21.6011959 2.02163526,21.451323 L2.02163526,21.451323 L3.80561622,16.0945004 C3.85038517,15.9566819 3.96340171,15.8519903 4.10414227,15.817964 Z M14.8996436,4.91442776 C15.06491,4.75771749 15.3237579,4.75771749 15.4890242,4.91442776 L15.4890242,4.91442776 L19.0569862,8.48731163 C19.2197044,8.65022739 19.2197044,8.91431387 19.0569862,9.07722963 L19.0569862,9.07722963 L9.54269892,18.5985229 C9.37993156,18.7613895 9.11608565,18.7613895 8.9533183,18.5985229 L8.9533183,18.5985229 L5.38535637,15.0273078 C5.22263816,14.8643921 5.22263816,14.6003056 5.38535637,14.4373898 L5.38535637,14.4373898 Z M16.9837335,2.83344403 C18.1474627,1.72218532 19.9781805,1.72218532 21.1419097,2.83344403 C22.2860301,3.98282029 22.2860301,5.84186326 21.1419097,6.99123952 L21.1419097,6.99123952 L20.5466936,7.58950148 C20.3839263,7.75236806 20.1200804,7.75236806 19.957313,7.58950148 L19.957313,7.58950148 L16.3901847,4.01828641 C16.2274665,3.85537064 16.2274665,3.59128417 16.3901847,3.42836841 L16.3901847,3.42836841 Z" id="Shape"></path>
        </g>
    </g>
</svg>