<?xml version="1.0" encoding="UTF-8"?>
<svg width="24px" height="16px" viewBox="0 0 24 16" version="1.1" xmlns="http://www.w3.org/2000/svg" xmlns:xlink="http://www.w3.org/1999/xlink">
    <!-- Generator: Sketch 61 (89581) - https://sketch.com -->
    <title>Shape</title>
    <desc>Created with Sketch.</desc>
    <g id="Icons" stroke="none" stroke-width="1" fill="none" fill-rule="evenodd" stroke-linecap="round" stroke-linejoin="round">
        <g id="Icons-/-Handshake" transform="translate(0.000000, -4.000000)" stroke="#5E5E5E" stroke-width="1.5">
            <path d="M20.29,14.34 L15.13,15.326 M14.416,8.478 L10.948,9.624 C10.3924508,9.80688948 9.78807042,9.5440593 9.543,9.013 C9.27775325,8.4437998 9.51182395,7.76680892 10.072,7.483 L13.431,5.794 C14.0096955,5.50215394 14.6834295,5.46305491 15.292,5.686 L20.265,7.505 M3.685,14.348 L6.13,14.348 L9.642,18.284 C10.0082763,18.7084456 10.5998054,18.8604745 11.1253469,18.6652352 C11.6508885,18.4699958 11.9996826,17.9686356 12,17.408 L12,16.793 L12.175,16.863 C12.6851041,17.0670328 13.2631901,17.0047972 13.718177,16.6968647 C14.1731639,16.3889321 14.445812,15.8753956 14.446,15.326 L14.935,15.326 C15.4906773,15.3256217 15.9985133,15.0115229 16.2470198,14.5145099 C16.4955263,14.0174969 16.4421038,13.4227688 16.109,12.978 L12.97,8.956 M10.583,7.225 L10.225,6.93 C9.86425107,6.66435601 9.42800281,6.52104232 8.98,6.52099986 C8.71305181,6.52090284 8.44857809,6.57216796 8.201,6.672 L3.75,8.452 M0.75,6.75 L2.75,6.75 C3.27866481,6.72796761 3.72568204,7.13743539 3.75,7.666 L3.75,14.083 C3.72567755,14.6117103 3.27883402,15.0214659 2.75,15 L0.75,15 M23.25,15 L21.25,15 C20.721166,15.0214659 20.2743224,14.6117103 20.25,14.083 L20.25,7.666 C20.274318,7.13743539 20.7213352,6.72796761 21.25,6.75 L23.25,6.75 M12,16.793 L11.022,15.815 M14.446,15.326 L12.978,13.858" id="Shape"></path>
        </g>
    </g>
</svg>