<?xml version="1.0" encoding="UTF-8"?>
<svg width="32px" height="32px" viewBox="0 0 32 32" version="1.1" xmlns="http://www.w3.org/2000/svg" xmlns:xlink="http://www.w3.org/1999/xlink">
    <!-- Generator: Sketch 60 (88103) - https://sketch.com -->
    <title>LifeEventsIcn</title>
    <desc>Created with Sketch.</desc>
    <g id="Navigation,-notifications,-datepicker" stroke="none" stroke-width="1" fill="none" fill-rule="evenodd" stroke-linecap="round" stroke-linejoin="round">
        <g id="Nav-&amp;-Sidebar" transform="translate(-32.000000, -391.000000)" stroke="#5E5E5E" stroke-width="1.5">
            <g id="Navigation-/-Sidebar" transform="translate(-1.000000, -1.000000)">
                <g id="LifeEvents" transform="translate(1.000000, 384.000000)">
                    <g id="Icons-/-Navbar-/-Social-3" transform="translate(32.000000, 8.000000)">
                        <path d="M20.3238311,21.5754357 C21.6906662,20.2086007 20.5826274,16.8844845 17.8489574,14.1508145 C15.1152874,11.4171444 11.7911712,10.3091057 10.4243362,11.6759407 C9.05750118,13.0427758 10.1655399,16.3668919 12.8992099,19.1005619 C15.63288,21.834232 18.9569961,22.9422707 20.3238311,21.5754357 Z M9.86666667,12.9333333 L1.184,28.1613333 C0.832171808,28.9223344 0.992328424,29.8220024 1.58516303,30.414837 C2.17799764,31.0076716 3.07766557,31.1678282 3.83866667,30.816 L19.0666667,22.14 M21.0306667,10.2666667 C21.1247084,10.3604709 21.1775605,10.4878394 21.1775605,10.6206667 C21.1775605,10.7534939 21.1247084,10.8808624 21.0306667,10.9746667 M20.324,10.2666667 C20.5192117,10.0716977 20.835455,10.0716977 21.0306667,10.2666667 M20.324,10.9693333 C20.1296074,10.7733635 20.1296074,10.4573032 20.324,10.2613333 M21.0306667,10.9693333 C20.835455,11.1643023 20.5192117,11.1643023 20.324,10.9693333 M26.688,4.60533333 C26.7819611,4.69890961 26.8347803,4.82605745 26.8347803,4.95866667 C26.8347803,5.09127588 26.7819611,5.21842372 26.688,5.312 M25.9813333,4.60533333 C26.0749096,4.51137226 26.2020575,4.45855301 26.3346667,4.45855301 C26.4672759,4.45855301 26.5944237,4.51137226 26.688,4.60533333 M25.9813333,5.312 C25.8873723,5.21842372 25.834553,5.09127588 25.834553,4.95866667 C25.834553,4.82605745 25.8873723,4.69890961 25.9813333,4.60533333 M26.688,5.312 C26.4927883,5.50696892 26.176545,5.50696892 25.9813333,5.312 M26.688,18.7466667 C26.7820417,18.8404709 26.8348938,18.9678394 26.8348938,19.1006667 C26.8348938,19.2334939 26.7820417,19.3608624 26.688,19.4546667 M25.9813333,18.7466667 C26.176545,18.5516977 26.4927883,18.5516977 26.688,18.7466667 M25.9813333,19.4546667 C25.8872916,19.3608624 25.8344395,19.2334939 25.8344395,19.1006667 C25.8344395,18.9678394 25.8872916,18.8404709 25.9813333,18.7466667 M26.688,19.4546667 C26.4927883,19.6496356 26.176545,19.6496356 25.9813333,19.4546667 M11.132,6.01866667 C11.3263926,6.21463649 11.3263926,6.53069684 11.132,6.72666667 M10.4253333,6.01866667 C10.620545,5.82369775 10.9367883,5.82369775 11.132,6.01866667 M10.4253333,6.72666667 C10.3312916,6.6328624 10.2784395,6.50549393 10.2784395,6.37266667 C10.2784395,6.23983941 10.3312916,6.11247093 10.4253333,6.01866667 M11.132,6.72666667 C10.9367883,6.92163559 10.620545,6.92163559 10.4253333,6.72666667 M17.1426667,1 C17.4241302,3.51989131 17.1831147,6.07075218 16.4346667,8.49333333 M22.092,2.83733333 L21.3853333,6.372 M31,14.8573333 C28.4801087,14.5758698 25.9292478,14.8168853 23.5066667,15.5653333 M29.1626667,9.908 L25.628,10.6146667" id="Shape"></path>
                    </g>
                </g>
            </g>
        </g>
    </g>
</svg>