<?xml version="1.0" encoding="UTF-8"?>
<svg width="24px" height="24px" viewBox="0 0 24 24" version="1.1" xmlns="http://www.w3.org/2000/svg" xmlns:xlink="http://www.w3.org/1999/xlink">
    <!-- Generator: Sketch 61 (89581) - https://sketch.com -->
    <title>Shape</title>
    <desc>Created with Sketch.</desc>
    <g id="Icons" stroke="none" stroke-width="1" fill="none" fill-rule="evenodd" stroke-linecap="round" stroke-linejoin="round">
        <g id="Icons-/-Hyperlinks-/-Outline" stroke="#5E5E5E" stroke-width="1.5">
            <path d="M6.75,17.249 L17.25,6.749 M7.735,12.021 C6.46280344,11.9477005 5.21975864,12.4206177 4.318,13.321 L2.068,15.571 C0.931180893,16.7078191 0.487202492,18.3647691 0.903307165,19.9176928 C1.31941184,21.4706166 2.53238339,22.6835882 4.08530717,23.0996928 C5.63823094,23.5157975 7.29518089,23.0718191 8.432,21.935 L10.682,19.685 C11.5823823,18.7832414 12.0552995,17.5401966 11.982,16.268 M16.265,11.976 C17.5371767,12.0491706 18.7801705,11.5762727 19.682,10.676 L21.932,8.426 C23.0688191,7.28918089 23.5127975,5.63223094 23.0966928,4.07930717 C22.6805882,2.52638339 21.4676166,1.31341184 19.9146928,0.897307165 C18.3617691,0.481202492 16.7048191,0.925180893 15.568,2.062 L13.318,4.312 C12.4197747,5.21483623 11.9487761,6.45761777 12.023,7.729" id="Shape"></path>
        </g>
    </g>
</svg>