<?xml version="1.0" encoding="UTF-8"?>
<svg width="18px" height="24px" viewBox="0 0 18 24" version="1.1" xmlns="http://www.w3.org/2000/svg" xmlns:xlink="http://www.w3.org/1999/xlink">
    <!-- Generator: Sketch 60 (88103) - https://sketch.com -->
    <title>Oval 2</title>
    <desc>Created with Sketch.</desc>
    <g id="Icons" stroke="none" stroke-width="1" fill="none" fill-rule="evenodd" stroke-linecap="round" stroke-linejoin="round">
        <g id="Icons-/-Pins-/-Outline" transform="translate(-3.000000, 0.000000)" stroke="#5E5E5E" stroke-width="1.5">
            <path d="M12,12 C14.0710678,12 15.75,10.3210678 15.75,8.25 C15.75,6.17893219 14.0710678,4.5 12,4.5 C9.92893219,4.5 8.25,6.17893219 8.25,8.25 C8.25,10.3210678 9.92893219,12 12,12 Z M12,0.75 C16.1421356,0.75 19.5,4.10786438 19.5,8.25 C19.5,11.657 14.426,20.2 12.625,22.915 C12.4860441,23.1244839 12.2513807,23.2504219 12,23.2504219 C11.7486193,23.2504219 11.5139559,23.1244839 11.375,22.915 C9.574,20.2 4.5,11.657 4.5,8.25 C4.5,4.10786438 7.85786438,0.75 12,0.75 Z" id="Oval-2"></path>
        </g>
    </g>
</svg>