<?xml version="1.0" encoding="UTF-8"?>
<svg width="32px" height="32px" viewBox="0 0 32 32" version="1.1" xmlns="http://www.w3.org/2000/svg" xmlns:xlink="http://www.w3.org/1999/xlink">
    <!-- Generator: Sketch 60 (88103) - https://sketch.com -->
    <title>Prospects</title>
    <desc>Created with Sketch.</desc>
    <g id="Navigation,-notifications,-datepicker" stroke="none" stroke-width="1" fill="none" fill-rule="evenodd" stroke-linecap="round" stroke-linejoin="round">
        <g id="Nav-&amp;-Sidebar" transform="translate(-32.000000, -293.000000)" stroke="#5E5E5E" stroke-width="1.5">
            <g id="Navigation-/-Sidebar" transform="translate(-1.000000, -1.000000)">
                <g id="Prospects" transform="translate(1.000000, 286.000000)">
                    <g id="Icons-/-Navbar-/-Prospects" transform="translate(32.000000, 8.000000)">
                        <path d="M30.9333333,2.43727273 C30.9513805,2.15499688 30.8544594,1.87765887 30.6655554,1.67103082 C30.4766515,1.46440276 30.212592,1.34689085 29.936,1.34636364 L2,1.34636364 C1.72328157,1.34636364 1.45898427,1.46387799 1.26999425,1.67060018 C1.08100422,1.87732237 0.984218743,2.15489482 1.00266667,2.43727273 C1.48458588,9.3001316 6.37390493,14.9961298 12.9653333,16.3736364 L12.9653333,29.8395455 C12.9654787,30.236268 13.1899438,30.5971146 13.541239,30.7653623 C13.8925341,30.9336101 14.3072757,30.8789025 14.6053333,30.625 L18.6053333,27.2159091 C18.8336367,27.0219222 18.9655938,26.7340157 18.9653333,26.4304545 L18.9653333,16.3736364 C25.5591029,14.9987002 30.4512427,9.30195569 30.9333333,2.43727273 Z" id="Path"></path>
                    </g>
                </g>
            </g>
        </g>
    </g>
</svg>