<?xml version="1.0" encoding="UTF-8"?>
<svg width="24px" height="24px" viewBox="0 0 24 24" version="1.1" xmlns="http://www.w3.org/2000/svg" xmlns:xlink="http://www.w3.org/1999/xlink">
    <!-- Generator: Sketch 61 (89581) - https://sketch.com -->
    <title>Shape</title>
    <desc>Created with Sketch.</desc>
    <g id="Icons" stroke="none" stroke-width="1" fill="none" fill-rule="evenodd" stroke-linecap="round" stroke-linejoin="round">
        <g id="Icons-/-Screen-Name" stroke="#5E5E5E" stroke-width="1.5">
            <path d="M6,8.25 C8.89949494,8.25 11.25,10.6005051 11.25,13.5 L11.25,13.5 L11.25,15.75 L9,15.75 L8.25,23.25 L3.75,23.25 L3,15.75 L0.75,15.75 L0.75,13.5 C0.75,10.6005051 3.10050506,8.25 6,8.25 Z M22.622,11.869 L22.63,11.878 C23.0271113,12.2743763 23.250268,12.8124193 23.250268,13.3735 C23.250268,13.9345807 23.0271113,14.4726237 22.63,14.869 L15,22.5 L11.25,23.25 L12,19.5 L19.63,11.869 C20.4562949,11.0429678 21.7957051,11.0429678 22.622,11.869 Z M6,0.75 C7.65685425,0.75 9,2.09314575 9,3.75 C9,5.40685425 7.65685425,6.75 6,6.75 C4.34314575,6.75 3,5.40685425 3,3.75 C3,2.09314575 4.34314575,0.75 6,0.75 Z" id="Shape"></path>
        </g>
    </g>
</svg>