<?xml version="1.0" encoding="UTF-8"?>
<svg width="16px" height="24px" viewBox="0 0 16 24" version="1.1" xmlns="http://www.w3.org/2000/svg" xmlns:xlink="http://www.w3.org/1999/xlink">
    <!-- Generator: Sketch 61 (89581) - https://sketch.com -->
    <title>Shape</title>
    <desc>Created with Sketch.</desc>
    <g id="Icons" stroke="none" stroke-width="1" fill="none" fill-rule="evenodd" stroke-linecap="round" stroke-linejoin="round">
        <g id="Icons-/-Signatures-/-Pen" transform="translate(-4.000000, 0.000000)" stroke="#5E5E5E" stroke-width="1.5">
            <path d="M12.037,23.25 C12.787,22.5 18.25,11.481 18.25,11.481 C18.5689753,10.6856258 18.5325821,9.79180912 18.15,9.025 L15.75,5.25 L8.25,5.25 L5.85,9.025 C5.46741792,9.79180912 5.43102473,10.6856258 5.75,11.481 C5.75,11.481 11.287,22.5 12.037,23.25 Z M12,16.5 L12,12.48 M12,12.48 C12.8284271,12.48 13.5,11.8084271 13.5,10.98 C13.5,10.1515729 12.8284271,9.48 12,9.48 C11.1715729,9.48 10.5,10.1515729 10.5,10.98 C10.5,11.8084271 11.1715729,12.48 12,12.48 Z M15.75,5.25 L8.25,5.25 L6.961,1.98 C6.77480484,1.75645677 6.7346859,1.4454006 6.85806761,1.18192922 C6.98144933,0.91845785 7.24607011,0.750109055 7.537,0.75 L16.537,0.75 C16.8279299,0.750109055 17.0925507,0.91845785 17.2159324,1.18192922 C17.3393141,1.4454006 17.2991952,1.75645677 17.113,1.98 L15.75,5.25 Z" id="Shape"></path>
        </g>
    </g>
</svg>