<?xml version="1.0" encoding="UTF-8"?>
<svg width="24px" height="24px" viewBox="0 0 24 24" version="1.1" xmlns="http://www.w3.org/2000/svg" xmlns:xlink="http://www.w3.org/1999/xlink">
    <!-- Generator: Sketch 61 (89581) - https://sketch.com -->
    <title>Shape</title>
    <desc>Created with Sketch.</desc>
    <g id="Icons" stroke="none" stroke-width="1" fill="none" fill-rule="evenodd" stroke-linecap="round" stroke-linejoin="round">
        <g id="Icons-/-Org-Chart" stroke="#5E5E5E" stroke-width="1.5">
            <path d="M3.75,18.748 L3.75,18.748 C3.90728961,15.2869634 6.83336244,12.6045437 10.295,12.748 L13.705,12.748 C17.1666376,12.6045437 20.0927104,15.2869634 20.25,18.748 L20.25,18.748 M12,6.748 L12,18.748 M12,6.748 C13.6568542,6.748 15,5.40485425 15,3.748 C15,2.09114575 13.6568542,0.748 12,0.748 C10.3431458,0.748 9,2.09114575 9,3.748 C9,5.40485425 10.3431458,6.748 12,6.748 Z M3.75,23.248 C4.99264069,23.248 6,22.2406407 6,20.998 C6,19.7553593 4.99264069,18.748 3.75,18.748 C2.50735931,18.748 1.5,19.7553593 1.5,20.998 C1.5,22.2406407 2.50735931,23.248 3.75,23.248 Z M12,23.248 C13.2426407,23.248 14.25,22.2406407 14.25,20.998 C14.25,19.7553593 13.2426407,18.748 12,18.748 C10.7573593,18.748 9.75,19.7553593 9.75,20.998 C9.75,22.2406407 10.7573593,23.248 12,23.248 Z M20.25,23.248 C21.4926407,23.248 22.5,22.2406407 22.5,20.998 C22.5,19.7553593 21.4926407,18.748 20.25,18.748 C19.0073593,18.748 18,19.7553593 18,20.998 C18,22.2406407 19.0073593,23.248 20.25,23.248 Z" id="Shape"></path>
        </g>
    </g>
</svg>