<?xml version="1.0" encoding="UTF-8"?>
<svg width="22px" height="22px" viewBox="0 0 22 22" version="1.1" xmlns="http://www.w3.org/2000/svg" xmlns:xlink="http://www.w3.org/1999/xlink">
    <!-- Generator: Sketch 61 (89581) - https://sketch.com -->
    <title>sauna-heat-stone copy</title>
    <desc>Created with Sketch.</desc>
    <g id="Conversations" stroke="none" stroke-width="1" fill="none" fill-rule="evenodd" stroke-linecap="round" stroke-linejoin="round">
        <g id="conversations-–-line-credit-score" transform="translate(-139.000000, -564.000000)" stroke="#FFBE42" stroke-width="1.5">
            <g id="sauna-heat-stone-copy" transform="translate(140.000000, 565.000000)">
                <path d="M19.1113043,12.445 C19.6604638,12.9963582 19.9770611,13.723107 20,14.485 C20,17.1858333 15.62,19.3766667 10.2173913,19.3766667 C4.81478261,19.3766667 0.434782609,17.1858333 0.434782609,14.485 C0.457911715,13.7237991 0.774162573,12.9977282 1.3226087,12.4466667" id="Path"></path>
                <path d="M6.04347826,1.84916667 C5.23100103,2.51708137 4.71735152,3.4586165 4.60869565,4.47916667 C4.60869565,6.1225 6.04347826,7.76583333 6.04347826,9.41 C5.93460715,10.4302528 5.42097659,11.3714548 4.60869565,12.0391667" id="Path"></path>
                <path d="M15.826087,1.84916667 C15.0136097,2.51708137 14.4999602,3.4586165 14.3913043,4.47916667 C14.3913043,6.1225 15.826087,7.76666667 15.826087,9.41 C15.7174311,10.4305502 15.2037816,11.3720853 14.3913043,12.04" id="Path"></path>
                <path d="M11.1069565,0.626666667 C10.0993412,1.45426386 9.46234775,2.62146253 9.32782609,3.88666667 C9.32782609,5.92583333 11.1069565,7.96333333 11.1069565,10.0008333 C10.9725177,11.2665321 10.3355499,12.4342804 9.32782609,13.2625" id="Path"></path>
            </g>
        </g>
    </g>
</svg>