<?xml version="1.0" encoding="UTF-8"?>
<svg width="24px" height="24px" viewBox="0 0 24 24" version="1.1" xmlns="http://www.w3.org/2000/svg" xmlns:xlink="http://www.w3.org/1999/xlink">
    <!-- Generator: Sketch 61 (89581) - https://sketch.com -->
    <title>Shape</title>
    <desc>Created with Sketch.</desc>
    <g id="Icons" stroke="none" stroke-width="1" fill="none" fill-rule="evenodd" stroke-linecap="round" stroke-linejoin="round">
        <g id="Icons-/-Office-Files-/-Excel" stroke="#5E5E5E" stroke-width="1.5">
            <path d="M5.249,23.248 L2.249,23.248 C1.42057288,23.248 0.749,22.5764271 0.749,21.748 L0.749,2.248 C0.749,1.41957288 1.42057288,0.748 2.249,0.748 L12.878,0.748 C13.2755472,0.748 13.6568016,0.905981752 13.938,1.187 L19.81,7.059 C20.0910182,7.34019839 20.249,7.72145279 20.249,8.119 L20.249,12.748 M20.249,8.248 L14.249,8.248 C13.4205729,8.248 12.749,7.57642712 12.749,6.748 L12.749,0.748 M8.249,15.748 L11.249,23.248 M11.249,15.748 L8.249,23.248 M14.249,15.748 L14.249,21.748 C14.249,22.5764271 14.9205729,23.248 15.749,23.248 L17.249,23.248 M23.249,15.748 L21.749,15.748 C20.9205729,15.748 20.249,16.4195729 20.249,17.248 C20.249,19.498 23.249,19.498 23.249,21.748 C23.249,22.5764271 22.5774271,23.248 21.749,23.248 L20.249,23.248" id="Shape"></path>
        </g>
    </g>
</svg>