<svg xmlns="http://www.w3.org/2000/svg" width="24" height="24" viewBox="0 0 24 24">
  <path fill="#5E5E5E" fill-rule="evenodd" d="M21.843,3.455 C20.5374919,2.14905164 18.7665786,1.41534047 16.92,1.41534047 C15.0734214,1.41534047 13.3025081,2.14905164 11.997,3.455 L1.619,13.832 C-0.366862353,15.8374296 -0.358937133,19.0705972 1.63673281,21.0662672 C3.63240276,23.0619371 6.86557042,23.0698624 8.871,21.084 L17.3,12.653 C18.1858269,11.8332033 18.5521863,10.5944856 18.2547804,9.42473966 C17.9573745,8.25499369 17.0438649,7.34168045 15.8740551,7.04452592 C14.7042452,6.74737139 13.4656063,7.11399692 12.646,8 L7.457,13.184 C7.20405596,13.4365868 7.10507946,13.8049306 7.197354,14.15028 C7.28962854,14.4956293 7.55913542,14.7655174 7.90435401,14.85828 C8.24957259,14.9510425 8.61805596,14.8525868 8.871,14.6 L14.06,9.409 C14.5685975,8.92373179 15.3715845,8.9332646 15.8685184,9.43047017 C16.3654522,9.92767573 16.3745461,10.7306678 15.889,11.239 L7.457,19.67 C6.23534612,20.8916538 4.25465391,20.8916538 3.03300007,19.6699999 C1.81134623,18.4483461 1.8113462,16.4676539 3.033,15.246 L13.411,4.869 C15.3489672,2.93103281 18.4910328,2.93103281 20.429,4.869 C22.3669672,6.80696719 22.3669672,9.94903281 20.429,11.887 L12.646,19.67 C12.3860434,19.9210745 12.2817874,20.2928779 12.3733028,20.6425073 C12.4648183,20.9921368 12.7378632,21.2651817 13.0874927,21.3566972 C13.4371221,21.4482126 13.8089255,21.3439566 14.06,21.084 L21.843,13.3 C23.1491936,11.9946221 23.8830741,10.22366 23.8830741,8.377 C23.8830741,6.53033998 23.1491936,4.75937794 21.843,3.454 L21.843,3.455 Z"/>
</svg>
