<svg xmlns="http://www.w3.org/2000/svg" width="24" height="24" viewBox="0 0 24 24">
  <path fill="none" stroke="#5E5E5E" stroke-linecap="round" stroke-linejoin="round" stroke-width="1.5" d="M8.25,18 L5.25,20.25 L5.25,15.75 L2.25,15.75 C1.42157288,15.75 0.75,15.0784271 0.75,14.25 L0.75,2.25 C0.75,1.42157288 1.42157288,0.75 2.25,0.75 L18.75,0.75 C19.5784271,0.75 20.25,1.42157288 20.25,2.25 L20.25,6.75 M5.25,5.25 L15.75,5.25 M5.25,9.75 L8.25,9.75 M23.25,18.75 L20.25,18.75 L20.25,23.25 L15.75,18.75 L11.25,18.75 L11.25,9.75 L23.25,9.75 L23.25,18.75 L23.25,18.75 Z M20.25,12.75 L14.25,12.75 M20.25,15.75 L14.25,15.75"/>
</svg>
