<?xml version="1.0" encoding="UTF-8"?>
<svg width="442px" height="205px" viewBox="0 0 442 205" version="1.1" xmlns="http://www.w3.org/2000/svg" xmlns:xlink="http://www.w3.org/1999/xlink">
    <!-- Generator: Sketch 61 (89581) - https://sketch.com -->
    <title>Logo</title>
    <desc>Created with Sketch.</desc>
    <g id="Logos" stroke="none" stroke-width="1" fill="none" fill-rule="evenodd">
        <g id="Logos-/-Full-Logo-/--Icon-on-Top-/-Coloured">
            <g id="Logo">
                <path d="M384.951,146.011 L379.504,174.063 L390.499,174.063 L384.951,146.011 Z M376.523,188.858 L373.854,202.73 L351.761,202.73 L372.619,131.214 L397.899,131.214 L418.653,202.73 L396.253,202.73 L393.48,188.858 L376.523,188.858 L376.523,188.858 Z" id="Fill-1" fill="#90246C"></path>
                <polygon id="Fill-2" fill="#90246C" points="420.5 202.73 441.667 202.73 441.667 131.214 420.5 131.214"></polygon>
                <path d="M216.059,10.202 C216.059,4.702 211.585,0.229 206.086,0.229 C200.587,0.229 196.113,4.702 196.113,10.202 C196.113,15.701 200.587,20.175 206.086,20.175 C211.585,20.175 216.059,15.701 216.059,10.202" id="Fill-3" fill="#90246C"></path>
                <path d="M181.199,33.36 C181.199,38.859 185.673,43.334 191.173,43.334 C196.671,43.334 201.145,38.859 201.145,33.36 C201.145,27.861 196.671,23.388 191.173,23.388 C185.673,23.388 181.199,27.861 181.199,33.36" id="Fill-4" fill="#90246C"></path>
                <path d="M211.026,33.36 C211.026,38.859 215.5,43.334 221,43.334 C226.5,43.334 230.974,38.859 230.974,33.36 C230.974,27.861 226.5,23.388 221,23.388 C215.5,23.388 211.026,27.861 211.026,33.36" id="Fill-5" fill="#90246C"></path>
                <path d="M181.199,79.678 C181.199,85.177 185.673,89.651 191.173,89.651 C196.671,89.651 201.145,85.177 201.145,79.678 C201.145,74.179 196.671,69.705 191.173,69.705 C185.673,69.705 181.199,74.179 181.199,79.678" id="Fill-6" fill="#90246C"></path>
                <path d="M211.026,79.678 C211.026,85.177 215.5,89.651 221,89.651 C226.5,89.651 230.974,85.177 230.974,79.678 C230.974,74.179 226.5,69.705 221,69.705 C215.5,69.705 211.026,74.179 211.026,79.678" id="Fill-7" fill="#90246C"></path>
                <path d="M196.113,102.837 C196.113,108.336 200.587,112.81 206.086,112.81 C211.585,112.81 216.059,108.336 216.059,102.837 C216.059,97.337 211.585,92.863 206.086,92.863 C200.587,92.863 196.113,97.337 196.113,102.837" id="Fill-8" fill="#90246C"></path>
                <polyline id="Fill-9" fill="#00648D" points="21.5 145.908 21.5 161.527 40.921 161.527 40.921 176.221 21.5 176.221 21.5 202.73 0.333 202.73 0.333 131.214 45.75 131.214 43.593 145.908 21.5 145.908"></polyline>
                <path d="M78.834,204.786 C58.695,204.786 49.139,194.099 49.139,178.482 L49.139,131.214 L70.306,131.214 L70.306,177.864 C70.306,185.777 72.669,189.578 78.834,189.578 C85.001,189.578 87.362,185.777 87.362,177.864 L87.362,131.214 L108.531,131.214 L108.531,178.482 C108.531,193.073 98.975,204.786 78.834,204.786" id="Fill-10" fill="#00648D"></path>
                <path d="M147.882,202.73 L132.262,150.532 C133.289,157.417 135.037,167.281 135.037,180.536 L135.037,202.73 L116.336,202.73 L116.336,131.214 L142.333,131.214 L158.567,183.618 C157.231,175.296 155.69,167.075 155.69,154.129 L155.69,131.214 L174.392,131.214 L174.392,202.73 L147.882,202.73" id="Fill-11" fill="#00648D"></path>
                <path d="M214.772,202.73 L199.152,150.532 C200.18,157.417 201.928,167.281 201.928,180.536 L201.928,202.73 L183.227,202.73 L183.227,131.214 L209.224,131.214 L225.458,183.618 C224.122,175.296 222.581,167.075 222.581,154.129 L222.581,131.214 L241.282,131.214 L241.282,202.73 L214.772,202.73" id="Fill-12" fill="#00648D"></path>
                <polyline id="Fill-13" fill="#00648D" points="271.281 145.908 271.281 159.266 292.038 159.266 292.038 173.55 271.281 173.55 271.281 187.934 296.559 187.934 296.559 202.73 250.115 202.73 250.115 131.214 297.074 131.214 294.915 145.908 271.281 145.908"></polyline>
                <polyline id="Fill-14" fill="#00648D" points="324.711 186.497 324.711 131.214 303.545 131.214 303.545 202.73 346.463 202.73 351.197 186.497 324.711 186.497"></polyline>
                <path d="M225.94,10.202 C225.94,15.701 230.414,20.175 235.914,20.175 C241.413,20.175 245.887,15.701 245.887,10.202 C245.887,4.702 241.413,0.229 235.914,0.229 C230.414,0.229 225.94,4.702 225.94,10.202" id="Fill-15" fill="#00648D"></path>
                <path d="M240.854,33.36 C240.854,38.859 245.328,43.334 250.827,43.334 C256.327,43.334 260.801,38.859 260.801,33.36 C260.801,27.861 256.327,23.388 250.827,23.388 C245.328,23.388 240.854,27.861 240.854,33.36" id="Fill-16" fill="#00648D"></path>
                <path d="M166.285,56.52 C166.285,62.019 170.76,66.492 176.259,66.492 C181.758,66.492 186.231,62.019 186.231,56.52 C186.231,51.02 181.758,46.546 176.259,46.546 C170.76,46.546 166.285,51.02 166.285,56.52" id="Fill-17" fill="#00648D"></path>
                <path d="M196.113,56.52 C196.113,62.019 200.587,66.492 206.086,66.492 C211.585,66.492 216.059,62.019 216.059,56.52 C216.059,51.02 211.585,46.546 206.086,46.546 C200.587,46.546 196.113,51.02 196.113,56.52" id="Fill-18" fill="#00648D"></path>
                <path d="M225.94,56.52 C225.94,62.019 230.414,66.492 235.914,66.492 C241.413,66.492 245.887,62.019 245.887,56.52 C245.887,51.02 241.413,46.546 235.914,46.546 C230.414,46.546 225.94,51.02 225.94,56.52" id="Fill-19" fill="#00648D"></path>
                <path d="M255.768,56.52 C255.768,62.019 260.241,66.492 265.741,66.492 C271.24,66.492 275.715,62.019 275.715,56.52 C275.715,51.02 271.24,46.546 265.741,46.546 C260.241,46.546 255.768,51.02 255.768,56.52" id="Fill-20" fill="#00648D"></path>
                <path d="M240.854,79.678 C240.854,85.177 245.328,89.651 250.827,89.651 C256.327,89.651 260.801,85.177 260.801,79.678 C260.801,74.179 256.327,69.705 250.827,69.705 C245.328,69.705 240.854,74.179 240.854,79.678" id="Fill-21" fill="#00648D"></path>
                <path d="M225.94,102.837 C225.94,108.336 230.414,112.81 235.914,112.81 C241.413,112.81 245.887,108.336 245.887,102.837 C245.887,97.337 241.413,92.863 235.914,92.863 C230.414,92.863 225.94,97.337 225.94,102.837" id="Fill-22" fill="#00648D"></path>
            </g>
        </g>
    </g>
</svg>