<svg xmlns="http://www.w3.org/2000/svg" width="24" height="24" viewBox="0 0 24 24">
  <path fill="none" stroke="#5E5E5E" stroke-linecap="round" stroke-linejoin="round" stroke-width="1.5" d="M23.164,10.466 C23.0147908,9.79292804 22.6765371,9.176439 22.189,8.689 L20.25,6.75 L3.75,6.75 L1.811,8.689 C1.13191224,9.3683236 0.750294217,10.2894581 0.75,11.25 C0.75,12.0784271 1.42157288,12.75 2.25,12.75 L9.75,12.75 M1.075,9.75 L5.25,9.75 M3.75,6.74999806 L5.45,2.21 C5.77936022,1.33084457 6.62017578,0.748772159 7.559,0.749998061 L16.441,0.749998061 C17.3787266,0.749998061 18.2180243,1.33187345 18.547,2.21 L20.247,6.74999806 L3.75,6.74999806 Z M2.25,12.75 L2.25,14.25 C2.25,15.0784271 2.92157288,15.75 3.75,15.75 C4.57842712,15.75 5.25,15.0784271 5.25,14.25 L5.25,12.75 L2.25,12.75 Z M17.25,23.25 C20.5637085,23.25 23.25,20.5637085 23.25,17.25 C23.25,13.9362915 20.5637085,11.25 17.25,11.25 C13.9362915,11.25 11.25,13.9362915 11.25,17.25 C11.25,20.5637085 13.9362915,23.25 17.25,23.25 Z M19.924,15.506 L17.019,19.379 C16.8882581,19.5526743 16.6887571,19.6612741 16.4719275,19.676803 C16.255098,19.6923319 16.0421571,19.6132703 15.888,19.46 L14.388,17.96"/>
</svg>
