<svg xmlns="http://www.w3.org/2000/svg" width="24" height="24" viewBox="0 0 24 24">
  <path fill="none" stroke="#5E5E5E" stroke-linecap="round" stroke-linejoin="round" stroke-width="1.5" d="M23.2,1.82795455 C23.2135353,1.61624766 23.1408445,1.40824416 22.9991666,1.25327311 C22.8574886,1.09830207 22.659444,1.01016814 22.452,1.00977273 L1.5,1.00977273 C1.29246118,1.00977273 1.0942382,1.09790849 0.952495684,1.25295013 C0.810753168,1.40799178 0.738164057,1.61617112 0.752,1.82795455 C1.11343941,6.9750987 4.7804287,11.2470974 9.724,12.2802273 L9.724,22.3796591 C9.72410906,22.677201 9.89245785,22.9478359 10.1559292,23.0740218 C10.4194006,23.2002076 10.7304568,23.1591769 10.954,22.96875 L13.954,20.4119318 C14.1252275,20.2664416 14.2241953,20.0505118 14.224,19.8228409 L14.224,12.2802273 C19.1693272,11.2490252 22.838432,6.97646676 23.2,1.82795455 Z"/>
</svg>
