<svg xmlns="http://www.w3.org/2000/svg" width="24" height="24" viewBox="0 0 24 24">
  <path fill="none" stroke="#5E5E5E" stroke-linecap="round" stroke-linejoin="round" stroke-width="1.5" d="M13.5,20.248 C14.7426407,20.248 15.75,19.2406407 15.75,17.998 C15.75,16.7553593 14.7426407,15.748 13.5,15.748 C12.2573593,15.748 11.25,16.7553593 11.25,17.998 C11.25,19.2406407 12.2573593,20.248 13.5,20.248 Z M21,23.248 C22.2426407,23.248 23.25,22.2406407 23.25,20.998 C23.25,19.7553593 22.2426407,18.748 21,18.748 C19.7573593,18.748 18.75,19.7553593 18.75,20.998 C18.75,22.2406407 19.7573593,23.248 21,23.248 Z M21,15.748 C22.2426407,15.748 23.25,14.7406407 23.25,13.498 C23.25,12.2553593 22.2426407,11.248 21,11.248 C19.7573593,11.248 18.75,12.2553593 18.75,13.498 C18.75,14.7406407 19.7573593,15.748 21,15.748 Z M15.424,16.843 L19.074,14.653 M15.588,18.833 L18.912,20.163 M22.834,8.316 C21.7006131,4.37502549 18.3766625,1.45447279 14.3226183,0.837568029 C10.2685741,0.220663263 6.22635066,2.02030369 3.97201137,5.44576719 C1.71767207,8.87123069 1.66377448,13.295637 3.834,16.775 L0.75,23.25 L7.224,20.167 C7.78745489,20.5155589 8.38199656,20.8111559 9,21.05"/>
</svg>
