<svg xmlns="http://www.w3.org/2000/svg" width="24" height="24" viewBox="0 0 24 24">
  <path fill="#5E5E5E" fill-rule="evenodd" d="M2.93414726,16.6549169 L3,16.71 L7.284,20.995 C7.40694322,21.1181488 7.45701692,21.2963606 7.41620626,21.4655208 C7.38219738,21.6064876 7.28915106,21.7242707 7.16326374,21.7906017 L7.084,21.824 L0.664,23.963 C0.484113271,24.0210651 0.286862847,23.9744492 0.152,23.842 C0.0405278047,23.7302073 -0.0103149316,23.5739153 0.0106874394,23.4209774 L0.032,23.33 L2.172,16.91 C2.22570324,16.7448285 2.36127384,16.6193586 2.53010121,16.578579 C2.67079068,16.5445961 2.81777722,16.5734833 2.93414726,16.6549169 Z M16.1078336,3.44937392 L16.187,3.511 L20.467,7.793 C20.6405031,7.96655549 20.6597812,8.23591362 20.5248344,8.43075859 L20.467,8.5 L9.054,19.911 C8.88044451,20.0845031 8.61108638,20.1037812 8.41624141,19.9688344 L8.347,19.911 L4.067,15.631 C3.89349692,15.4574445 3.8742188,15.1880864 4.00916564,14.9932414 L4.067,14.924 L15.48,3.511 C15.6534667,3.34666379 15.9128802,3.32612176 16.1078336,3.44937392 Z M17.98,1.017 C19.3759681,-0.314812043 21.5720319,-0.314812043 22.968,1.017 C24.3404461,2.39449486 24.3404461,4.62250514 22.968,6 L22.968,6 L22.254,6.717 C22.0587501,6.91219097 21.7422499,6.91219097 21.547,6.717 L21.547,6.717 L17.268,2.437 C17.072809,2.24175007 17.072809,1.92524993 17.268,1.73 L17.268,1.73 Z"/>
</svg>
