<svg xmlns="http://www.w3.org/2000/svg" width="24" height="24" viewBox="0 0 24 24">
  <path fill="none" stroke="#5E5E5E" stroke-linecap="round" stroke-linejoin="round" stroke-width="1.5" d="M12,11.25 C14.8994949,11.25 17.25,8.89949494 17.25,6 C17.25,3.10050506 14.8994949,0.75 12,0.75 C9.10050506,0.75 6.75,3.10050506 6.75,6 C6.75,8.89949494 9.10050506,11.25 12,11.25 Z M2.25,23.25 C2.25,17.8652237 6.61522369,13.5 12,13.5 C17.3847763,13.5 21.75,17.8652237 21.75,23.25 M8.25,14.249 L8.25,15 C8.25,17.0710678 9.92893219,18.75 12,18.75 C14.0710678,18.75 15.75,17.0710678 15.75,15 L15.75,14.249"/>
</svg>
