<?xml version="1.0" encoding="UTF-8"?>
<svg width="110px" height="113px" viewBox="0 0 110 113" version="1.1" xmlns="http://www.w3.org/2000/svg" xmlns:xlink="http://www.w3.org/1999/xlink">
    <!-- Generator: Sketch 61 (89581) - https://sketch.com -->
    <title>Logo</title>
    <desc>Created with Sketch.</desc>
    <g id="Logos" stroke="none" stroke-width="1" fill="none" fill-rule="evenodd">
        <g id="Logos-/-Symbol-Only-/--Coloured">
            <g id="Logo">
                <path d="M49.892,10.134 C49.892,4.634 45.418,0.161 39.92,0.161 C34.42,0.161 29.946,4.634 29.946,10.134 C29.946,15.633 34.42,20.107 39.92,20.107 C45.418,20.107 49.892,15.633 49.892,10.134" id="Fill-1" fill="#90246C"></path>
                <path d="M15.032,33.293 C15.032,38.792 19.507,43.266 25.006,43.266 C30.505,43.266 34.979,38.792 34.979,33.293 C34.979,27.793 30.505,23.319 25.006,23.319 C19.507,23.319 15.032,27.793 15.032,33.293" id="Fill-2" fill="#90246C"></path>
                <path d="M44.86,33.293 C44.86,38.792 49.334,43.266 54.833,43.266 C60.333,43.266 64.807,38.792 64.807,33.293 C64.807,27.793 60.333,23.319 54.833,23.319 C49.334,23.319 44.86,27.793 44.86,33.293" id="Fill-3" fill="#90246C"></path>
                <path d="M15.032,79.611 C15.032,85.11 19.507,89.583 25.006,89.583 C30.505,89.583 34.979,85.11 34.979,79.611 C34.979,74.111 30.505,69.637 25.006,69.637 C19.507,69.637 15.032,74.111 15.032,79.611" id="Fill-4" fill="#90246C"></path>
                <path d="M44.86,79.611 C44.86,85.11 49.334,89.583 54.833,89.583 C60.333,89.583 64.807,85.11 64.807,79.611 C64.807,74.111 60.333,69.637 54.833,69.637 C49.334,69.637 44.86,74.111 44.86,79.611" id="Fill-5" fill="#90246C"></path>
                <path d="M29.946,102.769 C29.946,108.268 34.42,112.741 39.92,112.741 C45.418,112.741 49.892,108.268 49.892,102.769 C49.892,97.27 45.418,92.796 39.92,92.796 C34.42,92.796 29.946,97.27 29.946,102.769" id="Fill-6" fill="#90246C"></path>
                <path d="M59.773,10.134 C59.773,15.633 64.247,20.107 69.747,20.107 C75.247,20.107 79.721,15.633 79.721,10.134 C79.721,4.634 75.247,0.161 69.747,0.161 C64.247,0.161 59.773,4.634 59.773,10.134" id="Fill-7" fill="#00648D"></path>
                <path d="M74.687,33.293 C74.687,38.792 79.161,43.266 84.661,43.266 C90.16,43.266 94.634,38.792 94.634,33.293 C94.634,27.793 90.16,23.319 84.661,23.319 C79.161,23.319 74.687,27.793 74.687,33.293" id="Fill-8" fill="#00648D"></path>
                <path d="M0.119,56.452 C0.119,61.95 4.593,66.424 10.092,66.424 C15.591,66.424 20.064,61.95 20.064,56.452 C20.064,50.952 15.591,46.478 10.092,46.478 C4.593,46.478 0.119,50.952 0.119,56.452" id="Fill-9" fill="#00648D"></path>
                <path d="M29.946,56.452 C29.946,61.95 34.42,66.424 39.92,66.424 C45.418,66.424 49.892,61.95 49.892,56.452 C49.892,50.952 45.418,46.478 39.92,46.478 C34.42,46.478 29.946,50.952 29.946,56.452" id="Fill-10" fill="#00648D"></path>
                <path d="M59.773,56.452 C59.773,61.95 64.247,66.424 69.747,66.424 C75.247,66.424 79.721,61.95 79.721,56.452 C79.721,50.952 75.247,46.478 69.747,46.478 C64.247,46.478 59.773,50.952 59.773,56.452" id="Fill-11" fill="#00648D"></path>
                <path d="M89.602,56.452 C89.602,61.95 94.075,66.424 99.574,66.424 C105.074,66.424 109.548,61.95 109.548,56.452 C109.548,50.952 105.074,46.478 99.574,46.478 C94.075,46.478 89.602,50.952 89.602,56.452" id="Fill-12" fill="#00648D"></path>
                <path d="M74.687,79.611 C74.687,85.11 79.161,89.583 84.661,89.583 C90.16,89.583 94.634,85.11 94.634,79.611 C94.634,74.111 90.16,69.637 84.661,69.637 C79.161,69.637 74.687,74.111 74.687,79.611" id="Fill-13" fill="#00648D"></path>
                <path d="M59.773,102.769 C59.773,108.268 64.247,112.741 69.747,112.741 C75.247,112.741 79.721,108.268 79.721,102.769 C79.721,97.27 75.247,92.796 69.747,92.796 C64.247,92.796 59.773,97.27 59.773,102.769" id="Fill-14" fill="#00648D"></path>
            </g>
        </g>
    </g>
</svg>