<svg xmlns="http://www.w3.org/2000/svg" width="24" height="24" viewBox="0 0 24 24">
  <path fill="none" stroke="#5E5E5E" stroke-linecap="round" stroke-linejoin="round" stroke-width="1.5" d="M0.749,23.25 L22.499,23.25 M6.883,10.121 L2.866,14.134 M14.311,11.325 L9.637,10.075 M20.392,7.889 L16.811,10.689 M8.249,11.001 C9.07742712,11.001 9.749,10.3294271 9.749,9.501 C9.749,8.67257288 9.07742712,8.001 8.249,8.001 C7.42057288,8.001 6.749,8.67257288 6.749,9.501 C6.749,10.3294271 7.42057288,11.001 8.249,11.001 Z M21.75,8.75 C22.5784271,8.75 23.25,8.07842712 23.25,7.25 C23.25,6.42157288 22.5784271,5.75 21.75,5.75 C20.9215729,5.75 20.25,6.42157288 20.25,7.25 C20.25,8.07842712 20.9215729,8.75 21.75,8.75 Z M15.75,13.25 C16.5784271,13.25 17.25,12.5784271 17.25,11.75 C17.25,10.9215729 16.5784271,10.25 15.75,10.25 C14.9215729,10.25 14.25,10.9215729 14.25,11.75 C14.25,12.5784271 14.9215729,13.25 15.75,13.25 Z M2.249,17.001 C3.07742712,17.001 3.749,16.3294271 3.749,15.501 C3.749,14.6725729 3.07742712,14.001 2.249,14.001 C1.42057288,14.001 0.749,14.6725729 0.749,15.501 C0.749,16.3294271 1.42057288,17.001 2.249,17.001 Z"/>
</svg>
