<svg xmlns="http://www.w3.org/2000/svg" width="24" height="24" viewBox="0 0 24 24">
  <path fill="none" stroke="#5E5E5E" stroke-linecap="round" stroke-linejoin="round" stroke-width="1.5" d="M6,12.25 C6.37969577,12.25 6.69349096,12.5321539 6.74315338,12.8982294 L6.75,13 L6.75,22.75 L2.25,22.75 L2.25,13 C2.25,12.6203042 2.53215388,12.306509 2.89822944,12.2568466 L3,12.25 L6,12.25 Z M10.5,3.25 L13.5,3.25 C13.8796958,3.25 14.193491,3.53215388 14.2431534,3.89822944 L14.25,4 L14.25,22.75 L9.75,22.75 L9.75,4 C9.75,3.62030423 10.0321539,3.30650904 10.3982294,3.25684662 L10.5,3.25 L13.5,3.25 Z M21,7.75 C21.4142136,7.75 21.75,8.08578644 21.75,8.5 L21.75,8.5 L21.75,22.75 L17.25,22.75 L17.25,8.5 C17.25,8.08578644 17.5857864,7.75 18,7.75 L18,7.75 Z"/>
</svg>
