<svg xmlns="http://www.w3.org/2000/svg" width="24" height="24" viewBox="0 0 24 24">
  <path fill="#5E5E5E" fill-rule="evenodd" d="M23.9040444,8.66152735 C23.678726,8.06138982 23.1016825,7.66264479 22.4557642,7.66074566 L16.1857204,7.66074566 C15.9670535,7.66090186 15.7721241,7.52415169 15.6995267,7.31966292 L13.448821,0.995335367 C13.2230631,0.396743917 12.6461844,1.95399252e-14 12.0015709,1.95399252e-14 C11.3569573,1.95399252e-14 10.7800787,0.396743917 10.5543207,0.995335367 L10.5491704,1.01167466 L8.30361499,7.31966292 C8.23114327,7.52379821 8.03674012,7.66046873 7.81845142,7.66074566 L1.54634744,7.66074566 C0.89600571,7.66026088 0.314974675,8.06354848 0.0929284983,8.66954864 C-0.129117679,9.2755488 0.0553595921,9.95452098 0.554388805,10.3679623 L5.89427829,14.7591472 C6.0577637,14.8936491 6.12117129,15.1138684 6.05393933,15.313662 L3.8104441,21.9831571 C3.59769024,22.6159269 3.82239994,23.3124457 4.36605994,23.7053651 C4.90971995,24.0982845 5.64734563,24.0972745 6.18990874,23.7028677 L11.6966698,19.6997409 C11.8778793,19.5681222 12.1242324,19.5681222 12.3054419,19.6997409 L17.8101428,23.7018465 C18.352498,24.0976138 19.0909413,24.0995476 19.6353979,23.7066264 C20.1798545,23.3137051 20.4049045,22.6164412 20.1916676,21.9831571 L17.9481723,15.3095772 C17.8809404,15.1097836 17.944348,14.8895643 18.1078334,14.7550624 L23.4580236,10.3577502 C23.9505699,9.9408844 24.1286273,9.26372996 23.9040444,8.66152735 Z"/>
</svg>
