<svg xmlns="http://www.w3.org/2000/svg" height="259.725" width="602.537"><defs><clipPath id="a" clipPathUnits="userSpaceOnUse"><path d="M0 0h4820v2077.78H0V0z"/></clipPath></defs><g clip-path="url(#a)" transform="matrix(.13 0 0 -.13 0 259.725)"><path d="M1929.69 348.871l-14.24 43.961h-280.71l-6.32-13.254 13.84-8.617c11.7-7.231 14.97-12.852 14.97-26.09l-.11-336.5h271.8v45.73h-193.05V186.31h168.43v44h-168.43v118.562h193.82m804.03-.001l-14.27 43.961h-280.68l-6.39-13.254 13.91-8.617c11.71-7.231 15.04-12.852 15.04-26.09l-.07-336.5h271.73v45.73h-192.98V186.31h168.25v44h-168.25v118.562h193.71m421.18 30.597l13.91-8.52c11.7-7.187 14.89-12.73 14.89-26.09V8.371h78.68V392.79h-101.13l-6.35-13.32M1414.61 200.219l34.97-15.418c11.19-4.992 15.41-10.641 15.41-23.52V61.398c-16.33-8.257-38.27-15.629-63.59-15.296-40.88.546-87.41 26.16-107.59 64.136-15.23 28.774-22.79 61.981-22.79 89.532 0 88.441 49.28 156.992 135.77 156.992 20.7 0 64.55.179 116.99-47.34l16.91 62.379c-57.46 23.961-139.11 40.039-212.24 21.058-84.88-21.871-139.66-91.179-139.66-194.257 0-126.23 82.31-198.454 201.86-198.454 88.25 0 142.08 28.883 154.81 39.16V213.61h-125.2l-5.65-13.39m877.12-77.579l-210.96 270.218h-74.56l-6.24-13.359 13.87-8.578c11.56-7.16 14.93-12.703 14.93-24.594V8.371h55.85v258.481l202.05-258.48h60.84v384.487h-55.78V122.641m692.7 115.441c-50.35 23.34-97.43 43.188-96.62 78.52.48 24.367 26.31 43.117 62.09 43.117 47.37 0 85.61-11.59 123.15-27.039l9.72 47.742c-33.39 11.668-81.57 20.797-120.39 20.797-97.14 0-152.51-39.039-153.65-94.27-1.39-60.14 48.95-91.07 100.73-116.058 29.36-14.09 52.48-24.301 69.43-34.68 50.12-30.313 46.67-64.223 31.19-86.27-13.17-18.82-42.64-24.402-64.33-24.402-38.34 0-91.48 16.48-122.3 31.082l-6.09-60.95c16.25-4 64.36-15.671 113.71-15.671 96.26 0 169.76 31.04 171.63 115.551 1.35 64.48-60.66 95.699-118.27 122.531m533.11 0c-50.35 23.34-97.35 43.188-96.66 78.52.55 24.367 26.35 43.117 62.05 43.117 47.49 0 85.69-11.59 123.34-27.039l9.68 47.742c-33.46 11.668-81.64 20.797-120.36 20.797-97.24 0-152.46-39.039-153.67-94.27-1.22-60.14 48.91-91.07 100.76-116.058 29.28-14.09 52.25-24.301 69.35-34.68 50.17-30.313 46.64-64.223 31.19-86.27-13.13-18.82-42.64-24.402-64.32-24.402-38.39 0-91.37 16.48-122.23 31.082l-6.2-60.95c16.21-4 64.36-15.671 113.86-15.671 96.21 0 169.71 31.04 171.48 115.551 1.43 64.48-60.59 95.699-118.27 122.531M2875.3 1744.34c-6.05 17.72-18.42 26.64-25.21 31.6-8.25 5.69-91.19 46.82-204.5 81.94-87.37 27-171.66 42.56-212.06 50.01l-15.56 2.93-6.38 2.1-25.98-4.99c-40.55-7.49-124.77-23.05-212.14-50.05-112.83-34.97-196.02-76.11-206.08-83.12-5.21-3.78-17.54-12.7-23.55-30.38-5.33-15.6-.08-36.77.07-37.25 10.6-43.96 50.16-170.41 93.35-263.54 16.11-34.71 29.25-60.4 44.37-80.8 48.32-70.68 202.48-172.73 292.75-215.25l21.24-9.14 15.75-5.25 34.38 14.94c89.28 41.97 243.36 143.98 291.43 214.37 15.41 20.73 28.4 46.42 44.59 81.13 43.26 93.09 82.71 219.58 93.27 263.21.3.92 5.4 21.98.26 37.54" fill="#100f0d"/><path d="M2201.06 1659.08h51.41v13.46h-51.41v36.15h59.12l-4.33 13.47h-85.65l-1.94-4.11 4.21-2.61c3.6-2.2 4.63-3.89 4.63-7.96V1604.8h82.86v13.95h-58.9v40.33m245.37 0h51.37v13.46h-51.37v36.15h59.08l-4.33 13.47h-85.65l-1.91-4.11 4.19-2.61c3.59-2.2 4.62-3.89 4.62-7.96V1604.8h82.82v13.95h-58.82v40.33m189.55 63.06l-1.94-4.08 4.29-2.64c3.52-2.16 4.51-3.89 4.51-7.96v-102.67h24.04v117.35h-30.9m-531.19-54.69l-1.76-4.07 10.71-4.73c3.38-1.54 4.7-3.23 4.7-7.12v-30.57c-4.99-2.5-11.7-4.73-19.37-4.62-12.52.14-26.68 7.96-32.85 19.59-4.66 8.74-7 18.9-7 27.34 0 26.94 15.04 47.85 41.39 47.85 6.38 0 19.74.08 35.78-14.42l5.13 19.04c-17.54 7.31-42.42 12.19-64.76 6.43-25.91-6.72-42.64-27.85-42.64-59.27 0-38.52 25.1-60.61 61.64-60.61 26.86 0 43.34 8.84 47.23 11.96v53.2h-38.2m265.85 54.69v-82.5l-64.33 82.5h-22.75l-1.87-4.08 4.18-2.64c3.6-2.16 4.59-3.89 4.59-7.49V1605.3l17.02-.51v78.85l61.65-78.85h18.57l.04 117.35h-17.1m211.35-47.26c-15.27 7.15-29.65 13.21-29.43 24 .15 7.37 8.04 13.13 18.9 13.13 14.45 0 26.12-3.56 37.65-8.22l2.89 14.53c-10.2 3.6-24.87 6.35-36.73 6.35-29.61 0-46.49-11.96-46.86-28.77-.36-18.35 14.9-27.77 30.75-35.41 8.92-4.33 15.97-7.41 21.18-10.6 15.3-9.21 14.23-19.6 9.5-26.31-4-5.69-12.95-7.38-19.59-7.38-11.67 0-27.89 4.99-37.32 9.4l-1.91-18.54c4.99-1.2 19.67-4.8 34.79-4.8 29.35 0 51.74 9.47 52.29 35.26.44 19.67-18.46 29.21-36.11 37.36m162.69 0c-15.3 7.15-29.68 13.21-29.5 24 .15 7.37 8.07 13.13 19.01 13.13 14.42 0 26.09-3.56 37.54-8.22l2.97 14.53c-10.13 3.6-24.92 6.35-36.77 6.35-29.58 0-46.46-11.96-46.9-28.77-.29-18.35 15.01-27.77 30.83-35.41 8.91-4.33 15.92-7.41 21.17-10.6 15.34-9.21 14.24-19.6 9.5-26.31-4-5.69-12.95-7.38-19.59-7.38-11.74 0-27.96 4.99-37.32 9.4l-1.91-18.54c4.96-1.2 19.63-4.8 34.79-4.8 29.28 0 51.7 9.47 52.29 35.26.44 19.67-18.42 29.21-36.11 37.36" fill="#fff"/><path d="M219.691 1875.55s291.688-57.68 607.817-94.59c222.222-25.98 528.702-71.34 528.702-71.34 149.97-26.57 200.94-40.66 246.85-68.25 40.58-24.37 89.2-78.35 119.81-121.46 57.35-80.8 138.23-215.88 350.1-382.7-131.07 121.76-278.29 320.02-335.13 410.84-27.6 44.11-67.12 98.42-122.2 131.81-32.51 19.63-64.03 34.24-263.03 61.94 0 0-224.13 28.66-424.743 51.85-200.609 23.15-708.176 81.9-708.176 81.9" fill="#100f0d"/><path d="M1689.25 1908.87c-61.31 2.49-1583.68 88.32-1659.969 73.06l155.883-75.27c454.906-36.65 938.216-102.56 1165.546-127.91 227.43-25.4 288.12-67.52 288.12-67.52 59.16-37.03 92.26-76.4 124.66-123.23 66.38-95.7 104.61-147.73 157.42-225.23 46.82-68.8 126.05-160.17 159.36-193.09 30.76-30.31 49.84-43.85 57.32-55.19 13.73-20.69-19.04-20.36-139.44 16.96-111.29 34.45-256.39 74.05-279.06 81.72-22.68 7.63 1.21 16.73 10.49 19.15 9.25 2.46 65.1 19.85 86.12 27.34 27.19 9.61 62.13 15.85 37.62 34.16-22.2 16.52-61.06 28.22-124.99 23.34-115.29-8.81-254.84-8.62-325.04 4.22-64.4 11.74-152.76 39.78-286.85 80.58-134.116 40.84-233.303 71.78-251.577 78.13-18.312 6.38-8.55 7.63-8.55 7.63 49.062 3.26 699.447 34.01 739.107 35.92 39.67 1.95 38.5 15.16 31.12 24.95-5.17 6.87-13.43 14.24-33.28 22.75-19.89 8.59-83.08 9.03-83.08 9.03-169.86 1.8-668.801 12.22-772.907 16.18-80.507 3.13-137.054-.33-241.82 24.15-118.156 27.67-172.281 77.65-215.691 124.18-40.289 43.19-93.352 123.62-93.352 123.62C25.504 1929.3 0 1941.52 0 1941.52s8.254-20.77 13.21-30.41c43.372-84.51 134.192-229.61 239.435-300.17 0 0 53.281-40.84 208.757-87.23 626.238-186.92 1719.818-514.75 1948.728-558.46l-.08.191-65.86 148.169c-119.08 62.05-256.58 160.25-303.33 232.1-16.65 22.31-27.85 49.46-46.19 89.09-53.69 115.89-99.52 269.53-104.77 301.89-8.11 49.65 28.11 69.8 40.26 75.63 107.15 53.61 273.41 105.13 423.93 137.9l-.58.08 56.62 127.44c-155.33-27.19-424.9-110.05-501.77-139.15-114.01-43.12-157.79-32.22-219.11-29.72" fill="#100f0d"/><path d="M4633.86 1868.51s-53.06-80.4-93.31-123.66c-43.45-46.53-97.61-96.47-215.73-124.14-104.81-24.51-161.35-21.03-241.86-24.15-104.07-4-603.01-14.35-772.87-16.18 0 0-63.15-.48-83.08-9.03-19.85-8.55-28.07-15.89-33.32-22.78-7.34-9.8-8.51-22.98 31.16-24.92 39.63-1.94 690.05-32.69 739.11-35.89 0 0 9.72-1.28-8.55-7.63-18.28-6.42-117.46-37.32-251.62-78.12-134.05-40.88-222.48-68.84-286.81-80.66-70.2-12.84-209.75-13.03-325.01-4.18-63.99 4.92-102.85-6.79-125.05-23.38-24.48-18.27 10.42-24.55 37.65-34.16 20.99-7.41 76.84-24.88 86.08-27.3 9.32-2.46 33.18-11.56 10.54-19.19-22.76-7.64-167.81-47.23-279.07-81.72-120.43-37.32-153.13-37.65-139.44-16.92 7.48 11.34 26.57 24.84 57.32 55.19 33.35 32.92 112.54 124.29 159.36 193.09 52.81 77.5 91.04 129.53 157.39 225.23 32.44 46.79 65.53 86.2 124.65 123.19 0 0 60.69 42.16 288.13 67.51 227.4 25.36 710.71 91.27 1165.54 128l155.88 75.19c-76.25 15.3-1598.62-70.53-1659.97-73.02-61.28-2.54-105.09-13.4-219.14 29.75-76.8 29.03-346.36 111.89-501.73 139.15l56.62-127.44-.66-.07c150.48-32.85 316.79-84.33 424.01-137.98 12.15-5.76 48.36-25.94 40.25-75.63-5.21-32.32-51.04-185.93-104.76-301.81-18.38-39.71-29.54-66.86-46.16-89.17-46.75-71.85-184.29-170.08-303.43-232.1l-65.87-148.318c228.94 43.738 1322.6 371.468 1948.76 558.428 155.48 46.42 208.76 87.22 208.76 87.22 105.24 70.6 196.06 215.73 239.4 300.2 4.99 9.69 13.24 30.39 13.24 30.39s-25.5-12.22-186.41-72.99" fill="#100f0d"/><path d="M3204.63 1679.86c-55.19-33.32-94.6-87.7-122.23-131.77-56.92-90.86-204.1-289.12-335.14-410.87 211.88 166.85 292.75 301.89 350.14 382.69 30.61 43.12 79.23 97.09 119.81 121.46 45.87 27.59 96.88 41.68 246.85 68.29 0 0 306.44 45.32 528.78 71.26 316.05 36.99 607.7 94.64 607.7 94.64s-507.64-58.68-708.17-81.9c-200.69-23.23-424.71-51.89-424.71-51.89-199.11-27.67-230.52-42.24-263.03-61.91" fill="#100f0d"/></g></svg>