<?xml version="1.0" encoding="utf-8"?>
<!-- Generator: Adobe Illustrator 24.3.0, SVG Export Plug-In . SVG Version: 6.00 Build 0)  -->
<svg version="1.1" id="Layer_1" xmlns="http://www.w3.org/2000/svg" xmlns:xlink="http://www.w3.org/1999/xlink" x="0px" y="0px"
	 width="43.3px" height="41.2px" viewBox="0 0 43.3 41.2" enable-background="new 0 0 43.3 41.2" xml:space="preserve">
<g>
	<path fill="#FFFFFF" d="M24.2,41.2c-1.3,0-2.5,0-3.8,0c-0.1,0-0.2,0-0.2-0.1c-1.1-0.1-2.3-0.2-3.4-0.3c-2.5-0.3-4.9-0.9-7.1-2.1
		c-3.2-1.8-4.9-4.5-5-8.2C4.5,28,5.1,25.6,6,23.3c1.4-3.6,3.5-6.7,6.1-9.5c1.6-1.8,3.5-3.4,5.6-4.5c0.1,0,0.1-0.1,0.2-0.1
		c-0.1-0.1-0.1-0.1-0.1-0.1c-1.6-1.1-2.8-2.6-3.7-4.4c-0.5-1-0.9-2-0.8-3.2C13.3,0.6,14-0.1,14.9,0c0.4,0,0.8,0.1,1.1,0.3
		c0.8,0.3,1.6,0.7,2.4,1c0.8,0.3,1.7,0.5,2.6,0.2c1.4-0.4,2.8-0.8,4.2-1.1c0.7-0.2,1.4-0.2,2.1-0.3c0.6,0,0.8,0.2,0.8,0.8
		c0,0.3,0,0.6-0.1,0.8c-0.7,2.6-1.9,4.9-3.7,6.8c-0.1,0.2-0.3,0.3-0.5,0.5C24,9,24.1,9.1,24.2,9.2c1.5,0.7,2.9,1.7,4.2,2.8
		C32.1,15,35,18.8,37,23.2c1,2.3,1.7,4.7,1.7,7.2c0,3.4-1.3,6.1-4.2,8c-2.4,1.6-5.1,2.2-7.8,2.5C25.9,41,25,41.1,24.2,41.2z
		 M22.5,32.2c1-0.1,1.9-0.4,2.7-0.9c2.1-1.4,2.2-4.6-0.1-5.9c-0.7-0.4-1.5-0.6-2.3-0.9c-0.3-0.1-0.3-0.2-0.3-0.4c0-0.7,0-1.5,0-2.3
		c0-0.4,0-0.8,0-1.2c1,0.2,1.7,0.5,2.1,1.5c0.2,0.7,0.8,1,1.3,0.8c0.6-0.2,0.8-0.8,0.6-1.4c-0.3-0.9-0.9-1.7-1.7-2.1
		c-0.7-0.4-1.5-0.6-2.3-0.9c0-0.1,0-0.3,0-0.5c0-0.2,0-0.4,0-0.6c-0.1-0.6-0.5-0.9-1-0.9c-0.5,0-0.9,0.4-1,1c0,0.3,0,0.5,0,0.8
		c0,0.3-0.1,0.4-0.4,0.4c-0.3,0.1-0.7,0.2-1,0.3c-1.8,0.6-2.8,2.2-2.5,4.1c0.2,1.2,0.9,1.9,1.9,2.4c0.6,0.3,1.2,0.5,1.9,0.7
		c0,1.2,0,2.5,0,3.7c0,0.1,0,0.1,0,0.2c-0.1,0-0.1,0-0.1,0c-0.1,0-0.2,0-0.2-0.1c-0.8-0.3-1.3-0.9-1.6-1.7c-0.2-0.6-0.7-0.9-1.2-0.7
		c-0.6,0.2-0.8,0.7-0.7,1.3c0.4,1.5,1.4,2.5,2.9,3.1c0.3,0.1,0.8,0.1,1,0.4c0.2,0.2,0.1,0.7,0.1,1c0,0.7,0.4,1.1,1,1.1
		c0.6,0,1-0.5,1-1.1C22.5,32.8,22.5,32.5,22.5,32.2z"/>
	<path fill="#FFFFFF" d="M22.5,30.1c0-1.2,0-2.4,0-3.7c0.6,0.3,1.2,0.4,1.7,0.8c0.7,0.5,0.8,1.6,0.1,2.2
		C23.8,29.9,23.2,30,22.5,30.1z"/>
	<path fill="#FFFFFF" d="M20.5,20.6c0,1.1,0,2.2,0,3.2c-1-0.1-1.8-0.7-1.8-1.4C18.6,21.5,19.3,20.8,20.5,20.6z"/>
</g>
</svg>
