<svg xmlns="http://www.w3.org/2000/svg" width="20.38" height="20.4" viewBox="0 0 20.38 20.4">
  <path id="editalt" d="M1.255,20.4h15.3a1.242,1.242,0,0,0,.9-.368,1.215,1.215,0,0,0,.379-.907V11.953l-5.558,5.538a1.092,1.092,0,0,1-.916.339H8.9a1.242,1.242,0,0,1-.9-.368,1.215,1.215,0,0,1-.379-.907v-2.53a1.1,1.1,0,0,1,.379-.817L17.83,3.387V1.295a1.217,1.217,0,0,0-.379-.907,1.239,1.239,0,0,0-.9-.368H7.63V7.032a.63.63,0,0,1-.179.448.6.6,0,0,1-.458.189H0V19.125a1.233,1.233,0,0,0,.368.907A1.206,1.206,0,0,0,1.255,20.4ZM6.355,0a1.192,1.192,0,0,0-.877.359l-5.1,5.12A1.248,1.248,0,0,0,0,6.395H6.355ZM18.806,8.845,20.161,7.51a.8.8,0,0,0,.219-.558.731.731,0,0,0-.219-.538l-1.1-1.1a.794.794,0,0,0-1.1,0L16.634,6.654Zm-9.9,5.8v1.275a.6.6,0,0,0,.189.458.627.627,0,0,0,.448.179h1.275a.753.753,0,0,0,.518-.219L17.79,9.881,15.6,7.69,9.144,14.145a.705.705,0,0,0-.239.5Z" fill="#5a5a5a"/>
</svg>
