<svg id="eye" xmlns="http://www.w3.org/2000/svg" width="17.257" height="11.864" viewBox="0 0 17.257 11.864">
  <path id="Path_14" data-name="Path 14" d="M17.257,11.557S14.021,5.625,8.629,5.625,0,11.557,0,11.557s3.236,5.932,8.629,5.932S17.257,11.557,17.257,11.557Zm-15.992,0a14.166,14.166,0,0,0,1.79,2.2,8.037,8.037,0,0,0,5.573,2.65,8.043,8.043,0,0,0,5.574-2.65,14.166,14.166,0,0,0,1.79-2.2,14.165,14.165,0,0,0-1.79-2.2A8.045,8.045,0,0,0,8.629,6.7a8.043,8.043,0,0,0-5.574,2.65,14.164,14.164,0,0,0-1.79,2.2Z" transform="translate(0 -5.625)" fill="#7b7b7b" fill-rule="evenodd"/>
  <path id="Path_15" data-name="Path 15" d="M13.9,11.2a2.7,2.7,0,1,0,2.7,2.7A2.7,2.7,0,0,0,13.9,11.2Zm-3.775,2.7A3.775,3.775,0,1,1,13.9,17.675,3.775,3.775,0,0,1,10.125,13.9Z" transform="translate(-5.271 -7.968)" fill="#7b7b7b" fill-rule="evenodd"/>
</svg>
