<svg xmlns="http://www.w3.org/2000/svg" width="13.382" height="18" viewBox="0 0 13.382 18">
  <g id="location-pin" transform="translate(-5.627 -1.238)">
    <path id="Path_2059" data-name="Path 2059" d="M15.816,8.971a2.462,2.462,0,1,0,2.462,2.462A2.462,2.462,0,0,0,15.816,8.971Zm0,3.693a1.231,1.231,0,1,1,1.231-1.231,1.231,1.231,0,0,1-1.231,1.231Z" transform="translate(-3.499 -3.502)" fill="#7b7b7b"/>
    <path id="Path_2060" data-name="Path 2060" d="M17.048,3.2A6.691,6.691,0,0,0,6.711,11.58l4.651,7.141a1.14,1.14,0,0,0,1.91,0l4.652-7.141A6.691,6.691,0,0,0,17.049,3.2Zm-.156,7.712-4.575,7.023L7.742,10.908a5.46,5.46,0,1,1,9.149,0Z" transform="translate(0 0)" fill="#7b7b7b"/>
  </g>
</svg>
