<svg xmlns="http://www.w3.org/2000/svg" width="16.656" height="16.65" viewBox="0 0 16.656 16.65">
  <path id="phone" d="M18.1,20.025H17.99C5.406,19.3,3.62,8.684,3.37,5.444A1.921,1.921,0,0,1,5.138,3.375H8.666a1.281,1.281,0,0,1,1.191.807l.973,2.4a1.281,1.281,0,0,1-.282,1.383L9.185,9.337A6,6,0,0,0,14.039,14.2l1.389-1.377a1.281,1.281,0,0,1,1.389-.262l2.414.967a1.281,1.281,0,0,1,.788,1.191V18.1A1.921,1.921,0,0,1,18.1,20.025ZM5.292,4.656a.64.64,0,0,0-.64.64v.051c.295,3.791,2.184,12.756,13.41,13.4a.64.64,0,0,0,.679-.6v-3.42l-2.414-.967L14.488,15.58l-.307-.039c-5.571-.7-6.327-6.269-6.327-6.327l-.039-.307L9.634,7.069,8.673,4.656Z" transform="translate(-3.364 -3.375)" fill="#7b7b7b"/>
</svg>
