<?xml version="1.0" encoding="utf-8"?>
<!-- Generator: Adobe Illustrator 25.3.1, SVG Export Plug-In . SVG Version: 6.00 Build 0)  -->
<svg version="1.1" id="Layer_1" xmlns="http://www.w3.org/2000/svg" xmlns:xlink="http://www.w3.org/1999/xlink" x="0px" y="0px"
	 width="20.4px" height="20.4px" viewBox="0 0 20.4 20.4" style="enable-background:new 0 0 20.4 20.4;" xml:space="preserve">
<style type="text/css">
	.st0{fill:#5A5A5A;}
</style>
<path id="editalt" class="st0" d="M7.7-16.9H23c0.3,0,0.7-0.1,0.9-0.4c0.2-0.2,0.4-0.6,0.4-0.9v-7.2l-5.6,5.5
	c-0.2,0.3-0.6,0.4-0.9,0.3h-2.5c-0.3,0-0.7-0.1-0.9-0.4c-0.2-0.2-0.4-0.6-0.4-0.9v-2.5c0-0.3,0.1-0.6,0.4-0.8l9.8-9.8V-36
	c0-0.3-0.1-0.7-0.4-0.9c-0.2-0.2-0.6-0.4-0.9-0.4h-8.9v7c0,0.2-0.1,0.3-0.2,0.4c-0.1,0.1-0.3,0.2-0.5,0.2h-7v11.5
	c0,0.3,0.1,0.7,0.4,0.9C7-17,7.4-16.9,7.7-16.9z M12.8-37.3c-0.3,0-0.6,0.1-0.9,0.4l-5.1,5.1c-0.2,0.2-0.4,0.6-0.4,0.9h6.4V-37.3z
	 M25.3-28.5l1.4-1.3c0.1-0.2,0.2-0.4,0.2-0.6c0-0.2-0.1-0.4-0.2-0.5L25.5-32c-0.3-0.3-0.8-0.3-1.1,0l-1.3,1.3L25.3-28.5z M15.4-22.7
	v1.3c0,0.2,0.1,0.3,0.2,0.5c0.1,0.1,0.3,0.2,0.4,0.2h1.3c0.2,0,0.4-0.1,0.5-0.2l6.5-6.5L22-29.6l-6.5,6.5
	C15.4-23,15.4-22.9,15.4-22.7L15.4-22.7z"/>
<g>
	<path class="st0" d="M-49.3-54.3C-49.3-54.3-49.3-54.3-49.3-54.3C-49.3-54.3-49.3-54.3-49.3-54.3c0,6.1,0,12.3,0,18.4
		c0,0.6-0.1,1.3,0.2,1.8c-0.1,0-0.1,0-0.1,0c-3.5,0-7,0-10.5,0c-0.4,0-0.8-0.1-1.1-0.3c-0.8-0.5-1.1-1.2-1.1-2.1
		c0-5.8,0-11.7,0-17.5c0-0.1,0-0.2,0-0.2c0,0,0.1,0,0.1,0c0,0,0.1,0.1,0.1,0.1c0.5,0.2,1.1,0.5,1.6,0.7c0.1,0.1,0.2,0,0.3,0
		c0.4-0.2,0.8-0.4,1.1-0.7c0.1-0.1,0.2-0.1,0.3,0c0.4,0.2,0.8,0.4,1.1,0.6c0.1,0,0.2,0,0.3,0c0.4-0.2,0.8-0.4,1.1-0.6
		c0.1-0.1,0.2-0.1,0.3,0c0.4,0.2,0.8,0.4,1.1,0.6c0.1,0,0.2,0,0.3,0c0.4-0.2,0.8-0.4,1.2-0.6c0.1,0,0.2,0,0.3,0
		c0.4,0.2,0.8,0.4,1.2,0.7c0.1,0,0.1,0.1,0.2,0C-50.6-53.8-50-54.1-49.3-54.3z M-56.2-42.5c0,0.4,0,0.8,0,1.2c0.4,0,0.8,0,1.2,0
		c0-0.4,0-0.8,0-1.2c0.1,0,0.2,0,0.2,0c1-0.2,1.7-1.1,1.6-2.1c-0.1-0.7-0.5-1.2-1.2-1.5c-0.6-0.3-1.3-0.6-1.9-0.8
		c-0.4-0.2-0.5-0.5-0.5-0.8c0.1-0.4,0.4-0.6,0.8-0.6c0.2,0,0.4,0,0.7,0c0.4,0,0.8,0.3,0.9,0.7c0,0.1,0,0.2,0.1,0.3
		c0.4,0,0.8,0,1.2,0c0-0.1,0-0.1,0-0.2c-0.1-0.9-0.7-1.7-1.6-1.9c-0.1,0-0.2-0.1-0.2-0.2c0-0.3,0-0.7,0-1.1c-0.4,0-0.8,0-1.2,0
		c0,0.4,0,0.8,0,1.2c-0.2,0.1-0.4,0.1-0.6,0.2c-0.7,0.3-1.2,0.9-1.2,1.7c0,0.8,0.4,1.4,1.1,1.8c0.7,0.3,1.3,0.6,2,0.9
		c0.3,0.2,0.5,0.5,0.4,0.8c-0.1,0.3-0.4,0.6-0.7,0.6c-0.2,0-0.4,0-0.7,0c-0.6,0-0.8-0.2-1-0.8c-0.4,0-0.8,0-1.2,0
		C-58-43.6-57.3-42.8-56.2-42.5z M-59.8-38.9c2.8,0,5.6,0,8.3,0c0-0.4,0-0.8,0-1.2c-2.8,0-5.6,0-8.3,0
		C-59.8-39.7-59.8-39.3-59.8-38.9z M-58.6-37.7c0,0.4,0,0.8,0,1.2c2,0,4,0,6,0c0-0.4,0-0.8,0-1.2C-54.6-37.7-56.6-37.7-58.6-37.7z"
		/>
	<path class="st0" d="M-48.1-44.3c0.6,0,1.2,0,1.8,0c0,0.1,0,0.1,0,0.2c0,3,0,6,0,9c0,0.5-0.3,0.9-0.8,1c-0.5,0-0.9-0.3-1-0.9
		c0-0.1,0-0.2,0-0.3c0-2.9,0-5.8,0-8.7C-48.1-44.1-48.1-44.2-48.1-44.3z"/>
</g>
<g>
	<path class="st0" d="M7.7,20.4c-0.1,0-0.2,0-0.4,0c-0.2-0.1-0.4-0.2-0.6-0.4c-0.5-0.4-1-0.9-1.5-1.4c-0.1-0.1-0.2-0.1-0.3,0
		c-0.4,0.4-0.8,0.7-1.2,1c-0.3,0.3-0.6,0.4-1,0.2c-0.4-0.2-0.5-0.5-0.5-0.9c0-5.9,0-11.7,0-17.6c0-0.4,0.1-0.7,0.5-0.9
		c0.4-0.2,0.7-0.1,1,0.2c0.4,0.3,0.8,0.7,1.1,1c0.1,0.1,0.2,0.1,0.4,0c0.5-0.5,1-0.9,1.5-1.3C6.9,0.3,7.1,0.1,7.3,0
		c0.1,0,0.2,0,0.4,0c0.2,0.1,0.4,0.3,0.6,0.5c0.5,0.4,1,0.9,1.5,1.3c0.1,0.1,0.2,0.1,0.3,0c0.5-0.4,1-0.9,1.5-1.3
		C11.8,0.3,12,0.1,12.2,0c0.1,0,0.2,0,0.4,0c0.2,0.1,0.4,0.2,0.6,0.4c0.5,0.4,1,0.9,1.5,1.4c0.1,0.1,0.2,0.1,0.3,0
		c0.4-0.4,0.8-0.7,1.2-1c0.2-0.2,0.4-0.3,0.6-0.3c0.5,0,0.9,0.4,0.9,1c0,5.9,0,11.7,0,17.6c0,0.4-0.1,0.7-0.5,0.9
		c-0.4,0.2-0.7,0.1-1-0.2c-0.4-0.3-0.8-0.7-1.1-1c-0.1-0.1-0.2-0.1-0.4,0c-0.5,0.5-1,0.9-1.5,1.3c-0.2,0.2-0.4,0.3-0.6,0.4
		c-0.1,0-0.2,0-0.4,0c-0.2-0.2-0.4-0.3-0.7-0.5c-0.5-0.4-1-0.9-1.4-1.3c-0.1-0.1-0.2-0.1-0.3,0c-0.5,0.4-1,0.9-1.5,1.3
		C8.1,20.1,7.9,20.3,7.7,20.4z M9.9,10.6c1.5,0,2.9,0,4.4,0c0.1,0,0.2,0,0.3,0c0.2,0,0.3-0.2,0.3-0.3c0-0.3-0.2-0.4-0.5-0.4
		c-2.9,0-5.9,0-8.8,0c-0.1,0-0.2,0-0.3,0C5.1,9.9,5,10,5,10.2c0,0.2,0.1,0.3,0.3,0.4c0.1,0,0.2,0,0.3,0C7,10.6,8.5,10.6,9.9,10.6z
		 M9.9,12.7c-1.5,0-2.9,0-4.4,0c-0.1,0-0.2,0-0.2,0c-0.2,0-0.3,0.2-0.3,0.4c0,0.2,0.1,0.3,0.3,0.3c0.1,0,0.2,0,0.2,0
		c2.9,0,5.8,0,8.7,0c0.1,0,0.2,0,0.2,0c0.2,0,0.3-0.2,0.3-0.4c0-0.2-0.2-0.4-0.5-0.4C12.9,12.7,11.4,12.7,9.9,12.7z M7.8,6.9
		c-0.2,0-0.4,0-0.6,0c-0.6,0-1.2,0-1.7,0C5.1,6.9,4.9,7.2,5,7.4c0,0.2,0.2,0.3,0.5,0.3c1.5,0,3.1,0,4.6,0c0.1,0,0.1,0,0.2,0
		c0.3-0.1,0.3-0.5,0.1-0.6C10.3,7,10.2,6.9,10,6.9C9.3,6.9,8.5,6.9,7.8,6.9z"/>
</g>
</svg>
