<svg xmlns="http://www.w3.org/2000/svg" width="25" height="21.155" viewBox="0 0 25 21.155">
  <g id="sidenar_icon_6" transform="translate(-25 -484)">
    <path id="Path_2004" data-name="Path 2004" d="M10.106,16.2a.962.962,0,0,1,.962-.962h8.654V8.991c0-1.923-2.031-3.366-3.846-3.366H6.741A3.369,3.369,0,0,0,3.375,8.991V23.414A3.369,3.369,0,0,0,6.741,26.78h9.616a3.369,3.369,0,0,0,3.366-3.366V17.164H11.068A.962.962,0,0,1,10.106,16.2Z" transform="translate(21.625 478.375)" fill="#217de9"/>
    <path id="Path_2005" data-name="Path 2005" d="M30.872,16.344l-4.808-4.808A.962.962,0,0,0,24.705,12.9l3.166,3.167H22.5v1.923h5.371l-3.166,3.167a.962.962,0,1,0,1.359,1.359L30.872,17.7A.962.962,0,0,0,30.872,16.344Z" transform="translate(18.847 477.554)" fill="#217de9"/>
  </g>
</svg>
