<svg xmlns="http://www.w3.org/2000/svg" xmlns:xlink="http://www.w3.org/1999/xlink" width="255" height="218" viewBox="0 0 255 218">
  <defs>
    <linearGradient id="linear-gradient" x1="0.024" y1="0.057" x2="0.973" y2="0.959" gradientUnits="objectBoundingBox">
      <stop offset="0" stop-color="#217de9"/>
      <stop offset="1" stop-color="#b5d7ff"/>
    </linearGradient>
  </defs>
  <g id="sidebar_image" transform="translate(-25 -530)">
    <g id="banner" transform="translate(25.457 624.607)">
      <rect id="background" width="255" height="123" rx="15" transform="translate(-0.457 0.393)" fill="url(#linear-gradient)"/>
    </g>
    <g id="humaaans_sitting-4" data-name="humaaans/sitting-4" transform="translate(79 530)">
      <g id="A-Human_Sitting" data-name="A-Human/Sitting" transform="translate(0 0)">
        <g id="Head_Front_Curly" data-name="Head/Front/Curly" transform="translate(32.151 0)">
          <g id="Head" transform="translate(13.078 9.264)">
            <path id="Path_2006" data-name="Path 2006" d="M4.5,18.795A14.762,14.762,0,0,1,.576,8.188c.818-11.662,17.052-9.1,20.209-3.21s2.783,20.816-1.3,21.868c-1.628.419-5.095-.608-8.623-2.735l2.215,15.67H0Z" transform="translate(0 0)" fill="#b28b67" fill-rule="evenodd"/>
          </g>
          <path id="hair" d="M39.658,6.082a2.829,2.829,0,0,0-1.981-2.009A2.611,2.611,0,0,0,36.948,4c-.088,0-.112.029-.154-.033a.808.808,0,0,1-.044-.21,3.966,3.966,0,0,0-.148-.491,4.008,4.008,0,0,0-.967-1.437A4.866,4.866,0,0,0,32.713.447a4.261,4.261,0,0,0-1.757.24,6.957,6.957,0,0,0-.853.365c-.083.042-.353.246-.437.233s-.278-.244-.353-.3A5.167,5.167,0,0,0,26.087,0a5.908,5.908,0,0,0-3.646.87,7.3,7.3,0,0,0-.658.546c-.11.1-.216.208-.318.318-.061.067-.121.135-.178.2-.1.119-.082.158-.218.075a2.71,2.71,0,0,0-1.74-.391,3.894,3.894,0,0,0-1.05.3c-.114.049-.378.243-.5.245s-.381-.179-.505-.224a4.141,4.141,0,0,0-2.1-.194,5.421,5.421,0,0,0-2.058.809,2.766,2.766,0,0,0-.763.694c-.09.124-.171.255-.272.37-.06.067-.177.136-.209.221A4.522,4.522,0,0,0,11,3.455,2.149,2.149,0,0,0,9.771,3.5,4.882,4.882,0,0,0,7.835,4.877a5.5,5.5,0,0,0-.717.962q-.146.248-.268.509a1.9,1.9,0,0,1-.118.265c-.067.1-.112.1-.234.142A3.776,3.776,0,0,0,4.891,7.832,3.707,3.707,0,0,0,4.058,9.6a.9.9,0,0,1-.033.217c-.031.028-.155.016-.2.021a4.246,4.246,0,0,0-.483.085,3.992,3.992,0,0,0-.85.306,4.44,4.44,0,0,0-2.176,2.6A5.273,5.273,0,0,0,.4,16.435a3.526,3.526,0,0,0,.268.529c.064.1.085.1.043.212s-.131.237-.186.355a5.1,5.1,0,0,0-.385,1.207A5.66,5.66,0,0,0,.07,20.824a3.011,3.011,0,0,0,.322.915,2.626,2.626,0,0,0,.282.41c.055.066.114.129.176.189a1.169,1.169,0,0,1,.111.1c.073.094.088.017.051.155a6.189,6.189,0,0,1-.245.571c-.075.193-.144.39-.206.588a8.67,8.67,0,0,0-.3,1.225,3.845,3.845,0,0,0,.271,2.379,2.379,2.379,0,0,0,.673.8,2.5,2.5,0,0,0,.442.269c.08.038.183.054.219.132s-.019.249-.032.342A5.7,5.7,0,0,0,1.9,31.359a3.394,3.394,0,0,0,1.346,1.806,4.186,4.186,0,0,0,4.185.119,4.394,4.394,0,0,0,.934-.642c.717.965,2.192.934,3.239.659a4.653,4.653,0,0,0,2.956-2.442,1.969,1.969,0,0,0,3.128-.411,2.606,2.606,0,0,0,.264-.858c.022-.156.008-.314.024-.469a2.422,2.422,0,0,1,.229-.581,3.207,3.207,0,0,0,.244-1.158,5.886,5.886,0,0,0-.044-.622,2.137,2.137,0,0,1,.063-.546,2.5,2.5,0,0,1-1.058-.132,2.088,2.088,0,0,1-.818-.575,4.771,4.771,0,0,1-1.029-1.923c-.465-1.523-.274-3.351,1.258-4.187a7.893,7.893,0,0,1,3.7-.2c.894.2,1.907,2.175,1.957,2.36.031.115.015.257.121.333.232.168.614-.124.784-.268a3.093,3.093,0,0,0,.687-.914,11.31,11.31,0,0,0,.943-2.312c.174-.616.286-1.252.513-1.852a2.833,2.833,0,0,1,1.139-1.47,10.035,10.035,0,0,1,1.96-.794,4.864,4.864,0,0,0,1.813-1,2.5,2.5,0,0,0,.311-.347c.071-.1.142-.29.25-.353.169-.1.415.157.561.25a6.48,6.48,0,0,1,1.8,1.791,11.139,11.139,0,0,1,1.2,2.132,6.165,6.165,0,0,0,.806,1.778,3.4,3.4,0,0,0,2.027.154,2.56,2.56,0,0,0,1.106-.957,1.487,1.487,0,0,0,.126-.974c-.039-.2-.118-.38-.162-.573a1.782,1.782,0,0,0-.149-.464,1.143,1.143,0,0,0-.713-.568,3.355,3.355,0,0,0,.77-1.045,4.489,4.489,0,0,0,.4-1.361,1.654,1.654,0,0,0-.221-1.06,2.792,2.792,0,0,0-.905-.752,5.879,5.879,0,0,0,1.26-1.373A4.284,4.284,0,0,0,39.658,6.082Z" transform="translate(0 0)" fill="#191847" fill-rule="evenodd"/>
        </g>
        <g id="Bottom_Sitting_Sweat-Pants" data-name="Bottom/Sitting/Sweat-Pants" transform="translate(0 94.273)">
          <g id="Objects_Seat_Cube-2" data-name="Objects/Seat/Cube-2" transform="translate(0 22.887)">
            <path id="Seat" d="M8.719,0H71.386A8.719,8.719,0,0,1,80.1,8.719V58.852a8.719,8.719,0,0,1-8.719,8.719H8.719A8.719,8.719,0,0,1,0,58.852V8.719A8.719,8.719,0,0,1,8.719,0Zm8.719,15.258a2.18,2.18,0,0,0-2.18,2.18v32.7a2.18,2.18,0,0,0,2.18,2.18H62.667a2.18,2.18,0,0,0,2.18-2.18v-32.7a2.18,2.18,0,0,0-2.18-2.18Z" transform="translate(0 0)" fill="#c1ddff" fill-rule="evenodd"/>
          </g>
          <path id="Skin" d="M83.031,71.11C76.049,55.657,71,42.2,68.973,35.1,65.5,22.945,62.863,12.248,62.2,8.254,60.6-1.272,74.435-1.827,76.264,2.907c2.767,7.165,7.6,30.707,13.4,66.266ZM2.043,22.613C8.45,20.081,30.883,12.157,41.7,9.915c3.109-.644,6.123-1.243,8.956-1.783,8.421-1.608,12.785,13.585,4.674,14.752C35.134,25.79,6.5,28.792,4.048,29.129.613,29.6-1.983,24.2,2.043,22.613Z" transform="translate(36.041 17.528)" fill="#b28b67" fill-rule="evenodd"/>
          <path id="Leg-Back" d="M34.65,21.479,0,3.84V0H4.121Q54.405,12.813,55.511,16.423c.008.026.015.052.022.078l.05.067C62.226,25.7,66.2,70.31,67.511,73.65l-12.73,1.9c-4.87-18.058-20.45-30.637-20.036-52.265A7.1,7.1,0,0,1,34.65,21.479Z" transform="translate(57.217 0)" fill="#1f28cf" fill-rule="evenodd"/>
          <path id="Leg-Front" d="M27.4,31.955c-3.17-.635-6.09-1.2-8.588-1.639C2.675,27.485-2.031,18.847.752,0H30.484c4.857,1.4,30.1,11.98,43.194,17.61,8.668,3.726,5.935,17.159,1.027,20.655a.479.479,0,0,1-.272.425c-26.4,10.944-47.292,5.2-54.27,7.036L16.935,35.545Z" transform="translate(32.696 0)" fill="#2b44ff" fill-rule="evenodd"/>
          <g id="Accessories_Shoe_Flat-Sneaker" data-name="Accessories/Shoe/Flat-Sneaker" transform="matrix(0.438, 0.899, -0.899, 0.438, 42.847, 36.251)">
            <path id="shoe" d="M.914,3.308A11.7,11.7,0,0,0,0,6.961a27.343,27.343,0,0,0,.491,4.3H31.226q1.2-3.961-1.383-4.276t-4.288-.57L11.269.047a.545.545,0,0,0-.72.276l-.006.014L9.625,2.565A9.8,9.8,0,0,1,5.742,3.68,8.8,8.8,0,0,1,2.389,2.7h0a1.09,1.09,0,0,0-1.445.537Q.928,3.271.914,3.308Z" transform="translate(0 0)" fill="#f2f8ff" fill-rule="evenodd"/>
          </g>
          <g id="Accessories_Shoe_Flat-Sneaker-2" data-name="Accessories/Shoe/Flat-Sneaker" transform="translate(114.98 82.465)">
            <path id="shoe-2" data-name="shoe" d="M.914,3.308A11.7,11.7,0,0,0,0,6.961a27.343,27.343,0,0,0,.491,4.3H31.226q1.2-3.961-1.383-4.276t-4.288-.57L11.269.047a.545.545,0,0,0-.72.276l-.006.014L9.625,2.565A9.8,9.8,0,0,1,5.742,3.68,8.8,8.8,0,0,1,2.389,2.7h0a1.09,1.09,0,0,0-1.445.537Q.928,3.271.914,3.308Z" transform="translate(0 0)" fill="#f2f8ff" fill-rule="evenodd"/>
          </g>
        </g>
        <g id="Body_Jacket" data-name="Body/Jacket" transform="translate(1.723 37.055)">
          <path id="Skin-2" data-name="Skin" d="M87.124,0,102.56,15.059A46.785,46.785,0,0,1,113.6,21.406c.645.778,1.347,2.269-1.688,1.6s-6.258-1.233-6.828-.245,1.111,2.5.056,3.792q-1.054,1.291-7.092-8.219L82,8.871ZM18.607,2.124l11.388.045Q19.447,36.216,18.607,38.3c-1.261,3.125,1.407,7.884,2.548,10.441-3.716,1.663-3.32-4.5-8.009-2.315-4.279,1.991-7.534,5.6-12.478,2.548C.06,48.6-.606,47.187,1,46.083c4.009-2.749,9.787-7.561,10.568-9.145Q13.169,33.7,18.607,2.124Z" transform="translate(0 48.565)" fill="#b28b67" fill-rule="evenodd"/>
          <path id="Coat-Back" d="M0,1.216,4.624,0Q19.4,29.223,51.768,51.329l-13.6,19.819C15.977,49.417,1.445,26.264,0,1.216Z" transform="translate(51.074 1.695) rotate(5)" fill="#191847" fill-rule="evenodd"/>
          <path id="Shirt" d="M0,62.122H41.959Q27.378,26.667,27.378,1.886L14.721,0C4.774,16,1.964,35.7,0,62.122Z" transform="translate(30.427 0)" fill="#dde3e9" fill-rule="evenodd"/>
          <path id="Coat-Front" d="M33.525.009,33.531,0h.826q1.483.051,4.517.184l3.058,8.74q.486,15.985,5.668,64.426H20.095q.108,3.346.357,6.754H0Q4.589,28.334,33.515,0Z" transform="translate(11.355 0)" fill="#2f3676" fill-rule="evenodd"/>
          <path id="Shade" d="M1.9,0Q3.074,20.856,7.78,28.754H.09A143.776,143.776,0,0,1,1.9,0Z" transform="translate(31.366 44.811)" fill="rgba(0,0,0,0.1)" fill-rule="evenodd"/>
          <path id="Light" d="M0,6.305,13.563,0V6.305Z" transform="translate(37.572 50.367)" fill="rgba(255,255,255,0.2)" fill-rule="evenodd"/>
        </g>
      </g>
    </g>
  </g>
</svg>
