<svg xmlns="http://www.w3.org/2000/svg" width="25.01" height="25" viewBox="0 0 25.01 25">
  <path id="sidenar_icon_4" d="M24.583,3.616A5.315,5.315,0,0,0,21.4.438,16.183,16.183,0,0,0,16.277,0H8.712A16.81,16.81,0,0,0,3.606.417,5.315,5.315,0,0,0,.427,3.606,16.45,16.45,0,0,0,0,8.712v7.576a16.81,16.81,0,0,0,.417,5.106A5.315,5.315,0,0,0,3.6,24.572,16.45,16.45,0,0,0,8.7,25h7.586a16.774,16.774,0,0,0,5.106-.417,5.315,5.315,0,0,0,3.189-3.189,16.45,16.45,0,0,0,.427-5.106V8.733a16.488,16.488,0,0,0-.427-5.117Zm-6.43,4.825-.969.969a.521.521,0,0,1-.7.01,5.21,5.21,0,0,0-3.355-1.23c-1.011,0-2.022.333-2.022,1.261s1.084,1.25,2.334,1.719c2.188.729,4,1.646,4,3.793,0,2.334-1.813,3.939-4.773,4.116l-.271,1.25a.511.511,0,0,1-.5.406H10.035l-.094-.01a.521.521,0,0,1-.4-.615l.292-1.323a6.815,6.815,0,0,1-3-1.636v-.01a.5.5,0,0,1,0-.709l1.042-1.011a.511.511,0,0,1,.7,0A5.039,5.039,0,0,0,12.109,16.8c1.355,0,2.261-.573,2.261-1.48s-.917-1.146-2.647-1.792c-1.834-.657-3.574-1.584-3.574-3.751,0-2.522,2.095-3.751,4.575-3.866l.261-1.282a.5.5,0,0,1,.5-.4h1.855l.1.01a.5.5,0,0,1,.386.594l-.281,1.428a7.821,7.821,0,0,1,2.584,1.448l.021.021a.5.5,0,0,1,0,.709Z" fill="#217de9"/>
</svg>
