<svg xmlns="http://www.w3.org/2000/svg" width="17.331" height="14.082" viewBox="0 0 17.331 14.082">
  <g id="briefcase" transform="translate(0 -2.25)">
    <path id="Path_318" data-name="Path 318" d="M0,21.124a1.625,1.625,0,0,0,1.625,1.625H15.706a1.625,1.625,0,0,0,1.625-1.625v-6.5H16.248v6.5a.542.542,0,0,1-.542.542H1.625a.542.542,0,0,1-.542-.542v-6.5H0Z" transform="translate(0 -6.417)" fill="#7b7b7b" fill-rule="evenodd"/>
    <path id="Path_319" data-name="Path 319" d="M0,6.041A1.625,1.625,0,0,1,1.625,4.416H15.706a1.625,1.625,0,0,1,1.625,1.625V8.624l-8.247,2.2a1.625,1.625,0,0,1-.836,0L0,8.624ZM1.625,5.5a.542.542,0,0,0-.542.542v1.75L8.526,9.776a.542.542,0,0,0,.28,0l7.442-1.984V6.041a.542.542,0,0,0-.542-.542ZM5.416,3.875A1.625,1.625,0,0,1,7.041,2.25h3.25a1.625,1.625,0,0,1,1.625,1.625v.542H10.832V3.875a.542.542,0,0,0-.542-.542H7.041a.542.542,0,0,0-.542.542v.542H5.416Z" fill="#7b7b7b" fill-rule="evenodd"/>
  </g>
</svg>
