<svg xmlns="http://www.w3.org/2000/svg" width="24" height="24" viewBox="0 0 24 24">
  <path fill="#5E5E5E" fill-rule="evenodd" d="M18.14,7.17 C18.0463712,7.06340578 17.9118665,7.0016063 17.77,7 L14,7 L14,5.59 C14,5.31 14.06,4.99 14.51,4.99 L17.51,4.99 C17.6433813,4.99568678 17.7721309,4.94050837 17.86,4.84 C17.9481575,4.74856245 17.998212,4.6270015 18,4.5 L18,0.5 C18,0.223857625 17.7761424,0 17.5,0 L13.17,0 C8.37,0 8,4.1 8,5.35 L8,7 L5.5,7 C5.22385763,7 5,7.22385763 5,7.5 L5,11.5 C5,11.7761424 5.22385763,12 5.5,12 L8,12 L8,23.5 C8,23.7761424 8.22385763,24 8.5,24 L13.5,24 C13.7761424,24 14,23.7761424 14,23.5 L14,12 L17.35,12 C17.607739,12.0012916 17.824229,11.8064506 17.85,11.55 L18.27,7.55 C18.2816788,7.41073153 18.2345367,7.27293157 18.14,7.17 Z"/>
</svg>
