<svg xmlns="http://www.w3.org/2000/svg" width="24" height="24" viewBox="0 0 24 24">
  <path fill="#5E5E5E" fill-rule="evenodd" d="M4.48,6.5 C5.84966618,6.5 6.96,5.38071187 6.96,4 C6.96,2.61928813 5.84966618,1.5 4.48,1.5 C3.11033382,1.5 2,2.61928813 2,4 C2,5.38071187 3.11033382,6.5 4.48,6.5 Z M18.5,22.5 L21.5,22.5 C21.7761424,22.5 22,22.2761424 22,22 L22,13.6 C22,9.83 19.87,8 16.89,8 C15.7013739,7.95652783 14.5498222,8.41787501 13.72,9.27 C13.6077491,9.39968703 13.4266348,9.44579534 13.266036,9.38557076 C13.1054371,9.32534619 12.9992989,9.17151823 13,9 C13,8.72385763 12.7761424,8.5 12.5,8.5 L9.5,8.5 C9.22385763,8.5 9,8.72385763 9,9 L9,22 C9,22.2761424 9.22385763,22.5 9.5,22.5 L12.5,22.5 C12.7761424,22.5 13,22.2761424 13,22 L13,14.5 C13,13.1192881 14.1192881,12 15.5,12 C16.8807119,12 18,13.1192881 18,14.5 L18,22 C18,22.2761424 18.2238576,22.5 18.5,22.5 Z M2.5,8.5 L6.5,8.5 C6.77614237,8.5 7,8.72385763 7,9 L7,22 C7,22.2761424 6.77614237,22.5 6.5,22.5 L2.5,22.5 C2.22385763,22.5 2,22.2761424 2,22 L2,9 C2,8.72385763 2.22385763,8.5 2.5,8.5 Z"/>
</svg>
