<svg xmlns="http://www.w3.org/2000/svg" width="24" height="24" viewBox="0 0 24 24">
  <path fill="#5E5E5E" fill-rule="evenodd" d="M24.0000225,11.5 C23.9943958,10.2049194 23.1583495,9.05963422 21.926572,8.65964744 C20.6947946,8.25966067 19.3453919,8.69527976 18.58,9.74 C16.8135912,8.68797623 14.8139782,8.09015379 12.76,8 C12.82,6.94 13.13,5.1 14.14,4.52 C14.77,4.16 15.69,4.33 16.85,4.98 C16.9738138,6.19569302 17.9615039,7.14188538 19.1813891,7.21343586 C20.4012743,7.28498633 21.4928064,6.46074752 21.7578914,5.26786476 C22.0229765,4.074982 21.3832662,2.86602268 20.24789,2.41418174 C19.1125138,1.96234079 17.8170425,2.40116392 17.19,3.45 C16.0487021,2.72023186 14.6109842,2.63321209 13.39,3.22 C11.62,4.22 11.3,6.87 11.25,8 C9.19267271,8.08892926 7.18952872,8.68678012 5.42,9.74 C4.65460812,8.69527976 3.30520541,8.25966067 2.07342795,8.65964744 C0.841650496,9.05963422 0.00560416191,10.2049194 -2.24797957e-05,11.5 C-0.00491744862,12.7755939 0.797346223,13.9148083 2,14.34 C1.98546415,14.5597599 1.98546415,14.7802401 2,15 C2,18.86 6.49,22 12,22 C17.51,22 22,18.86 22,15 C22.0145358,14.7802401 22.0145358,14.5597599 22,14.34 C23.2026538,13.9148083 24.0049174,12.7755939 24.0000225,11.5 Z M6.5,13.5 C6.5,12.6715729 7.17157288,12 8,12 C8.82842712,12 9.5,12.6715729 9.5,13.5 C9.5,14.3284271 8.82842712,15 8,15 C7.17157288,15 6.5,14.3284271 6.5,13.5 Z M15.91,18.5 C14.7135469,19.1620118 13.3673771,19.5063008 12,19.5 C10.6255258,19.5124562 9.27135948,19.1678846 8.07,18.5 C7.71101493,18.2928932 7.58789325,17.8339851 7.79500003,17.475 C8.0021068,17.1160149 8.46101491,16.9928932 8.82,17.2 C10.8122067,18.2118912 13.1677933,18.2118912 15.16,17.2 C15.5189851,16.9928932 15.9778932,17.1160149 16.185,17.475 C16.3921067,17.8339851 16.2689851,18.2928932 15.91,18.5 L15.91,18.5 Z M16,15 C15.1715729,15 14.5,14.3284271 14.5,13.5 C14.5,12.6715729 15.1715729,12 16,12 C16.8284271,12 17.5,12.6715729 17.5,13.5 C17.5,14.3284271 16.8284271,15 16,15 Z"/>
</svg>
