<?xml version="1.0" encoding="UTF-8"?>
<svg width="24px" height="24px" viewBox="0 0 24 24" version="1.1" xmlns="http://www.w3.org/2000/svg" xmlns:xlink="http://www.w3.org/1999/xlink">
    <!-- Generator: Sketch 61 (89581) - https://sketch.com -->
    <title>Shape</title>
    <desc>Created with Sketch.</desc>
    <g id="Icons" stroke="none" stroke-width="1" fill="none" fill-rule="evenodd" stroke-linecap="round" stroke-linejoin="round">
        <g id="Icons-/-Notes-/-Add-Note" stroke="#5E5E5E" stroke-width="1.5">
            <path d="M17.25,23.25 C20.5637085,23.25 23.25,20.5637085 23.25,17.25 C23.25,13.9362915 20.5637085,11.25 17.25,11.25 C13.9362915,11.25 11.25,13.9362915 11.25,17.25 C11.25,20.5637085 13.9362915,23.25 17.25,23.25 Z M17.25,14.25 L17.25,20.25 M14.25,17.25 L20.25,17.25 M8.25,20.25 L2.25,20.25 C1.84919815,20.2599832 1.46183936,20.1051559 1.17834175,19.8216583 C0.894844138,19.5381606 0.740016849,19.1508019 0.75,18.75 L0.75,3.857 C0.721892051,2.99956524 1.39266297,2.28094599 2.25,2.25 L17.25,2.25 C18.107337,2.28094599 18.7781079,2.99956524 18.75,3.857 L18.75,8.25 M5.25,0.75 L5.25,5.25 M9.75,0.75 L9.75,5.25 M14.25,0.75 L14.25,5.25" id="Shape"></path>
        </g>
    </g>
</svg>