<?xml version="1.0" encoding="UTF-8"?>
<svg width="22px" height="24px" viewBox="0 0 22 24" version="1.1" xmlns="http://www.w3.org/2000/svg" xmlns:xlink="http://www.w3.org/1999/xlink">
    <!-- Generator: Sketch 61 (89581) - https://sketch.com -->
    <title>Shape</title>
    <desc>Created with Sketch.</desc>
    <g id="Icons" stroke="none" stroke-width="1" fill="none" fill-rule="evenodd" stroke-linecap="round" stroke-linejoin="round">
        <g id="Icons-/-Avatars-/-Standard" transform="translate(-1.000000, 0.000000)" stroke="#5E5E5E" stroke-width="1.5">
            <path d="M12,11.25 C14.8994949,11.25 17.25,8.89949494 17.25,6 C17.25,3.10050506 14.8994949,0.75 12,0.75 C9.10050506,0.75 6.75,3.10050506 6.75,6 C6.75,8.89949494 9.10050506,11.25 12,11.25 Z M2.25,23.25 C2.25,17.8652237 6.61522369,13.5 12,13.5 C17.3847763,13.5 21.75,17.8652237 21.75,23.25 M8.25,14.249 L8.25,15 C8.25,17.0710678 9.92893219,18.75 12,18.75 C14.0710678,18.75 15.75,17.0710678 15.75,15 L15.75,14.249" id="Shape"></path>
        </g>
    </g>
</svg>