<?xml version="1.0" encoding="UTF-8"?>
<svg width="24px" height="24px" viewBox="0 0 24 24" version="1.1" xmlns="http://www.w3.org/2000/svg" xmlns:xlink="http://www.w3.org/1999/xlink">
    <!-- Generator: Sketch 60 (88103) - https://sketch.com -->
    <title>Shape</title>
    <desc>Created with Sketch.</desc>
    <g id="Icons" stroke="none" stroke-width="1" fill="none" fill-rule="evenodd" stroke-linecap="round" stroke-linejoin="round">
        <g id="Icons-/-Money-&amp;-Finance-/-Simple-dollar" stroke="#5E5E5E" stroke-width="1.5">
            <path d="M12,23.25 C18.2132034,23.25 23.25,18.2132034 23.25,12 C23.25,5.78679656 18.2132034,0.75 12,0.75 C5.78679656,0.75 0.75,5.78679656 0.75,12 C0.75,18.2132034 5.78679656,23.25 12,23.25 Z M9.75,14.25 C9.75,15.4926407 10.7573593,16.5 12,16.5 C13.2426407,16.5 14.25,15.4926407 14.25,14.25 C14.25,13.0073593 13.2426407,12 12,12 C10.7573593,12 9.75,10.9926407 9.75,9.75 C9.75,8.50735931 10.7573593,7.5 12,7.5 C13.2426407,7.5 14.25,8.50735931 14.25,9.75 M12,6 L12,7.5 M12,16.5 L12,18" id="Shape"></path>
        </g>
    </g>
</svg>