<?xml version="1.0" encoding="UTF-8"?>
<svg width="24px" height="24px" viewBox="0 0 24 24" version="1.1" xmlns="http://www.w3.org/2000/svg" xmlns:xlink="http://www.w3.org/1999/xlink">
    <!-- Generator: Sketch 61 (89581) - https://sketch.com -->
    <title>Shape</title>
    <desc>Created with Sketch.</desc>
    <g id="Icons" stroke="none" stroke-width="1" fill="none" fill-rule="evenodd" stroke-linecap="round" stroke-linejoin="round">
        <g id="Icons-/-CRM" stroke="#5E5E5E" stroke-width="1.5">
            <path d="M8.25,13.5 C9.69974747,13.5 10.875,12.3247475 10.875,10.875 C10.875,9.42525253 9.69974747,8.25 8.25,8.25 C6.80025253,8.25 5.625,9.42525253 5.625,10.875 C5.625,12.3247475 6.80025253,13.5 8.25,13.5 Z M3.75,18.7500001 C3.75,16.2647187 5.76471865,14.2500001 8.25,14.2500001 C10.7352813,14.2500001 12.75,16.2647187 12.75,18.7500001 L3.75,18.7500001 Z M14.25,11.25 L18.75,11.25 M14.25,14.25 L20.25,14.25 M21.75,5.25 L2.25,5.25 C1.42157288,5.25 0.75,5.92157288 0.75,6.75 L0.75,21.75 C0.75,22.5784271 1.42157288,23.25 2.25,23.25 L5.25,23.25 C5.25,22.4215729 5.92157288,21.75 6.75,21.75 C7.57842712,21.75 8.25,22.4215729 8.25,23.25 L15.75,23.25 C15.75,22.4215729 16.4215729,21.75 17.25,21.75 C18.0784271,21.75 18.75,22.4215729 18.75,23.25 L21.75,23.25 C22.5784271,23.25 23.25,22.5784271 23.25,21.75 L23.25,6.75 C23.25,5.92157288 22.5784271,5.25 21.75,5.25 Z M23.25,2.25 C23.25,1.42157288 22.5784271,0.75 21.75,0.75 L2.25,0.75 C1.42157288,0.75 0.75,1.42157288 0.75,2.25" id="Shape"></path>
        </g>
    </g>
</svg>