<svg class="svg-icon" style="width: 1em; height: 1em;vertical-align: middle;fill: currentColor;overflow: hidden;" viewBox="0 0 1024 1024" version="1.1" xmlns="http://www.w3.org/2000/svg"><path d="M768 957.44l150.4-151.04-44.8-44.8L768 866.56V576h-64v290.56L598.4 761.6l-44.8 44.8L704 957.44V960h2.56l29.44 29.44 29.44-29.44H768v-2.56z" fill="#333333" /><path d="M128 64h704v512h64V0H64v960h448v-64H128V64z" fill="#333333" /><path d="M645.12 299.52l-156.8-28.16L421.76 128 346.88 266.88l-158.72 17.92 110.72 115.2-32 156.8 143.36-69.76 139.52 78.72-22.4-158.72zM468.48 448l-55.68-31.36-57.6 28.16 12.8-64-44.16-46.08 64-7.04 30.08-56.32 26.24 58.24 64 10.88-48.64 43.52z" fill="#333333" /></svg>