<?xml version="1.0" encoding="UTF-8"?>
<svg width="24px" height="24px" viewBox="0 0 24 24" version="1.1" xmlns="http://www.w3.org/2000/svg" xmlns:xlink="http://www.w3.org/1999/xlink">
    <!-- Generator: Sketch 61 (89581) - https://sketch.com -->
    <title>Shape</title>
    <desc>Created with Sketch.</desc>
    <g id="Icons" stroke="none" stroke-width="1" fill="none" fill-rule="evenodd" stroke-linecap="round" stroke-linejoin="round">
        <g id="Icons-/-View-/-Binoculars" stroke="#5E5E5E" stroke-width="1.5">
            <path d="M5.25,22.5 C7.73528137,22.5 9.75,20.4852814 9.75,18 C9.75,15.5147186 7.73528137,13.5 5.25,13.5 C2.76471863,13.5 0.75,15.5147186 0.75,18 C0.75,20.4852814 2.76471863,22.5 5.25,22.5 Z M9.75000284,18 L9.75000284,4.125 C9.75191927,2.81027096 8.78092295,1.69690116 7.47814404,1.52003048 C6.17536513,1.34315979 4.94267551,2.15734803 4.594,3.425 L0.911,16.805 M18.75,22.5 C21.2352814,22.5 23.25,20.4852814 23.25,18 C23.25,15.5147186 21.2352814,13.5 18.75,13.5 C16.2647186,13.5 14.25,15.5147186 14.25,18 C14.25,20.4852814 16.2647186,22.5 18.75,22.5 Z M14.2499972,18 L14.2499972,4.125 C14.2480807,2.81027096 15.2190771,1.69690116 16.521856,1.52003048 C17.8246349,1.34315979 19.0573245,2.15734803 19.406,3.425 L23.089,16.802 M9.75,9 L14.25,9 L14.25,12 L9.75,12 L9.75,9 Z" id="Shape"></path>
        </g>
    </g>
</svg>