<?xml version="1.0" encoding="UTF-8"?>
<svg width="24px" height="24px" viewBox="0 0 24 24" version="1.1" xmlns="http://www.w3.org/2000/svg" xmlns:xlink="http://www.w3.org/1999/xlink">
    <!-- Generator: Sketch 60 (88103) - https://sketch.com -->
    <title>Shape</title>
    <desc>Created with Sketch.</desc>
    <g id="Icons" stroke="none" stroke-width="1" fill="none" fill-rule="evenodd" stroke-linecap="round" stroke-linejoin="round">
        <g id="Icons-/-Favourites-/-Outline-/--All-Favourites" stroke="#5E5E5E" stroke-width="1.5">
            <path d="M18.875,7.75 C20.6008898,7.75 22,6.35088984 22,4.625 C22,2.89911016 20.6008898,1.5 18.875,1.5 C17.1491102,1.5 15.75,2.89911016 15.75,4.625 C15.75,6.35088984 17.1491102,7.75 18.875,7.75 Z M21.085,6.834 L23.25,9 M12.75,7.5 L2.25,7.5 C1.42157288,7.5 0.75,6.82842712 0.75,6 L0.75,4.5 C0.75,3.67157288 1.42157288,3 2.25,3 L12.75,3 M2.625,11.25 C2.83210678,11.25 3,11.4178932 3,11.625 C3,11.8321068 2.83210678,12 2.625,12 C2.41789322,12 2.25,11.8321068 2.25,11.625 C2.25,11.4178932 2.41789322,11.25 2.625,11.25 M6,12 L18,12 M2.625,16.5 C2.83210678,16.5 3,16.6678932 3,16.875 C3,17.0821068 2.83210678,17.25 2.625,17.25 C2.41789322,17.25 2.25,17.0821068 2.25,16.875 C2.25,16.6678932 2.41789322,16.5 2.625,16.5 M6,17.25 L18,17.25 M2.625,21.75 C2.83210678,21.75 3,21.9178932 3,22.125 C3,22.3321068 2.83210678,22.5 2.625,22.5 C2.41789322,22.5 2.25,22.3321068 2.25,22.125 C2.25,21.9178932 2.41789322,21.75 2.625,21.75 M6,22.5 L18,22.5" id="Shape"></path>
        </g>
    </g>
</svg>