<?xml version="1.0" encoding="UTF-8"?>
<svg width="24px" height="24px" viewBox="0 0 24 24" version="1.1" xmlns="http://www.w3.org/2000/svg" xmlns:xlink="http://www.w3.org/1999/xlink">
    <!-- Generator: Sketch 60 (88103) - https://sketch.com -->
    <title>Path 2</title>
    <desc>Created with Sketch.</desc>
    <g id="Icons" stroke="none" stroke-width="1" fill="none" fill-rule="evenodd" stroke-linecap="round" stroke-linejoin="round">
        <g id="Icons-/-Filter-List" stroke="#5E5E5E" stroke-width="1.5">
            <path d="M14.247,5.25 L21.747,5.25 C22.5754271,5.25 23.247,5.92157288 23.247,6.75 L23.247,21.75 C23.247,22.5784271 22.5754271,23.25 21.747,23.25 L8.247,23.25 C7.41857288,23.25 6.747,22.5784271 6.747,21.75 L6.747,15.75 M12.747,9.75 L20.25,9.75 M10.497,14.25 L20.25,14.25 M10.5,18.75 L20.25,18.75 M8.25,9.75 L8.25,6.75 L12.439,2.561 C12.7422412,2.25756458 12.8329219,1.80137934 12.6687827,1.4050378 C12.5046435,1.00869627 12.1179852,0.750194238 11.689,0.75 L1.811,0.75 C1.38201484,0.750194238 0.995356518,1.00869627 0.831217284,1.4050378 C0.667078051,1.80137934 0.757758769,2.25756458 1.061,2.561 L5.25,6.75 L5.25,12.75 L8.25,9.75 Z" id="Path-2"></path>
        </g>
    </g>
</svg>