<?xml version="1.0" encoding="UTF-8"?>
<svg width="16px" height="24px" viewBox="0 0 16 24" version="1.1" xmlns="http://www.w3.org/2000/svg" xmlns:xlink="http://www.w3.org/1999/xlink">
    <!-- Generator: Sketch 61 (89581) - https://sketch.com -->
    <title>Shape</title>
    <desc>Created with Sketch.</desc>
    <g id="Icons" stroke="none" stroke-width="1" fill="none" fill-rule="evenodd">
        <g id="Icons-/-Pins-/-Filled" transform="translate(-4.000000, 0.000000)" fill="#5E5E5E">
            <path d="M12,-1.77635684e-15 C7.58377808,0.00495988455 4.00495988,3.58377808 4,8 C4,11.51 9,20.025 11.148,23.524 C11.3300385,23.8198884 11.6525983,24.0000112 12,24.0000112 C12.3480606,24.0016551 12.671474,23.8205891 12.852,23.523 C15,20.026 20,11.514 20,8 C19.9950401,3.58377808 16.4162219,0.00495988455 12,-1.77635684e-15 Z M12,11.5 C10.0670034,11.5 8.5,9.93299662 8.5,8 C8.5,6.06700338 10.0670034,4.5 12,4.5 C13.9329966,4.5 15.5,6.06700338 15.5,8 C15.5,9.93299662 13.9329966,11.5 12,11.5 Z" id="Shape"></path>
        </g>
    </g>
</svg>