<?xml version="1.0" encoding="UTF-8"?>
<svg width="24px" height="24px" viewBox="0 0 24 24" version="1.1" xmlns="http://www.w3.org/2000/svg" xmlns:xlink="http://www.w3.org/1999/xlink">
    <!-- Generator: Sketch 61 (89581) - https://sketch.com -->
    <title>Shape</title>
    <desc>Created with Sketch.</desc>
    <g id="Icons" stroke="none" stroke-width="1" fill="none" fill-rule="evenodd" stroke-linecap="round" stroke-linejoin="round">
        <g id="Icons-/-Avatars-/-Team" stroke="#5E5E5E" stroke-width="1.5">
            <path d="M4.7,8.78 C6.67946393,10.8324518 9.72323587,11.4442332 12.342,10.316 M8.249,15 C10.5271746,15 12.374,13.1531746 12.374,10.875 C12.374,8.59682541 10.5271746,6.75 8.249,6.75 C5.97082541,6.75 4.124,8.59682541 4.124,10.875 C4.124,13.1531746 5.97082541,15 8.249,15 Z M11.999,23.25 C18.2122034,23.25 23.249,18.2132034 23.249,12 C23.249,5.78679656 18.2122034,0.75 11.999,0.75 C5.78579656,0.75 0.749,5.78679656 0.749,12 C0.749,18.2132034 5.78579656,23.25 11.999,23.25 Z M14.987,22.848 C14.8242244,20.0941168 13.0018005,17.7165329 10.3847878,16.8438284 C7.76777515,15.9711239 4.88308167,16.7790087 3.1,18.884 M17.624,15.75 C19.0737475,15.75 20.249,14.5747475 20.249,13.125 C20.249,11.6752525 19.0737475,10.5 17.624,10.5 C16.1742525,10.5 14.999,11.6752525 14.999,13.125 C14.999,14.5747475 16.1742525,15.75 17.624,15.75 Z M21.274,18.368 C20.3426972,17.0761322 18.7979339,16.3727236 17.2120496,16.5183891 C15.6261653,16.6640545 14.2353862,17.6370965 13.555,19.077" id="Shape"></path>
        </g>
    </g>
</svg>