<?xml version="1.0" encoding="UTF-8"?>
<svg width="24px" height="24px" viewBox="0 0 24 24" version="1.1" xmlns="http://www.w3.org/2000/svg" xmlns:xlink="http://www.w3.org/1999/xlink">
    <!-- Generator: Sketch 61 (89581) - https://sketch.com -->
    <title>Shape</title>
    <desc>Created with Sketch.</desc>
    <g id="Icons" stroke="none" stroke-width="1" fill="none" fill-rule="evenodd" stroke-linecap="round" stroke-linejoin="round">
        <g id="Icons-/-Navbar-/-Social" stroke="#5E5E5E" stroke-width="1.5">
            <path d="M10.782,10.513 C9.66896817,9.53136408 8.23404809,8.99291317 6.75,9 C3.7083747,8.97615479 1.13012138,11.2321264 0.75,14.25 M6.75,7.5 C8.61396103,7.5 10.125,5.98896103 10.125,4.125 C10.125,2.26103897 8.61396103,0.75 6.75,0.75 C4.88603897,0.75 3.375,2.26103897 3.375,4.125 C3.375,5.98896103 4.88603897,7.5 6.75,7.5 Z M16.5,6 C17.9497475,6 19.125,4.82474747 19.125,3.375 C19.125,1.92525253 17.9497475,0.75 16.5,0.75 C15.0502525,0.75 13.875,1.92525253 13.875,3.375 C13.875,4.82474747 15.0502525,6 16.5,6 Z M20.4,9 C19.6736308,7.74269724 18.3852076,6.91315094 16.9400142,6.77230162 C15.4948208,6.6314523 14.0704689,7.19661008 13.115,8.29 M17.25,19.5 C18.4926407,19.5 19.5,18.4926407 19.5,17.25 C19.5,16.0073593 18.4926407,15 17.25,15 C16.0073593,15 15,16.0073593 15,17.25 C15,18.4926407 16.0073593,19.5 17.25,19.5 Z M19.5,17.25 L19.5,18.375 C19.4997345,18.8723623 19.6971934,19.3494301 20.0488816,19.7011184 C20.4005699,20.0528066 20.8776377,20.2502655 21.375,20.25 L21.375,20.25 C21.8723623,20.2502655 22.3494301,20.0528066 22.7011184,19.7011184 C23.0528066,19.3494301 23.2502655,18.8723623 23.25,18.375 L23.25,17.528 C23.3038903,14.2055394 20.7228971,11.4342283 17.405,11.252 C14.3256919,11.1531286 11.6719451,13.4025181 11.2650161,16.456421 C10.8580871,19.5103239 12.8302427,22.3761095 15.828,23.087 C16.8049142,23.3169259 17.8232971,23.3038785 18.794,23.049" id="Shape"></path>
        </g>
    </g>
</svg>