<?xml version="1.0" encoding="UTF-8"?>
<svg width="17px" height="22px" viewBox="0 0 17 22" version="1.1" xmlns="http://www.w3.org/2000/svg" xmlns:xlink="http://www.w3.org/1999/xlink">
    <!-- Generator: Sketch 61 (89581) - https://sketch.com -->
    <title>trends-hot-flame copy 4</title>
    <desc>Created with Sketch.</desc>
    <g id="Conversations" stroke="none" stroke-width="1" fill="none" fill-rule="evenodd" stroke-linecap="round" stroke-linejoin="round">
        <g id="conversations-–-line-credit-score" transform="translate(-142.000000, -417.000000)" stroke="#FC5A5A" stroke-width="1.5">
            <g id="trends-hot-flame-copy-4" transform="translate(142.000000, 418.000000)">
                <path d="M8.42105263,19.3516667 C4.53473684,19.3516667 0.842105263,16.5533333 0.842105263,13.1016667 C0.7969676,10.4122044 2.46077927,7.98347931 5.00210526,7.02916667 C5.10430278,6.98792058 5.22084559,7.00246799 5.30949163,7.06753605 C5.39813767,7.1326041 5.44602238,7.23874996 5.43578947,7.3475 C5.25810095,8.69246602 5.77924309,10.0352023 6.82105263,10.9166667 C7.06404476,11.1203597 7.42235759,11.1128534 7.65642105,10.8991667 C8.768,9.885 11.4938947,6.535 6.62652632,1.16916667 C6.53852385,1.0723107 6.52045684,0.931597386 6.58118638,0.816040609 C6.64191592,0.700483833 6.76870478,0.634320141 6.89936842,0.65 C11.4703158,1.20583333 16,6.30916667 16,11.2266667 C16,15.3933333 13.4736842,19.3516667 8.42105263,19.3516667 Z" id="Path" fill="#FFFFFF"></path>
                <path d="M12.5018947,11.8516667 C12.5788023,13.8418178 11.0146103,15.5186457 9.00378947,15.6016667" id="Path"></path>
            </g>
        </g>
    </g>
</svg>