<svg xmlns="http://www.w3.org/2000/svg" width="16.926" height="15.9" viewBox="0 0 16.926 15.9">
  <g id="date-outline-badged" transform="translate(-2 -1)">
    <path id="Path_2041" data-name="Path 2041" d="M17.387,9.7V18.31H3.026V7.026H4.564V6H2.9a.913.913,0,0,0-.9.928V18.407a.913.913,0,0,0,.9.928H17.515a.913.913,0,0,0,.9-.928V9.252a3.821,3.821,0,0,1-1.026.451Z" transform="translate(0 -2.435)" fill="#7b7b7b"/>
    <path id="Path_2042" data-name="Path 2042" d="M8,14H9.026v1.026H8Z" transform="translate(-2.923 -6.332)" fill="#7b7b7b"/>
    <path id="Path_2043" data-name="Path 2043" d="M14,14h1.026v1.026H14Z" transform="translate(-5.845 -6.332)" fill="#7b7b7b"/>
    <path id="Path_2044" data-name="Path 2044" d="M20,14h1.026v1.026H20Z" transform="translate(-8.768 -6.332)" fill="#7b7b7b"/>
    <path id="Path_2045" data-name="Path 2045" d="M26,14h1.026v1.026H26Z" transform="translate(-11.69 -6.332)" fill="#7b7b7b"/>
    <path id="Path_2046" data-name="Path 2046" d="M8,19H9.026v1.026H8Z" transform="translate(-2.923 -8.768)" fill="#7b7b7b"/>
    <path id="Path_2047" data-name="Path 2047" d="M14,19h1.026v1.026H14Z" transform="translate(-5.845 -8.768)" fill="#7b7b7b"/>
    <path id="Path_2048" data-name="Path 2048" d="M20,19h1.026v1.026H20Z" transform="translate(-8.768 -8.768)" fill="#7b7b7b"/>
    <path id="Path_2049" data-name="Path 2049" d="M26,19h1.026v1.026H26Z" transform="translate(-11.69 -8.768)" fill="#7b7b7b"/>
    <path id="Path_2050" data-name="Path 2050" d="M8,24H9.026v1.026H8Z" transform="translate(-2.923 -11.203)" fill="#7b7b7b"/>
    <path id="Path_2051" data-name="Path 2051" d="M14,24h1.026v1.026H14Z" transform="translate(-5.845 -11.203)" fill="#7b7b7b"/>
    <path id="Path_2052" data-name="Path 2052" d="M20,24h1.026v1.026H20Z" transform="translate(-8.768 -11.203)" fill="#7b7b7b"/>
    <path id="Path_2053" data-name="Path 2053" d="M26,24h1.026v1.026H26Z" transform="translate(-11.69 -11.203)" fill="#7b7b7b"/>
    <path id="Path_2054" data-name="Path 2054" d="M9.513,6.1a.513.513,0,0,0,.513-.513V2.513A.513.513,0,1,0,9,2.513V5.59A.513.513,0,0,0,9.513,6.1Z" transform="translate(-3.41 -0.487)" fill="#7b7b7b"/>
    <path id="Path_2055" data-name="Path 2055" d="M17.873,6H13V7.026h5.016A3.842,3.842,0,0,1,17.873,6Z" transform="translate(-5.358 -2.435)" fill="#7b7b7b"/>
    <path id="Path_2056" data-name="Path 2056" d="M30.129,3.565A2.565,2.565,0,1,1,27.565,1,2.565,2.565,0,0,1,30.129,3.565Z" transform="translate(-11.203)" fill="#7b7b7b"/>
  </g>
</svg>
