<svg xmlns="http://www.w3.org/2000/svg" width="17.499" height="17.499" viewBox="0 0 17.499 17.499">
  <g id="comment" transform="translate(1505.248 3.249)">
    <g id="Group_753" data-name="Group 753">
      <g id="Group_752" data-name="Group 752">
        <path id="Path_2074" data-name="Path 2074" d="M16.013,10.478a.684.684,0,0,0-1.267.512l.805,1.991L13.16,11.928a.684.684,0,0,0-.544,0,6.591,6.591,0,0,1-2.6.525A5.922,5.922,0,0,1,3.9,6.908c0-3.056,2.744-5.541,6.118-5.541s6.118,2.486,6.118,5.541a5.574,5.574,0,0,1-.061.783.684.684,0,1,0,1.352.2,6.9,6.9,0,0,0,.076-.985A6.607,6.607,0,0,0,15.285,2a7.768,7.768,0,0,0-5.271-2A7.768,7.768,0,0,0,4.744,2,6.643,6.643,0,0,0,2.557,6.32,5.526,5.526,0,0,0,0,10.92a5.3,5.3,0,0,0,1.048,3.169l-1,2.47a.684.684,0,0,0,.909.882l2.879-1.269a6.505,6.505,0,0,0,2.28.406l.051,0A6.47,6.47,0,0,0,9.385,15.7a5.884,5.884,0,0,0,2.068-2.014,7.866,7.866,0,0,0,1.42-.395l3.667,1.617a.684.684,0,0,0,.909-.882Zm-9.9,4.731H6.09a5.127,5.127,0,0,1-2-.408.683.683,0,0,0-.544,0l-1.6.706.516-1.277a.684.684,0,0,0-.114-.7,3.99,3.99,0,0,1-.984-2.613A4.067,4.067,0,0,1,2.631,8.008a6.9,6.9,0,0,0,2.022,3.7,7.641,7.641,0,0,0,4.973,2.1A5.024,5.024,0,0,1,6.118,15.209Z" transform="translate(-1505.249 -3.249)" fill="#7b7b7b"/>
      </g>
    </g>
  </g>
</svg>
