<svg xmlns="http://www.w3.org/2000/svg" width="18.474" height="13.855" viewBox="0 0 18.474 13.855">
  <g id="credit-card" transform="translate(0 -4.5)">
    <path id="Path_2061" data-name="Path 2061" d="M0,6.809A2.309,2.309,0,0,1,2.309,4.5H16.165a2.309,2.309,0,0,1,2.309,2.309v9.237a2.309,2.309,0,0,1-2.309,2.309H2.309A2.309,2.309,0,0,1,0,16.046ZM2.309,5.655A1.155,1.155,0,0,0,1.155,6.809V7.964H17.319V6.809a1.155,1.155,0,0,0-1.155-1.155Zm15.01,4.618H1.155v5.773A1.155,1.155,0,0,0,2.309,17.2H16.165a1.155,1.155,0,0,0,1.155-1.155Z" fill="#7b7b7b" fill-rule="evenodd"/>
    <path id="Path_2062" data-name="Path 2062" d="M4.5,21.4A1.155,1.155,0,0,1,5.655,20.25H6.809A1.155,1.155,0,0,1,7.964,21.4v1.155a1.155,1.155,0,0,1-1.155,1.155H5.655A1.155,1.155,0,0,1,4.5,22.559Z" transform="translate(-2.191 -7.668)" fill="#7b7b7b"/>
  </g>
</svg>
