<svg xmlns="http://www.w3.org/2000/svg" width="43.297" height="41.167" viewBox="0 0 43.297 41.167">
  <path id="dash_icon_3" d="M38.937,9.136A4.208,4.208,0,0,1,42.03,10.4,4.086,4.086,0,0,1,43.3,13.4V37.223a4.329,4.329,0,0,1-4.36,4.361H4.36a4.208,4.208,0,0,1-3.093-1.268A4.2,4.2,0,0,1,0,37.224V13.4A4.088,4.088,0,0,1,1.268,10.4,4.213,4.213,0,0,1,4.36,9.136h8.618V4.777l4.36-4.36h8.618l4.36,4.36v4.36h8.618Zm-21.6-4.36v4.36h8.618V4.777ZM21.6,37.224l10.85-10.85H25.959V17.756H17.34v8.618H10.851Z" transform="translate(0 -0.417)" fill="#ff5858"/>
</svg>
