<svg xmlns="http://www.w3.org/2000/svg" width="15.028" height="18.495" viewBox="0 0 15.028 18.495">
  <g id="files" transform="translate(-48 0)">
    <g id="Group_751" data-name="Group 751" transform="translate(48 0)">
      <g id="Group_750" data-name="Group 750">
        <path id="Path_2073" data-name="Path 2073" d="M62.86,3.635,59.392.167A.578.578,0,0,0,58.982,0H49.734A1.734,1.734,0,0,0,48,1.734V16.761A1.734,1.734,0,0,0,49.734,18.5h11.56a1.734,1.734,0,0,0,1.734-1.734V4.046A.578.578,0,0,0,62.86,3.635Zm-.988,13.126a.578.578,0,0,1-.578.578H49.734a.578.578,0,0,1-.578-.578V1.734a.578.578,0,0,1,.578-.578H58.4V3.468A1.156,1.156,0,0,0,59.56,4.624h2.312Z" transform="translate(-48 0)" fill="#7b7b7b"/>
        <rect id="Rectangle_280" data-name="Rectangle 280" width="1" height="1" transform="translate(11.552 13.217)" fill="#7b7b7b"/>
        <rect id="Rectangle_281" data-name="Rectangle 281" width="9" height="2" transform="translate(3.552 7.218)" fill="#7b7b7b"/>
        <rect id="Rectangle_282" data-name="Rectangle 282" width="9" height="1" transform="translate(3.552 11.218)" fill="#7b7b7b"/>
        <rect id="Rectangle_283" data-name="Rectangle 283" width="7" height="1" transform="translate(3.552 13.217)" fill="#7b7b7b"/>
      </g>
    </g>
  </g>
</svg>
