<?xml version="1.0" encoding="utf-8"?>
<!-- Generator: Adobe Illustrator 25.3.1, SVG Export Plug-In . SVG Version: 6.00 Build 0)  -->
<svg version="1.1" id="Layer_1" xmlns="http://www.w3.org/2000/svg" xmlns:xlink="http://www.w3.org/1999/xlink" x="0px" y="0px"
	 width="16.7px" height="16.6px" viewBox="0 0 16.7 16.6" style="enable-background:new 0 0 16.7 16.6;" xml:space="preserve">
<style type="text/css">
	.st0{fill:#7B7B7B;}
</style>
<path id="phone" class="st0" d="M-51.8,17h-0.1C-64.5,16.2-66.2,5.6-66.5,2.4c-0.1-1.1,0.7-2,1.8-2.1c0,0,0,0,0,0h3.5
	c0.5,0,1,0.3,1.2,0.8l1,2.4c0.2,0.5,0.1,1-0.3,1.4l-1.4,1.4c0.4,2.5,2.4,4.4,4.9,4.9l1.4-1.4c0.4-0.4,0.9-0.5,1.4-0.3l2.4,1
	c0.5,0.2,0.8,0.7,0.8,1.2V15C-49.8,16.1-50.7,17-51.8,17C-51.8,17-51.8,17-51.8,17z M-64.6,1.6c-0.4,0-0.6,0.3-0.6,0.6v0.1
	C-64.9,6.1-63,15-51.8,15.7c0.4,0,0.7-0.2,0.7-0.6c0,0,0,0,0,0v-3.4l-2.4-1l-1.8,1.8l-0.3,0c-5.6-0.7-6.3-6.3-6.3-6.3l0-0.3l1.8-1.8
	l-1-2.4H-64.6z"/>
<g>
	<path class="st0" d="M-6.3,10c-0.1,0.7-0.3,1.4-0.8,2c-0.8,1-1.5,2.1-2.3,3.1c-0.2,0.3-0.5,0.4-0.9,0.2c-2.7-1.6-5.5-3.2-8.2-4.7
		c-0.2-0.1-0.3-0.2-0.5-0.4c-0.7-1-1.5-2-2.2-3C-21.7,6.5-22,5.6-22,4.7c0.1-1.8,1.4-3.3,3.1-3.5c1.7-0.2,3.4,0.8,3.9,2.5
		c0.4,1.3,0.2,2.4-0.6,3.5c-0.7,0.9-1.3,1.8-2,2.7c1.9,1.1,3.7,2.2,5.6,3.2c0,0,0,0,0,0c-0.1-0.1-0.2-0.2-0.2-0.3
		c-0.3-0.4-0.6-0.8-0.8-1.2c-1.2-2.2,0-4.9,2.4-5.4c1.4-0.3,2.9,0.3,3.6,1.5C-6.5,8.3-6.2,9-6.3,9.8C-6.3,9.9-6.3,10-6.3,10z
		 M-9.9,14c0.7-0.9,1.4-1.8,2.1-2.8c0.6-0.8,0.6-1.8,0.2-2.7c-0.8-1.6-3-1.9-4.2-0.5c-0.8,1-0.8,2.2,0,3.3c0.5,0.6,1,1.3,1.4,1.9
		C-10.2,13.5-10.1,13.8-9.9,14z M-18.4,9.1C-18.3,9.1-18.3,9.1-18.4,9.1c0.7-0.9,1.3-1.8,2-2.7c0.7-1,0.7-2,0.1-3
		c-0.7-1.1-2.1-1.5-3.2-0.9c-1.2,0.6-2,2.3-1,3.8c0.4,0.5,0.7,1,1.1,1.5C-19,8.3-18.7,8.7-18.4,9.1z"/>
	<path class="st0" d="M-11.6,9.6c0-0.9,0.7-1.7,1.7-1.7c0.9,0,1.7,0.8,1.7,1.7c0,0.9-0.8,1.7-1.7,1.7C-10.8,11.2-11.6,10.5-11.6,9.6
		z M-9.9,9c-0.3,0-0.6,0.3-0.6,0.6c0,0.3,0.2,0.6,0.6,0.6c0.3,0,0.6-0.3,0.6-0.6C-9.3,9.2-9.6,9-9.9,9z"/>
	<path class="st0" d="M-16.7,4.7c0,0.9-0.8,1.7-1.7,1.7c-0.9,0-1.7-0.8-1.7-1.7c0-0.9,0.8-1.7,1.7-1.7C-17.4,3-16.7,3.7-16.7,4.7z
		 M-17.8,4.7c0-0.3-0.3-0.6-0.6-0.6c-0.3,0-0.6,0.3-0.6,0.6c0,0.3,0.3,0.6,0.6,0.6C-18,5.3-17.8,5-17.8,4.7z"/>
</g>
<g>
	<path class="st0" d="M-43.4,4c0.1-0.2,0.2-0.4,0.3-0.6c0.3-0.4,0.6-0.8,1.1-1c0.7-0.4,1.6-0.7,2.4-0.5c1.5,0.3,2.6,1.3,2.9,2.7
		c0.2,0.7,0.1,1.3-0.2,2c-0.3,0.7-0.7,1.4-1.2,2.1c-0.5,0.7-1,1.3-1.6,2c-0.3,0.3-0.6,0.3-0.9,0c-0.9-1-1.7-2.1-2.4-3.3
		c-0.3-0.6-0.6-1.2-0.7-1.8C-43.7,5-43.6,4.5-43.4,4z M-40.2,9.6c0.1-0.1,0.1-0.1,0.2-0.2c0.8-1,1.5-2,2.1-3.1
		c0.2-0.3,0.3-0.7,0.3-1c0-0.7-0.3-1.3-0.9-1.8c-0.9-0.8-2.2-0.8-3.2-0.1c-0.7,0.6-1.3,1.8-0.7,3c0.4,0.8,0.9,1.6,1.5,2.3
		C-40.7,8.9-40.4,9.2-40.2,9.6z"/>
	<path class="st0" d="M-43.6,5c0-0.6,0.2-1.2,0.6-1.8c0.8-1,2.1-1.6,3.4-1.4c1.5,0.3,2.6,1.3,2.9,2.7c0.2,0.7,0.1,1.3-0.2,2
		c-0.3,0.7-0.7,1.4-1.2,2.1c-0.5,0.7-1,1.3-1.6,2c-0.3,0.3-0.6,0.3-0.9,0c-0.9-1-1.7-2.1-2.4-3.3C-43.4,6.6-43.7,5.8-43.6,5z
		 M-40.2,9.6c0.1-0.1,0.1-0.1,0.2-0.2c0.8-1,1.5-2,2.1-3.1c0.2-0.3,0.3-0.7,0.3-1c0-0.7-0.3-1.3-0.9-1.8c-0.9-0.8-2.2-0.8-3.2-0.1
		c-0.7,0.6-1.3,1.8-0.7,3c0.4,0.8,0.9,1.6,1.5,2.3C-40.7,8.9-40.4,9.2-40.2,9.6z"/>
	<path class="st0" d="M-27.6,5.3c0,0.4-0.1,0.8-0.3,1.3c-0.3,0.7-0.7,1.4-1.2,2c-0.5,0.7-1.1,1.4-1.6,2.1c-0.2,0.3-0.6,0.3-0.8,0
		c-0.9-1-1.7-2.1-2.4-3.3c-0.3-0.5-0.5-1-0.6-1.5c-0.1-0.7,0-1.3,0.2-1.9c0.5-1.1,1.3-1.7,2.5-2c1.4-0.3,2.9,0.3,3.7,1.5
		C-27.8,4-27.6,4.6-27.6,5.3z M-31.1,9.6C-31.1,9.5-31,9.5-31.1,9.6c0.5-0.6,0.9-1.2,1.3-1.7c0.4-0.6,0.8-1.2,1.1-1.9
		c0.1-0.3,0.2-0.5,0.2-0.8c0-0.6-0.2-1.2-0.7-1.6c-0.8-0.9-2.2-1.1-3.3-0.4C-33.3,3.8-34,5-33.3,6.3c0.4,0.8,0.9,1.5,1.4,2.2
		C-31.7,8.9-31.4,9.2-31.1,9.6z"/>
	<path class="st0" d="M-27.6,5.3c0,0.4-0.1,0.8-0.3,1.3c-0.3,0.7-0.7,1.4-1.2,2c-0.5,0.7-1.1,1.4-1.6,2.1c-0.2,0.3-0.6,0.3-0.8,0
		c-0.9-1-1.7-2.1-2.4-3.3c-0.3-0.5-0.5-1-0.6-1.5c-0.1-0.7,0-1.3,0.2-1.9c0.5-1.1,1.3-1.7,2.5-2c1.4-0.3,2.9,0.3,3.7,1.5
		C-27.8,4-27.6,4.6-27.6,5.3z M-31.1,9.6C-31.1,9.5-31,9.5-31.1,9.6c0.5-0.6,0.9-1.2,1.3-1.7c0.4-0.6,0.8-1.2,1.1-1.9
		c0.1-0.3,0.2-0.5,0.2-0.8c0-0.6-0.2-1.2-0.7-1.6c-0.8-0.9-2.2-1.1-3.3-0.4C-33.3,3.8-34,5-33.3,6.3c0.4,0.8,0.9,1.5,1.4,2.2
		C-31.7,8.9-31.4,9.2-31.1,9.6z"/>
	<path class="st0" d="M-35.6,13.9c-1,0-2,0-2.9,0c-0.1,0-0.2,0-0.2,0.1c-0.3,0.6-1.1,1-1.7,0.8c-0.8-0.2-1.2-0.9-1.1-1.6
		c0.1-0.7,0.6-1.2,1.2-1.3c0.7-0.1,1.4,0.2,1.6,0.9c0,0.1,0.1,0.1,0.2,0.1c2,0,4,0,6,0c0.1,0,0.2,0,0.2-0.1c0.3-0.7,1.1-1,1.7-0.8
		c0.8,0.2,1.2,0.9,1.1,1.6c-0.1,0.7-0.6,1.2-1.2,1.3c-0.7,0.1-1.4-0.2-1.6-0.9c0-0.1-0.1-0.1-0.2-0.1
		C-33.6,13.9-34.6,13.9-35.6,13.9z M-40.2,12.9c-0.3,0-0.5,0.2-0.5,0.5c0,0.3,0.2,0.5,0.5,0.5c0.3,0,0.5-0.2,0.5-0.5
		C-39.7,13.1-39.9,12.9-40.2,12.9z M-30.6,13.4c0-0.3-0.2-0.5-0.5-0.5c-0.3,0-0.5,0.2-0.5,0.5c0,0.3,0.2,0.5,0.5,0.5
		C-30.8,13.9-30.6,13.6-30.6,13.4z"/>
	<path class="st0" d="M-35.6,13.9c-1,0-2,0-2.9,0c-0.1,0-0.2,0-0.2,0.1c-0.3,0.6-1.1,1-1.7,0.8c-0.8-0.2-1.2-0.9-1.1-1.6
		c0.1-0.7,0.6-1.2,1.2-1.3c0.7-0.1,1.4,0.2,1.6,0.9c0,0.1,0.1,0.1,0.2,0.1c2,0,4,0,6,0c0.1,0,0.2,0,0.2-0.1c0.3-0.7,1.1-1,1.7-0.8
		c0.8,0.2,1.2,0.9,1.1,1.6c-0.1,0.7-0.6,1.2-1.2,1.3c-0.7,0.1-1.4-0.2-1.6-0.9c0-0.1-0.1-0.1-0.2-0.1
		C-33.6,13.9-34.6,13.9-35.6,13.9z M-40.2,12.9c-0.3,0-0.5,0.2-0.5,0.5c0,0.3,0.2,0.5,0.5,0.5c0.3,0,0.5-0.2,0.5-0.5
		C-39.7,13.1-39.9,12.9-40.2,12.9z M-30.6,13.4c0-0.3-0.2-0.5-0.5-0.5c-0.3,0-0.5,0.2-0.5,0.5c0,0.3,0.2,0.5,0.5,0.5
		C-30.8,13.9-30.6,13.6-30.6,13.4z"/>
	<path class="st0" d="M-38.7,5.3c0,0.8-0.7,1.5-1.5,1.5c-0.8,0-1.5-0.7-1.5-1.5c0-0.8,0.7-1.5,1.5-1.5C-39.3,3.8-38.7,4.5-38.7,5.3z
		 M-39.7,5.3c0-0.3-0.2-0.5-0.5-0.5c-0.3,0-0.5,0.2-0.5,0.5c0,0.3,0.2,0.5,0.5,0.5C-39.9,5.8-39.7,5.6-39.7,5.3z"/>
	<path class="st0" d="M-38.7,5.3c0,0.8-0.7,1.5-1.5,1.5c-0.8,0-1.5-0.7-1.5-1.5c0-0.8,0.7-1.5,1.5-1.5C-39.3,3.8-38.7,4.5-38.7,5.3z
		 M-39.7,5.3c0-0.3-0.2-0.5-0.5-0.5c-0.3,0-0.5,0.2-0.5,0.5c0,0.3,0.2,0.5,0.5,0.5C-39.9,5.8-39.7,5.6-39.7,5.3z"/>
	<path class="st0" d="M-32.6,5.3c0-0.8,0.7-1.5,1.5-1.5c0.8,0,1.5,0.7,1.5,1.5c0,0.8-0.7,1.5-1.5,1.5C-31.9,6.8-32.6,6.1-32.6,5.3z
		 M-31.1,5.8c0.3,0,0.5-0.2,0.5-0.5c0-0.3-0.2-0.5-0.5-0.5c-0.3,0-0.5,0.2-0.5,0.5C-31.6,5.6-31.4,5.8-31.1,5.8z"/>
	<path class="st0" d="M-32.6,5.3c0-0.8,0.7-1.5,1.5-1.5c0.8,0,1.5,0.7,1.5,1.5c0,0.8-0.7,1.5-1.5,1.5C-31.9,6.8-32.6,6.1-32.6,5.3z
		 M-31.1,5.8c0.3,0,0.5-0.2,0.5-0.5c0-0.3-0.2-0.5-0.5-0.5c-0.3,0-0.5,0.2-0.5,0.5C-31.6,5.6-31.4,5.8-31.1,5.8z"/>
</g>
<g>
	<path class="st0" d="M8,0.3c0.3,0,0.5,0,0.8,0c0,0,0.1,0,0.1,0c0.8,0.1,1.5,0.3,2.1,0.8c1.6,1.1,2.3,2.7,2.1,4.6
		c-0.1,0.9-0.5,1.7-0.9,2.5c-0.1,0.1-0.1,0.2-0.2,0.4c0,0,0.1,0,0.1,0c0.6,0.2,1.2,0.3,1.9,0.5c0.2,0.1,0.4,0.2,0.4,0.4
		c0.2,0.6,0.4,1.1,0.5,1.7c0.5,1.5,0.9,2.9,1.4,4.4c0,0.1,0.1,0.2,0,0.4c-0.1,0.3-0.3,0.4-0.7,0.3c-1.2-0.3-2.4-0.6-3.6-0.9
		c-0.1,0-0.2,0-0.3,0c-1,0.3-2.1,0.6-3.1,0.9c-0.2,0-0.3,0-0.5,0C7,16,6,15.7,5,15.4c-0.1,0-0.2,0-0.2,0c-1.2,0.3-2.4,0.6-3.6,0.9
		c-0.4,0.1-0.6,0-0.8-0.3c0-0.1,0-0.2,0-0.3c0,0,0-0.1,0.1-0.1c0.6-2,1.3-4,1.9-6.1c0.1-0.2,0.2-0.4,0.5-0.4c0.5-0.1,1-0.3,1.5-0.4
		c0.1,0,0.3-0.1,0.4-0.1c-0.2-0.4-0.4-0.7-0.5-1C3.8,6.6,3.5,5.7,3.6,4.6C3.8,2.7,5.2,1,7,0.5C7.3,0.4,7.6,0.4,8,0.3z M8.3,11.4
		c0.1-0.1,0.1-0.1,0.1-0.1c0.5-0.5,1-1.1,1.5-1.6c0.7-0.9,1.4-1.8,1.8-2.9C12,6,12.2,5.3,12,4.4c-0.3-1.7-1.8-3-3.5-3.1
		C6.7,1.3,5.1,2.4,4.7,4.2C4.5,5.1,4.6,6,5,6.8C5.7,8.6,7,10,8.3,11.4z M1.6,15.1c0.1,0,0.1,0,0.1,0c0.8-0.2,1.7-0.4,2.5-0.6
		c0.1,0,0.2-0.1,0.2-0.2C4.6,13,4.8,11.8,5,10.6c0.1-0.3,0.1-0.7,0.2-1c0,0-0.1,0-0.1,0C4.5,9.7,3.9,9.8,3.3,10
		c-0.1,0-0.1,0.1-0.1,0.2c-0.3,0.8-0.5,1.6-0.8,2.4C2.1,13.4,1.9,14.3,1.6,15.1z M11.5,9.5C11.5,9.5,11.5,9.6,11.5,9.5
		c0.3,1.6,0.5,3.2,0.8,4.8c0,0.1,0.1,0.1,0.2,0.2c0.8,0.2,1.6,0.4,2.4,0.6c0.1,0,0.2,0,0.3,0.1c0,0,0-0.1,0-0.1
		c-0.5-1.6-1.1-3.3-1.6-4.9c0-0.1-0.1-0.1-0.1-0.1c-0.3-0.1-0.6-0.2-0.9-0.2C12.1,9.7,11.8,9.6,11.5,9.5z M8.8,15.2
		c0.8-0.2,1.6-0.5,2.4-0.7c-0.2-1.3-0.4-2.7-0.7-4c0,0,0,0-0.1,0c-0.6,0.6-1.1,1.2-1.7,1.8c0,0-0.1,0.1-0.1,0.1
		C8.8,13.3,8.8,14.2,8.8,15.2z M6.1,10.5c-0.2,1.3-0.4,2.7-0.7,4c0.8,0.2,1.6,0.5,2.4,0.7c0-0.1,0-0.1,0-0.2c0-0.8,0-1.7,0-2.5
		c0-0.1,0-0.2-0.1-0.3c-0.2-0.1-0.3-0.3-0.5-0.5C6.9,11.3,6.5,10.9,6.1,10.5z"/>
	<path class="st0" d="M5.6,5.1c0-1.5,1.2-2.7,2.8-2.7c1.5,0,2.7,1.3,2.7,2.8c0,1.5-1.2,2.7-2.8,2.7C6.8,7.8,5.6,6.6,5.6,5.1z
		 M8.3,3.3c-1,0-1.8,0.8-1.8,1.7c0,1,0.8,1.8,1.7,1.8c1,0,1.8-0.8,1.8-1.7C10.1,4.1,9.3,3.3,8.3,3.3z"/>
</g>
<g>
	<path class="st0" d="M37.5,2.7c-0.1-0.1-0.3-0.1-0.4,0l-1.2,0.6c0-0.1,0-0.1,0-0.2c0-1.7-1.4-3.1-3.1-3.1c-1.7,0-3.1,1.4-3.1,3.1
		c0,0.1,0,0.1,0,0.2l-1.8-0.6c-0.1,0-0.2,0-0.3,0L24,4.5c-0.2,0.1-0.2,0.2-0.2,0.4v10.9c0,0.2,0.1,0.3,0.2,0.4
		c0.1,0.1,0.3,0.1,0.4,0l3.4-1.5l4.8,1.9c0.1,0,0.1,0,0.2,0c0.1,0,0.1,0,0.2,0l4.6-2.2c0.2-0.1,0.3-0.2,0.3-0.4L37.7,3.1
		C37.7,2.9,37.6,2.8,37.5,2.7z M32.8,0.9c1.2,0,2.2,1,2.2,2.2c0,0.8-1.3,2.5-2.2,3.6c-1-1.1-2.2-2.8-2.2-3.6
		C30.6,1.9,31.6,0.9,32.8,0.9z M32.4,7.6v8l-4.2-1.7v-1.7c0.5-0.5,1.8-2,1.8-3c0-1.1-0.8-2-1.8-2.2V3.7L30,4.4
		C30.7,5.7,31.9,7.1,32.4,7.6z M27.7,7.8c0.7,0,1.3,0.6,1.3,1.3c0,0.5-0.7,1.4-1.3,2.1c-0.6-0.7-1.3-1.7-1.3-2.1
		C26.4,8.4,27,7.8,27.7,7.8z M24.7,5.1l2.6-1.3V7c-1,0.2-1.8,1.1-1.8,2.2c0,1,1.3,2.5,1.8,3v1.8l-2.6,1.1V5.1z M33.2,15.5V7.6
		c0.4-0.4,1.6-1.8,2.3-3.1l1.3-0.7l0.1,9.9L33.2,15.5z"/>
	<path class="st0" d="M27.7,9.7c0.3,0,0.5-0.2,0.5-0.5c0-0.3-0.2-0.5-0.5-0.5c-0.3,0-0.5,0.2-0.5,0.5C27.2,9.5,27.4,9.7,27.7,9.7z"
		/>
	<path class="st0" d="M34.2,3.1c0-0.7-0.6-1.4-1.4-1.4s-1.4,0.6-1.4,1.4s0.6,1.4,1.4,1.4S34.2,3.8,34.2,3.1z M32.2,3.1
		c0-0.4,0.3-0.6,0.6-0.6s0.6,0.3,0.6,0.6s-0.3,0.6-0.6,0.6S32.2,3.4,32.2,3.1z"/>
</g>
<g>
	<path d="M44.4,2.9c0.1-0.2,0.1-0.5,0.2-0.7C45,1,46.1,0.3,47.4,0.3c1.2,0.1,2.3,0.9,2.6,2.1c0.2,0.7,0.1,1.4-0.2,2.1
		c-0.6,1.3-1.3,2.6-1.9,3.9c0,0.1,0,0.1-0.1,0.2c0.1,0,0.1,0,0.2,0c0.7,0,1.3,0,2,0c1.1,0,2,0.7,2.1,1.8c0.2,1.2-0.8,2.4-2,2.4
		c-1,0-2,0-3.1,0c-0.6,0-1.1,0.3-1.4,0.8c-0.4,0.9,0.2,2,1.1,2.1c0.2,0,0.3,0,0.5,0c3.1,0,6.2,0,9.3,0c0.1,0,0.1,0,0.2,0
		c0-0.1,0-0.1-0.1-0.2c-0.2-0.4-0.4-0.8-0.6-1.1c-0.1-0.1-0.1-0.3,0-0.4c0.1-0.1,0.2-0.1,0.3-0.1c0.1,0,0.2,0.1,0.2,0.2
		c0.2,0.3,0.3,0.7,0.5,1c0,0,0,0.1,0.1,0.2c0-0.1,0.1-0.1,0.1-0.2c0.8-1.7,1.7-3.4,2.5-5c0.9-1.8-0.3-4-2.3-4.2
		c-1.1-0.1-2.1,0.3-2.7,1.2c-0.6,0.9-0.7,1.9-0.2,2.9c0.3,0.5,0.5,1.1,0.8,1.6c0.1,0.2,0.1,0.4-0.1,0.5c-0.2,0.1-0.3,0-0.4-0.2
		c-0.1-0.2-0.2-0.4-0.3-0.7c-0.2-0.5-0.5-0.9-0.6-1.4c-0.6-1.6,0.1-3.6,1.7-4.4c1.9-0.9,4-0.2,4.9,1.7c0.4,1,0.4,2,0,2.9
		c-0.9,1.9-1.9,3.8-2.9,5.8c-0.1,0.2-0.2,0.3-0.4,0.3c-3.4,0-6.8,0-10.1,0c-1.1,0-2-0.7-2.2-1.8c-0.2-1.1,0.6-2.2,1.7-2.4
		c0.2,0,0.3,0,0.5,0c1,0,1.9,0,2.9,0c0.7,0,1.3-0.4,1.5-1.1c0.3-0.8-0.4-1.8-1.3-1.8c-0.8,0-1.6,0-2.4,0c-0.2,0-0.4,0-0.5,0
		c-0.1,0-0.2-0.1-0.3-0.2c-0.2-0.4-0.4-0.7-0.6-1.1c-0.1-0.2,0-0.4,0.1-0.5c0.2-0.1,0.3,0,0.4,0.2c0.1,0.2,0.2,0.4,0.3,0.5
		C47.2,8,47.3,8,47.3,8c0.6-1.3,1.3-2.6,1.9-3.8c0.4-0.8,0.3-1.7-0.3-2.4c-0.6-0.7-1.4-1-2.3-0.7c-0.9,0.3-1.4,0.9-1.6,1.8
		c-0.1,0.5,0,0.9,0.2,1.3c0.2,0.3,0.3,0.6,0.5,1c0,0.1,0.1,0.2,0.1,0.2c0,0.1-0.1,0.2-0.2,0.3c-0.1,0-0.3,0-0.3-0.1
		c-0.1-0.1-0.2-0.3-0.2-0.4c-0.2-0.4-0.4-0.9-0.6-1.3c0-0.1-0.1-0.2-0.1-0.4C44.4,3.3,44.4,3.1,44.4,2.9z"/>
	<path d="M57.2,10.9c-1.2,0-2.1-1-2.1-2.1c0-1.2,1-2.1,2.1-2.1c1.2,0,2.1,1,2.1,2.1C59.3,10,58.4,10.9,57.2,10.9z M57.3,10.2
		c0.8,0,1.4-0.6,1.5-1.4c0-0.8-0.7-1.5-1.5-1.5c-0.8,0-1.4,0.6-1.5,1.4C55.8,9.6,56.5,10.2,57.3,10.2z"/>
	<path d="M47.2,4.9c-0.9,0-1.7-0.8-1.7-1.7c0-0.9,0.8-1.7,1.7-1.7c0.9,0,1.7,0.8,1.7,1.7C48.9,4.1,48.2,4.9,47.2,4.9z M47.2,4.2
		c0.6,0,1.1-0.5,1.1-1c0-0.6-0.5-1.1-1.1-1.1c-0.6,0-1.1,0.5-1.1,1.1C46.1,3.7,46.6,4.2,47.2,4.2z"/>
	<path d="M46,6.2c0.2,0,0.3,0.1,0.3,0.3c0,0.2-0.1,0.3-0.3,0.3c-0.2,0-0.3-0.1-0.3-0.3C45.7,6.3,45.9,6.2,46,6.2z"/>
	<path d="M56.1,13c0,0.2-0.1,0.3-0.3,0.3c-0.2,0-0.3-0.1-0.3-0.3c0-0.2,0.1-0.3,0.3-0.3C55.9,12.7,56.1,12.9,56.1,13z"/>
</g>
<image style="overflow:visible;" width="522" height="300" xlink:href="C:\Users\Nikita\Downloads\MicrosoftTeams-image.png"  transform="matrix(1 0 0 1 -266.7994 -352.7624)">
</image>
</svg>
