<?xml version="1.0" encoding="utf-8"?>
<!-- Generator: Adobe Illustrator 25.3.1, SVG Export Plug-In . SVG Version: 6.00 Build 0)  -->
<svg version="1.1" id="Layer_1" xmlns="http://www.w3.org/2000/svg" xmlns:xlink="http://www.w3.org/1999/xlink" x="0px" y="0px"
	 width="16.7px" height="16.6px" viewBox="0 0 16.7 16.6" style="enable-background:new 0 0 16.7 16.6;" xml:space="preserve">
<style type="text/css">
	.st0{fill:#7B7B7B;}
</style>
<path id="phone" class="st0" d="M-7.8,17h-0.1C-20.5,16.2-22.3,5.6-22.5,2.4c-0.1-1.1,0.7-2,1.8-2.1c0,0,0,0,0,0h3.5
	c0.5,0,1,0.3,1.2,0.8l1,2.4c0.2,0.5,0.1,1-0.3,1.4l-1.4,1.4c0.4,2.5,2.4,4.4,4.9,4.9l1.4-1.4c0.4-0.4,0.9-0.5,1.4-0.3l2.4,1
	c0.5,0.2,0.8,0.7,0.8,1.2V15C-5.9,16.1-6.7,17-7.8,17C-7.8,17-7.8,17-7.8,17z M-20.6,1.6c-0.4,0-0.6,0.3-0.6,0.6v0.1
	C-21,6.1-19.1,15-7.8,15.7c0.4,0,0.7-0.2,0.7-0.6c0,0,0,0,0,0v-3.4l-2.4-1l-1.8,1.8l-0.3,0c-5.6-0.7-6.3-6.3-6.3-6.3l0-0.3l1.8-1.8
	l-1-2.4H-20.6z"/>
<g>
	<path class="st0" d="M37.7,10c-0.1,0.7-0.3,1.4-0.8,2c-0.8,1-1.5,2.1-2.3,3.1c-0.2,0.3-0.5,0.4-0.9,0.2c-2.7-1.6-5.5-3.2-8.2-4.7
		c-0.2-0.1-0.3-0.2-0.5-0.4c-0.7-1-1.5-2-2.2-3c-0.5-0.7-0.9-1.5-0.8-2.5c0.1-1.8,1.4-3.3,3.1-3.5C26.8,1,28.5,2.1,29,3.7
		c0.4,1.3,0.2,2.4-0.6,3.5c-0.7,0.9-1.3,1.8-2,2.7c1.9,1.1,3.7,2.2,5.6,3.2c0,0,0,0,0,0c-0.1-0.1-0.2-0.2-0.2-0.3
		c-0.3-0.4-0.6-0.8-0.8-1.2c-1.2-2.2,0-4.9,2.4-5.4c1.4-0.3,2.9,0.3,3.6,1.5c0.4,0.6,0.7,1.4,0.7,2.1C37.7,9.9,37.7,10,37.7,10z
		 M34.1,14c0.7-0.9,1.4-1.8,2.1-2.8c0.6-0.8,0.6-1.8,0.2-2.7c-0.8-1.6-3-1.9-4.2-0.5c-0.8,1-0.8,2.2,0,3.3c0.5,0.6,1,1.3,1.4,1.9
		C33.7,13.5,33.9,13.8,34.1,14z M25.6,9.1C25.6,9.1,25.6,9.1,25.6,9.1c0.7-0.9,1.3-1.8,2-2.7c0.7-1,0.7-2,0.1-3
		C27,2.4,25.6,2,24.5,2.5c-1.2,0.6-2,2.3-1,3.8c0.4,0.5,0.7,1,1.1,1.5C24.9,8.3,25.3,8.7,25.6,9.1z"/>
	<path class="st0" d="M32.4,9.6c0-0.9,0.7-1.7,1.7-1.7c0.9,0,1.7,0.8,1.7,1.7c0,0.9-0.8,1.7-1.7,1.7C33.2,11.2,32.4,10.5,32.4,9.6z
		 M34.1,9c-0.3,0-0.6,0.3-0.6,0.6c0,0.3,0.2,0.6,0.6,0.6c0.3,0,0.6-0.3,0.6-0.6C34.7,9.2,34.4,9,34.1,9z"/>
	<path class="st0" d="M27.3,4.7c0,0.9-0.8,1.7-1.7,1.7c-0.9,0-1.7-0.8-1.7-1.7c0-0.9,0.8-1.7,1.7-1.7C26.5,3,27.3,3.7,27.3,4.7z
		 M26.2,4.7c0-0.3-0.3-0.6-0.6-0.6c-0.3,0-0.6,0.3-0.6,0.6c0,0.3,0.3,0.6,0.6,0.6C25.9,5.3,26.2,5,26.2,4.7z"/>
</g>
<g>
	<path class="st0" d="M0.5,4c0.1-0.2,0.2-0.4,0.3-0.6c0.3-0.4,0.6-0.8,1.1-1c0.7-0.4,1.6-0.7,2.4-0.5c1.5,0.3,2.6,1.3,2.9,2.7
		c0.2,0.7,0.1,1.3-0.2,2C6.7,7.3,6.3,8,5.8,8.6c-0.5,0.7-1,1.3-1.6,2c-0.3,0.3-0.6,0.3-0.9,0C2.5,9.6,1.6,8.5,1,7.4
		C0.6,6.8,0.4,6.2,0.3,5.5C0.3,5,0.3,4.5,0.5,4z M3.8,9.6C3.9,9.5,3.9,9.4,4,9.4c0.8-1,1.5-2,2.1-3.1c0.2-0.3,0.3-0.7,0.3-1
		c0-0.7-0.3-1.3-0.9-1.8C4.6,2.6,3.2,2.6,2.2,3.3c-0.7,0.6-1.3,1.8-0.7,3C2,7.1,2.5,7.9,3,8.6C3.3,8.9,3.5,9.2,3.8,9.6z"/>
	<path class="st0" d="M0.3,5c0-0.6,0.2-1.2,0.6-1.8c0.8-1,2.1-1.6,3.4-1.4c1.5,0.3,2.6,1.3,2.9,2.7c0.2,0.7,0.1,1.3-0.2,2
		C6.7,7.3,6.3,8,5.8,8.6c-0.5,0.7-1,1.3-1.6,2c-0.3,0.3-0.6,0.3-0.9,0C2.5,9.6,1.6,8.5,1,7.4C0.5,6.6,0.3,5.8,0.3,5z M3.8,9.6
		C3.9,9.5,3.9,9.4,4,9.4c0.8-1,1.5-2,2.1-3.1c0.2-0.3,0.3-0.7,0.3-1c0-0.7-0.3-1.3-0.9-1.8C4.6,2.6,3.2,2.6,2.2,3.3
		c-0.7,0.6-1.3,1.8-0.7,3C2,7.1,2.5,7.9,3,8.6C3.3,8.9,3.5,9.2,3.8,9.6z"/>
	<path class="st0" d="M16.4,5.3c0,0.4-0.1,0.8-0.3,1.3c-0.3,0.7-0.7,1.4-1.2,2c-0.5,0.7-1.1,1.4-1.6,2.1c-0.2,0.3-0.6,0.3-0.8,0
		c-0.9-1-1.7-2.1-2.4-3.3c-0.3-0.5-0.5-1-0.6-1.5c-0.1-0.7,0-1.3,0.2-1.9c0.5-1.1,1.3-1.7,2.5-2c1.4-0.3,2.9,0.3,3.7,1.5
		C16.2,4,16.4,4.6,16.4,5.3z M12.9,9.6C12.9,9.5,12.9,9.5,12.9,9.6c0.5-0.6,0.9-1.2,1.3-1.7C14.6,7.3,15,6.7,15.2,6
		c0.1-0.3,0.2-0.5,0.2-0.8c0-0.6-0.2-1.2-0.7-1.6c-0.8-0.9-2.2-1.1-3.3-0.4C10.6,3.8,10,5,10.6,6.3C11,7.1,11.5,7.8,12,8.5
		C12.3,8.9,12.6,9.2,12.9,9.6z"/>
	<path class="st0" d="M16.4,5.3c0,0.4-0.1,0.8-0.3,1.3c-0.3,0.7-0.7,1.4-1.2,2c-0.5,0.7-1.1,1.4-1.6,2.1c-0.2,0.3-0.6,0.3-0.8,0
		c-0.9-1-1.7-2.1-2.4-3.3c-0.3-0.5-0.5-1-0.6-1.5c-0.1-0.7,0-1.3,0.2-1.9c0.5-1.1,1.3-1.7,2.5-2c1.4-0.3,2.9,0.3,3.7,1.5
		C16.2,4,16.4,4.6,16.4,5.3z M12.9,9.6C12.9,9.5,12.9,9.5,12.9,9.6c0.5-0.6,0.9-1.2,1.3-1.7C14.6,7.3,15,6.7,15.2,6
		c0.1-0.3,0.2-0.5,0.2-0.8c0-0.6-0.2-1.2-0.7-1.6c-0.8-0.9-2.2-1.1-3.3-0.4C10.6,3.8,10,5,10.6,6.3C11,7.1,11.5,7.8,12,8.5
		C12.3,8.9,12.6,9.2,12.9,9.6z"/>
	<path class="st0" d="M8.3,13.9c-1,0-2,0-2.9,0c-0.1,0-0.2,0-0.2,0.1c-0.3,0.6-1.1,1-1.7,0.8c-0.8-0.2-1.2-0.9-1.1-1.6
		c0.1-0.7,0.6-1.2,1.2-1.3c0.7-0.1,1.4,0.2,1.6,0.9c0,0.1,0.1,0.1,0.2,0.1c2,0,4,0,6,0c0.1,0,0.2,0,0.2-0.1c0.3-0.7,1.1-1,1.7-0.8
		c0.8,0.2,1.2,0.9,1.1,1.6c-0.1,0.7-0.6,1.2-1.2,1.3c-0.7,0.1-1.4-0.2-1.6-0.9c0-0.1-0.1-0.1-0.2-0.1C10.3,13.9,9.3,13.9,8.3,13.9z
		 M3.8,12.9c-0.3,0-0.5,0.2-0.5,0.5c0,0.3,0.2,0.5,0.5,0.5c0.3,0,0.5-0.2,0.5-0.5C4.3,13.1,4.1,12.9,3.8,12.9z M13.4,13.4
		c0-0.3-0.2-0.5-0.5-0.5c-0.3,0-0.5,0.2-0.5,0.5c0,0.3,0.2,0.5,0.5,0.5C13.2,13.9,13.4,13.6,13.4,13.4z"/>
	<path class="st0" d="M8.3,13.9c-1,0-2,0-2.9,0c-0.1,0-0.2,0-0.2,0.1c-0.3,0.6-1.1,1-1.7,0.8c-0.8-0.2-1.2-0.9-1.1-1.6
		c0.1-0.7,0.6-1.2,1.2-1.3c0.7-0.1,1.4,0.2,1.6,0.9c0,0.1,0.1,0.1,0.2,0.1c2,0,4,0,6,0c0.1,0,0.2,0,0.2-0.1c0.3-0.7,1.1-1,1.7-0.8
		c0.8,0.2,1.2,0.9,1.1,1.6c-0.1,0.7-0.6,1.2-1.2,1.3c-0.7,0.1-1.4-0.2-1.6-0.9c0-0.1-0.1-0.1-0.2-0.1C10.3,13.9,9.3,13.9,8.3,13.9z
		 M3.8,12.9c-0.3,0-0.5,0.2-0.5,0.5c0,0.3,0.2,0.5,0.5,0.5c0.3,0,0.5-0.2,0.5-0.5C4.3,13.1,4.1,12.9,3.8,12.9z M13.4,13.4
		c0-0.3-0.2-0.5-0.5-0.5c-0.3,0-0.5,0.2-0.5,0.5c0,0.3,0.2,0.5,0.5,0.5C13.2,13.9,13.4,13.6,13.4,13.4z"/>
	<path class="st0" d="M5.3,5.3c0,0.8-0.7,1.5-1.5,1.5c-0.8,0-1.5-0.7-1.5-1.5c0-0.8,0.7-1.5,1.5-1.5C4.6,3.8,5.3,4.5,5.3,5.3z
		 M4.3,5.3c0-0.3-0.2-0.5-0.5-0.5C3.5,4.8,3.3,5,3.3,5.3c0,0.3,0.2,0.5,0.5,0.5C4.1,5.8,4.3,5.6,4.3,5.3z"/>
	<path class="st0" d="M5.3,5.3c0,0.8-0.7,1.5-1.5,1.5c-0.8,0-1.5-0.7-1.5-1.5c0-0.8,0.7-1.5,1.5-1.5C4.6,3.8,5.3,4.5,5.3,5.3z
		 M4.3,5.3c0-0.3-0.2-0.5-0.5-0.5C3.5,4.8,3.3,5,3.3,5.3c0,0.3,0.2,0.5,0.5,0.5C4.1,5.8,4.3,5.6,4.3,5.3z"/>
	<path class="st0" d="M11.4,5.3c0-0.8,0.7-1.5,1.5-1.5c0.8,0,1.5,0.7,1.5,1.5c0,0.8-0.7,1.5-1.5,1.5C12,6.8,11.3,6.1,11.4,5.3z
		 M12.9,5.8c0.3,0,0.5-0.2,0.5-0.5c0-0.3-0.2-0.5-0.5-0.5c-0.3,0-0.5,0.2-0.5,0.5C12.4,5.6,12.6,5.8,12.9,5.8z"/>
	<path class="st0" d="M11.4,5.3c0-0.8,0.7-1.5,1.5-1.5c0.8,0,1.5,0.7,1.5,1.5c0,0.8-0.7,1.5-1.5,1.5C12,6.8,11.3,6.1,11.4,5.3z
		 M12.9,5.8c0.3,0,0.5-0.2,0.5-0.5c0-0.3-0.2-0.5-0.5-0.5c-0.3,0-0.5,0.2-0.5,0.5C12.4,5.6,12.6,5.8,12.9,5.8z"/>
</g>
<g>
	<path class="st0" d="M51.9,0.3c0.3,0,0.5,0,0.8,0c0,0,0.1,0,0.1,0c0.8,0.1,1.5,0.3,2.1,0.8c1.6,1.1,2.3,2.7,2.1,4.6
		c-0.1,0.9-0.5,1.7-0.9,2.5C56,8.3,56,8.5,55.9,8.6c0,0,0.1,0,0.1,0c0.6,0.2,1.2,0.3,1.9,0.5c0.2,0.1,0.4,0.2,0.4,0.4
		c0.2,0.6,0.4,1.1,0.5,1.7c0.5,1.5,0.9,2.9,1.4,4.4c0,0.1,0.1,0.2,0,0.4c-0.1,0.3-0.3,0.4-0.7,0.3c-1.2-0.3-2.4-0.6-3.6-0.9
		c-0.1,0-0.2,0-0.3,0c-1,0.3-2.1,0.6-3.1,0.9c-0.2,0-0.3,0-0.5,0c-1-0.3-2.1-0.6-3.1-0.9c-0.1,0-0.2,0-0.2,0
		c-1.2,0.3-2.4,0.6-3.6,0.9c-0.4,0.1-0.6,0-0.8-0.3c0-0.1,0-0.2,0-0.3c0,0,0-0.1,0.1-0.1c0.6-2,1.3-4,1.9-6.1
		c0.1-0.2,0.2-0.4,0.5-0.4c0.5-0.1,1-0.3,1.5-0.4c0.1,0,0.3-0.1,0.4-0.1c-0.2-0.4-0.4-0.7-0.5-1c-0.4-0.9-0.7-1.9-0.6-2.9
		C47.7,2.7,49.1,1,51,0.5C51.3,0.4,51.6,0.4,51.9,0.3z M52.3,11.4c0.1-0.1,0.1-0.1,0.1-0.1c0.5-0.5,1-1.1,1.5-1.6
		c0.7-0.9,1.4-1.8,1.8-2.9C56,6,56.1,5.3,56,4.4c-0.3-1.7-1.8-3-3.5-3.1c-1.8-0.1-3.4,1.1-3.8,2.8c-0.2,0.9-0.1,1.8,0.3,2.7
		C49.7,8.6,50.9,10,52.3,11.4z M45.5,15.1c0.1,0,0.1,0,0.1,0c0.8-0.2,1.7-0.4,2.5-0.6c0.1,0,0.2-0.1,0.2-0.2
		c0.2-1.2,0.4-2.4,0.6-3.7c0.1-0.3,0.1-0.7,0.2-1c0,0-0.1,0-0.1,0c-0.6,0.2-1.2,0.3-1.8,0.5c-0.1,0-0.1,0.1-0.1,0.2
		c-0.3,0.8-0.5,1.6-0.8,2.4C46.1,13.4,45.8,14.3,45.5,15.1z M55.4,9.5C55.4,9.5,55.4,9.6,55.4,9.5c0.3,1.6,0.5,3.2,0.8,4.8
		c0,0.1,0.1,0.1,0.2,0.2c0.8,0.2,1.6,0.4,2.4,0.6c0.1,0,0.2,0,0.3,0.1c0,0,0-0.1,0-0.1c-0.5-1.6-1.1-3.3-1.6-4.9
		c0-0.1-0.1-0.1-0.1-0.1c-0.3-0.1-0.6-0.2-0.9-0.2C56.1,9.7,55.7,9.6,55.4,9.5z M52.8,15.2c0.8-0.2,1.6-0.5,2.4-0.7
		c-0.2-1.3-0.4-2.7-0.7-4c0,0,0,0-0.1,0c-0.6,0.6-1.1,1.2-1.7,1.8c0,0-0.1,0.1-0.1,0.1C52.8,13.3,52.8,14.2,52.8,15.2z M50,10.5
		c-0.2,1.3-0.4,2.7-0.7,4c0.8,0.2,1.6,0.5,2.4,0.7c0-0.1,0-0.1,0-0.2c0-0.8,0-1.7,0-2.5c0-0.1,0-0.2-0.1-0.3
		c-0.2-0.1-0.3-0.3-0.5-0.5C50.8,11.3,50.4,10.9,50,10.5z"/>
	<path class="st0" d="M49.5,5.1c0-1.5,1.2-2.7,2.8-2.7c1.5,0,2.7,1.3,2.7,2.8c0,1.5-1.2,2.7-2.8,2.7C50.8,7.8,49.5,6.6,49.5,5.1z
		 M52.3,3.3c-1,0-1.8,0.8-1.8,1.7c0,1,0.8,1.8,1.7,1.8c1,0,1.8-0.8,1.8-1.7C54,4.1,53.3,3.3,52.3,3.3z"/>
</g>
<g>
	<path class="st0" d="M81.5,2.7c-0.1-0.1-0.3-0.1-0.4,0l-1.2,0.6c0-0.1,0-0.1,0-0.2c0-1.7-1.4-3.1-3.1-3.1s-3.1,1.4-3.1,3.1
		c0,0.1,0,0.1,0,0.2l-1.8-0.6c-0.1,0-0.2,0-0.3,0L68,4.5c-0.2,0.1-0.2,0.2-0.2,0.4v10.9c0,0.2,0.1,0.3,0.2,0.4
		c0.1,0.1,0.3,0.1,0.4,0l3.4-1.5l4.8,1.9c0.1,0,0.1,0,0.2,0c0.1,0,0.1,0,0.2,0l4.6-2.2c0.2-0.1,0.3-0.2,0.3-0.4L81.7,3.1
		C81.7,2.9,81.6,2.8,81.5,2.7z M76.8,0.9c1.2,0,2.2,1,2.2,2.2c0,0.8-1.3,2.5-2.2,3.6c-1-1.1-2.2-2.8-2.2-3.6
		C74.5,1.9,75.5,0.9,76.8,0.9z M76.3,7.6v8l-4.2-1.7v-1.7c0.5-0.5,1.8-2,1.8-3c0-1.1-0.8-2-1.8-2.2V3.7L74,4.4
		C74.6,5.7,75.9,7.1,76.3,7.6z M71.7,7.8c0.7,0,1.3,0.6,1.3,1.3c0,0.5-0.7,1.4-1.3,2.1c-0.6-0.7-1.3-1.7-1.3-2.1
		C70.4,8.4,71,7.8,71.7,7.8z M68.6,5.1l2.6-1.3V7c-1,0.2-1.8,1.1-1.8,2.2c0,1,1.3,2.5,1.8,3v1.8l-2.6,1.1V5.1z M77.2,15.5V7.6
		c0.4-0.4,1.6-1.8,2.3-3.1l1.3-0.7l0.1,9.9L77.2,15.5z"/>
	<path class="st0" d="M71.7,9.7c0.3,0,0.5-0.2,0.5-0.5c0-0.3-0.2-0.5-0.5-0.5c-0.3,0-0.5,0.2-0.5,0.5C71.2,9.5,71.4,9.7,71.7,9.7z"
		/>
	<path class="st0" d="M78.1,3.1c0-0.7-0.6-1.4-1.4-1.4c-0.7,0-1.4,0.6-1.4,1.4s0.6,1.4,1.4,1.4C77.5,4.4,78.1,3.8,78.1,3.1z
		 M76.1,3.1c0-0.4,0.3-0.6,0.6-0.6s0.6,0.3,0.6,0.6s-0.3,0.6-0.6,0.6S76.1,3.4,76.1,3.1z"/>
</g>
<g>
	<path d="M88.3,2.9c0.1-0.2,0.1-0.5,0.2-0.7c0.4-1.2,1.6-1.9,2.8-1.8c1.2,0.1,2.3,0.9,2.6,2.1c0.2,0.7,0.1,1.4-0.2,2.1
		c-0.6,1.3-1.3,2.6-1.9,3.9c0,0.1,0,0.1-0.1,0.2c0.1,0,0.1,0,0.2,0c0.7,0,1.3,0,2,0c1.1,0,2,0.7,2.1,1.8c0.2,1.2-0.8,2.4-2,2.4
		c-1,0-2,0-3.1,0c-0.6,0-1.1,0.3-1.4,0.8c-0.4,0.9,0.2,2,1.1,2.1c0.2,0,0.3,0,0.5,0c3.1,0,6.2,0,9.3,0c0.1,0,0.1,0,0.2,0
		c0-0.1,0-0.1-0.1-0.2c-0.2-0.4-0.4-0.8-0.6-1.1c-0.1-0.1-0.1-0.3,0-0.4c0.1-0.1,0.2-0.1,0.3-0.1c0.1,0,0.2,0.1,0.2,0.2
		c0.2,0.3,0.3,0.7,0.5,1c0,0,0,0.1,0.1,0.2c0-0.1,0.1-0.1,0.1-0.2c0.8-1.7,1.7-3.4,2.5-5c0.9-1.8-0.3-4-2.3-4.2
		c-1.1-0.1-2.1,0.3-2.7,1.2c-0.6,0.9-0.7,1.9-0.2,2.9c0.3,0.5,0.5,1.1,0.8,1.6c0.1,0.2,0.1,0.4-0.1,0.5c-0.2,0.1-0.3,0-0.4-0.2
		c-0.1-0.2-0.2-0.4-0.3-0.7c-0.2-0.5-0.5-0.9-0.6-1.4c-0.6-1.6,0.1-3.6,1.7-4.4c1.9-0.9,4-0.2,4.9,1.7c0.4,1,0.4,2,0,2.9
		c-0.9,1.9-1.9,3.8-2.9,5.8c-0.1,0.2-0.2,0.3-0.4,0.3c-3.4,0-6.8,0-10.1,0c-1.1,0-2-0.7-2.2-1.8c-0.2-1.1,0.6-2.2,1.7-2.4
		c0.2,0,0.3,0,0.5,0c1,0,1.9,0,2.9,0c0.7,0,1.3-0.4,1.5-1.1c0.3-0.8-0.4-1.8-1.3-1.8c-0.8,0-1.6,0-2.4,0c-0.2,0-0.4,0-0.5,0
		c-0.1,0-0.2-0.1-0.3-0.2c-0.2-0.4-0.4-0.7-0.6-1.1c-0.1-0.2,0-0.4,0.1-0.5c0.2-0.1,0.3,0,0.4,0.2c0.1,0.2,0.2,0.4,0.3,0.5
		C91.2,8,91.2,8,91.2,8c0.6-1.3,1.3-2.6,1.9-3.8c0.4-0.8,0.3-1.7-0.3-2.4c-0.6-0.7-1.4-1-2.3-0.7c-0.9,0.3-1.4,0.9-1.6,1.8
		c-0.1,0.5,0,0.9,0.2,1.3c0.2,0.3,0.3,0.6,0.5,1c0,0.1,0.1,0.2,0.1,0.2c0,0.1-0.1,0.2-0.2,0.3c-0.1,0-0.3,0-0.3-0.1
		C89.1,5.4,89,5.3,89,5.1c-0.2-0.4-0.4-0.9-0.6-1.3c0-0.1-0.1-0.2-0.1-0.4C88.3,3.3,88.3,3.1,88.3,2.9z"/>
	<path d="M101.2,10.9c-1.2,0-2.1-1-2.1-2.1c0-1.2,1-2.1,2.1-2.1c1.2,0,2.1,1,2.1,2.1C103.3,10,102.4,10.9,101.2,10.9z M101.2,10.2
		c0.8,0,1.4-0.6,1.5-1.4c0-0.8-0.7-1.5-1.5-1.5c-0.8,0-1.4,0.6-1.5,1.4C99.7,9.6,100.4,10.2,101.2,10.2z"/>
	<path d="M91.2,4.9c-0.9,0-1.7-0.8-1.7-1.7c0-0.9,0.8-1.7,1.7-1.7c0.9,0,1.7,0.8,1.7,1.7C92.9,4.1,92.1,4.9,91.2,4.9z M91.1,4.2
		c0.6,0,1.1-0.5,1.1-1c0-0.6-0.5-1.1-1.1-1.1c-0.6,0-1.1,0.5-1.1,1.1C90.1,3.7,90.6,4.2,91.1,4.2z"/>
	<path d="M90,6.2c0.2,0,0.3,0.1,0.3,0.3c0,0.2-0.1,0.3-0.3,0.3c-0.2,0-0.3-0.1-0.3-0.3C89.7,6.3,89.8,6.2,90,6.2z"/>
	<path d="M100,13c0,0.2-0.1,0.3-0.3,0.3c-0.2,0-0.3-0.1-0.3-0.3c0-0.2,0.1-0.3,0.3-0.3C99.9,12.7,100,12.9,100,13z"/>
</g>
<image style="overflow:visible;" width="522" height="300" xlink:href="C:\Users\Nikita\Downloads\MicrosoftTeams-image.png"  transform="matrix(1 0 0 1 -222.8391 -352.7624)">
</image>
</svg>
