<svg xmlns="http://www.w3.org/2000/svg" width="16.466" height="16.444" viewBox="0 0 16.466 16.444">
  <g id="key" transform="translate(-2.25 -2.25)">
    <path id="Path_1" data-name="Path 1" d="M13.408,2.25A5.285,5.285,0,0,0,8.123,7.535a5.209,5.209,0,0,0,.229,1.533l-6.1,6.1v3.524H5.774l6.1-6.1A5.285,5.285,0,0,0,18.694,7.97a5.15,5.15,0,0,0-.969-3.524,5.285,5.285,0,0,0-4.317-2.2Zm0,9.4a4.111,4.111,0,0,1-1.175-.176l-.675-.206-.5.5L9.191,13.631l-.828-.811-.828.828.81.81-.934.934-.81-.81-.828.828.81.81-1.3,1.3H3.425V15.657L9.18,9.884l.5-.5-.17-.558a4.193,4.193,0,0,1,2-4.957,4.111,4.111,0,0,1,6.014,3.524,3.929,3.929,0,0,1-.64,2.349,4.111,4.111,0,0,1-3.471,1.9Z" transform="translate(0 0)" fill="#7b7b7b"/>
    <path id="Path_2" data-name="Path 2" d="M24.849,10.175A1.175,1.175,0,1,1,23.675,9,1.175,1.175,0,0,1,24.849,10.175Z" transform="translate(-9.679 -3.226)" fill="#7b7b7b"/>
  </g>
</svg>
