<?xml version="1.0" encoding="utf-8"?>
<!-- Generator: Adobe Illustrator 24.3.0, SVG Export Plug-In . SVG Version: 6.00 Build 0)  -->
<svg version="1.1" id="Layer_1" xmlns="http://www.w3.org/2000/svg" xmlns:xlink="http://www.w3.org/1999/xlink" x="0px" y="0px"
	 width="20.4px" height="20.4px" viewBox="0 0 20.4 20.4" style="enable-background:new 0 0 20.4 20.4;" xml:space="preserve">
<style type="text/css">
	.st0{fill:#5A5A5A;}
</style>
<g>
	<path class="st0" d="M17,20.4c-4.1,0-8.3,0-12.4,0c0,0,0,0,0,0c-1-0.3-1.5-0.9-1.5-2C3,14.3,3,10.2,3,6c0-1.4,0-2.8,0-4.2
		c0-0.6,0.2-1.1,0.8-1.5C4,0.2,4.3,0.1,4.5,0c2.9,0,5.9,0,8.8,0c0,1.5,0,3,0,4.5c0,0.5,0.2,0.7,0.7,0.7c1.4,0,2.8,0,4.2,0
		c0.1,0,0.1,0,0.2,0c0,0.1,0,0.2,0,0.3c0,2.2,0,4.4,0,6.6c0,2.2,0,4.3,0,6.5c0,0.8-0.5,1.5-1.2,1.7C17.2,20.3,17.1,20.4,17,20.4z
		 M7.6,12.7C7.6,12.7,7.6,12.7,7.6,12.7c-0.2,0-0.5,0-0.7,0c-0.8,0-1.5,0.7-1.5,1.6c0,0.7,0.4,1.4,1.1,1.6c0.7,0.2,1.5-0.1,1.9-0.7
		c0.2-0.4,0.4-0.8,0.7-1.1c0-0.1,0.1-0.1,0.2-0.1c1,0,1.9,0,2.9,0c0.1,0,0.2,0.1,0.2,0.1c0.2,0.4,0.4,0.8,0.7,1.1
		c0.4,0.7,1.2,1,2,0.7c0.7-0.3,1.2-1,1-1.8c-0.1-0.8-0.8-1.4-1.6-1.4c-0.4,0-0.9,0-1.3,0c-0.1,0-0.2,0-0.2-0.1
		c-0.5-0.8-0.9-1.6-1.4-2.4c-0.1-0.1-0.1-0.2,0-0.3c0.2-0.4,0.4-0.7,0.6-1.1c0.4-0.6,0.2-1.4-0.2-1.9c-0.6-0.6-1.5-0.7-2.1-0.2
		C9.2,7.1,8.9,8,9.3,8.7C9.5,9.1,9.8,9.5,10,9.9c0,0.1,0,0.2,0,0.2c-0.5,0.8-1,1.7-1.5,2.5c0,0.1-0.1,0.1-0.2,0.1
		C8.1,12.8,7.9,12.7,7.6,12.7z"/>
	<path class="st0" d="M18.1,4c-1.2,0-2.4,0-3.6,0c0-1.2,0-2.4,0-3.6C15.7,1.6,16.9,2.8,18.1,4z"/>
	<path class="st0" d="M10.8,11.2c0.3,0.5,0.6,1,0.9,1.5c-0.6,0-1.2,0-1.8,0C10.2,12.2,10.4,11.7,10.8,11.2z"/>
	<path class="st0" d="M10.8,8.8c-0.1-0.2-0.3-0.4-0.4-0.7c-0.1-0.2-0.1-0.4,0.1-0.5c0.1-0.1,0.4-0.1,0.5,0c0.2,0.1,0.2,0.3,0.1,0.5
		C11,8.4,10.9,8.6,10.8,8.8z"/>
	<path class="st0" d="M7.8,13.9c-0.2,0.3-0.3,0.5-0.4,0.7c-0.1,0.2-0.3,0.2-0.5,0.1c-0.2-0.1-0.3-0.3-0.2-0.4c0-0.2,0.2-0.4,0.4-0.4
		C7.2,13.9,7.5,13.9,7.8,13.9z"/>
	<path class="st0" d="M13.7,13.9c0.3,0,0.5,0,0.8,0c0.2,0,0.4,0.2,0.4,0.3c0,0.2-0.1,0.4-0.3,0.5c-0.2,0.1-0.4,0-0.5-0.1
		C14,14.4,13.9,14.2,13.7,13.9z"/>
</g>
</svg>
