<svg xmlns="http://www.w3.org/2000/svg" width="18.863" height="15.263" viewBox="0 0 18.863 15.263">
  <g id="construct-outline" transform="translate(-0.537 -3.881)">
    <path id="Path_2065" data-name="Path 2065" d="M19.779,8.905a1,1,0,0,1-1.4,0L17.55,8.08a1,1,0,0,1,0-1.4L19.416,4.81a.031.031,0,0,0-.009-.051,3.511,3.511,0,0,0-3.757.731,3.6,3.6,0,0,0-.655,3.594.99.99,0,0,1-.281,1L8.37,15.974a1.495,1.495,0,1,0,2.111,2.11l5.946-6.355a.99.99,0,0,1,.982-.282,3.643,3.643,0,0,0,3.559-.658A3.581,3.581,0,0,0,21.7,7.037a.031.031,0,0,0-.05-.008Z" transform="translate(-3.228 -0.001)" fill="none" stroke="#7b7b7b" stroke-linecap="round" stroke-miterlimit="10" stroke-width="1.1"/>
    <path id="Path_2066" data-name="Path 2066" d="M14.526,17.38c-.641-.623-.935-.913-1.137-1.111a.669.669,0,0,1-.122-.783.761.761,0,0,1,.128-.169l.575-.561a.684.684,0,0,1,.207-.142.664.664,0,0,1,.733.133l1.225,1.193" transform="translate(-5.773 -4.812)" fill="none" stroke="#7b7b7b" stroke-linecap="round" stroke-linejoin="round" stroke-width="1.1"/>
    <path id="Path_2067" data-name="Path 2067" d="M20.881,20.482c1.5,1.4,3.323,3.054,4.034,3.646a.493.493,0,0,1,.034.731l-1.224,1.224a.513.513,0,0,1-.744-.028c-.606-.7-2.24-2.461-3.64-3.924" transform="translate(-8.715 -7.647)" fill="none" stroke="#7b7b7b" stroke-linecap="round" stroke-linejoin="round" stroke-width="1.1"/>
    <path id="Path_2068" data-name="Path 2068" d="M1.174,9.249,2.253,8.195a.173.173,0,0,1,.125-.05.178.178,0,0,1,.125.05h0a.361.361,0,0,0,.3.1.678.678,0,0,0,.388-.151c.22-.213-.034-.632.159-.9a7.591,7.591,0,0,1,.725-.829,7.958,7.958,0,0,1,2.563-1.63A3.935,3.935,0,0,1,8.117,4.5a2.707,2.707,0,0,1,1.7.575,3.284,3.284,0,0,1,.377.427,2.894,2.894,0,0,0-.338-.1,2.524,2.524,0,0,0-.733-.046,2.932,2.932,0,0,0-1.394.513,2.068,2.068,0,0,0-.763,1.64c-.025.518.1.81,1.324,2.035a.242.242,0,0,1-.013.336l-.668.66a.252.252,0,0,1-.35,0,9.692,9.692,0,0,0-1.65-1.4,1.7,1.7,0,0,0-.671-.251,1.131,1.131,0,0,0-.67.142.418.418,0,0,0-.1.074.518.518,0,0,0,.016.736l.063.059a.17.17,0,0,1,0,.244L3.169,11.2a.173.173,0,0,1-.125.051.178.178,0,0,1-.125-.05l-1.745-1.7a.179.179,0,0,1,0-.246Z" transform="translate(0)" fill="none" stroke="#7b7b7b" stroke-linecap="round" stroke-linejoin="round" stroke-width="1.1"/>
  </g>
</svg>
