<svg xmlns="http://www.w3.org/2000/svg" width="25" height="24.999" viewBox="0 0 25 24.999">
  <path id="sidenar_icon_5" d="M25.368,17.125a7.767,7.767,0,0,0,.064-1.25c0-.438-.064-.812-.064-1.25l2.685-2.062a.573.573,0,0,0,.128-.812L25.623,7.437a.623.623,0,0,0-.768-.25l-3.2,1.25a9.32,9.32,0,0,0-2.173-1.25l-.448-3.312a.686.686,0,0,0-.639-.5H13.286a.686.686,0,0,0-.639.5l-.511,3.312a10.827,10.827,0,0,0-2.173,1.25l-3.2-1.25A.6.6,0,0,0,6,7.437L3.441,11.75a.753.753,0,0,0,.128.812l2.749,2.062c0,.438-.064.812-.064,1.25s.064.812.064,1.25L3.633,19.187A.573.573,0,0,0,3.5,20l2.557,4.313a.623.623,0,0,0,.768.25l3.2-1.25a9.32,9.32,0,0,0,2.173,1.25l.511,3.312a.619.619,0,0,0,.639.5h5.114a.686.686,0,0,0,.639-.5l.512-3.312a10.821,10.821,0,0,0,2.173-1.25l3.2,1.25a.6.6,0,0,0,.768-.25L28.308,20a.751.751,0,0,0-.128-.812l-2.813-2.062ZM15.843,20.25a4.376,4.376,0,1,1,4.475-4.375A4.4,4.4,0,0,1,15.843,20.25Z" transform="translate(-3.374 -3.375)" fill="#217de9"/>
</svg>
