<svg xmlns="http://www.w3.org/2000/svg" width="25" height="25" viewBox="0 0 25 25">
  <path id="sidenar_icon_3" d="M21.247,18.681a8.945,8.945,0,0,0-1.221-3.592,3.477,3.477,0,0,0-2.574-1.653,6.691,6.691,0,0,1-9.906,0,3.473,3.473,0,0,0-2.574,1.653,8.965,8.965,0,0,0-1.221,3.592,10.694,10.694,0,0,0,3.781,3.313A10.44,10.44,0,0,0,12.5,23.215a10.44,10.44,0,0,0,4.967-1.221A10.694,10.694,0,0,0,21.247,18.681Zm-3.39-9.751a5.161,5.161,0,0,0-1.569-3.787A5.164,5.164,0,0,0,12.5,3.572,5.158,5.158,0,0,0,8.712,5.141,5.163,5.163,0,0,0,7.143,8.928a5.163,5.163,0,0,0,1.569,3.787A5.158,5.158,0,0,0,12.5,14.285a5.165,5.165,0,0,0,3.788-1.569,5.16,5.16,0,0,0,1.569-3.787ZM25,12.5a12.173,12.173,0,0,1-.99,4.848,12.719,12.719,0,0,1-2.658,3.99,12.4,12.4,0,0,1-3.983,2.671,12.43,12.43,0,0,1-9.724,0A12.28,12.28,0,0,1,.99,17.355a12.4,12.4,0,0,1,0-9.71A12.28,12.28,0,0,1,7.645.99a12.4,12.4,0,0,1,9.71,0A12.28,12.28,0,0,1,24.01,7.645,12.222,12.222,0,0,1,25,12.5Z" fill="#217de9"/>
</svg>
