<svg xmlns="http://www.w3.org/2000/svg" width="25" height="25" viewBox="0 0 25 25">
  <path id="sidenar_icon_1" d="M5.889,18.389h8.333A1.389,1.389,0,0,0,15.611,17V5.889A1.389,1.389,0,0,0,14.222,4.5H5.889A1.389,1.389,0,0,0,4.5,5.889V17A1.389,1.389,0,0,0,5.889,18.389ZM4.5,28.111A1.389,1.389,0,0,0,5.889,29.5h8.333a1.389,1.389,0,0,0,1.389-1.389V22.556a1.389,1.389,0,0,0-1.389-1.389H5.889A1.389,1.389,0,0,0,4.5,22.556Zm13.889,0A1.389,1.389,0,0,0,19.778,29.5h8.333A1.389,1.389,0,0,0,29.5,28.111V18.389A1.389,1.389,0,0,0,28.111,17H19.778a1.389,1.389,0,0,0-1.389,1.389Zm1.389-13.889h8.333A1.389,1.389,0,0,0,29.5,12.833V5.889A1.389,1.389,0,0,0,28.111,4.5H19.778a1.389,1.389,0,0,0-1.389,1.389v6.944A1.389,1.389,0,0,0,19.778,14.222Z" transform="translate(-4.5 -4.5)" fill="#217de9"/>
</svg>
