<svg xmlns="http://www.w3.org/2000/svg" width="44.089" height="41.333" viewBox="0 0 44.089 41.333">
  <g id="image-gallery-line" transform="translate(-2 -2)">
    <path id="Path_2020" data-name="Path 2020" d="M43.5,10H4.59A2.59,2.59,0,0,0,2,12.59V37.721a2.59,2.59,0,0,0,2.59,2.59H43.5a2.59,2.59,0,0,0,2.59-2.59V12.59A2.59,2.59,0,0,0,43.5,10Zm-.165,27.556H4.756v-24.8H43.333Z" transform="translate(0 3.022)" fill="#7b7b7b"/>
    <path id="Path_2021" data-name="Path 2021" d="M9.693,21.717A4.133,4.133,0,1,0,5.56,17.583,4.133,4.133,0,0,0,9.693,21.717Zm0-6.338a2.2,2.2,0,1,1-2.149,2.2A2.2,2.2,0,0,1,9.693,15.379Z" transform="translate(1.345 4.326)" fill="#7b7b7b"/>
    <path id="Path_2022" data-name="Path 2022" d="M8.648,31.478l8.267-8.267L21.3,27.592l-3.885,3.885h2.756L30.445,21.2,39.1,29.783V27.028l-7.991-7.95a.978.978,0,0,0-1.378,0l-7.109,7.109-5.056-5.043a.978.978,0,0,0-1.378,0L5.92,31.478Z" transform="translate(1.481 6.345)" fill="#7b7b7b"/>
    <path id="Path_2023" data-name="Path 2023" d="M39.207,3.378A1.378,1.378,0,0,0,37.829,2H7.518A1.378,1.378,0,0,0,6.14,3.378V4.756H39.207Z" transform="translate(1.564)" fill="#7b7b7b"/>
    <path id="Path_2024" data-name="Path 2024" d="M42.7,7.378A1.378,1.378,0,0,0,41.32,6H5.5A1.378,1.378,0,0,0,4.12,7.378V8.756H42.7Z" transform="translate(0.801 1.511)" fill="#7b7b7b"/>
  </g>
</svg>
