<?xml version="1.0" encoding="utf-8"?>
<!-- Generator: Adobe Illustrator 25.3.1, SVG Export Plug-In . SVG Version: 6.00 Build 0)  -->
<svg version="1.1" id="Layer_1" xmlns="http://www.w3.org/2000/svg" xmlns:xlink="http://www.w3.org/1999/xlink" x="0px" y="0px"
	 width="16.7px" height="16.6px" viewBox="0 0 16.7 16.6" style="enable-background:new 0 0 16.7 16.6;" xml:space="preserve">
<style type="text/css">
	.st0{fill:#7B7B7B;}
</style>
<path id="phone" class="st0" d="M-29.3,17h-0.1C-42,16.2-43.8,5.6-44,2.4c-0.1-1.1,0.7-2,1.8-2.1c0,0,0,0,0,0h3.5
	c0.5,0,1,0.3,1.2,0.8l1,2.4c0.2,0.5,0.1,1-0.3,1.4l-1.4,1.4c0.4,2.5,2.4,4.4,4.9,4.9l1.4-1.4c0.4-0.4,0.9-0.5,1.4-0.3l2.4,1
	c0.5,0.2,0.8,0.7,0.8,1.2V15C-27.4,16.1-28.2,17-29.3,17C-29.3,17-29.3,17-29.3,17z M-42.1,1.6c-0.4,0-0.6,0.3-0.6,0.6v0.1
	c0.3,3.8,2.2,12.8,13.4,13.4c0.4,0,0.7-0.2,0.7-0.6c0,0,0,0,0,0v-3.4l-2.4-1l-1.8,1.8l-0.3,0c-5.6-0.7-6.3-6.3-6.3-6.3l0-0.3
	l1.8-1.8l-1-2.4H-42.1z"/>
<g>
	<path class="st0" d="M-21,4c0.1-0.2,0.2-0.4,0.3-0.6c0.3-0.4,0.6-0.8,1.1-1c0.7-0.4,1.6-0.7,2.4-0.5c1.5,0.3,2.6,1.3,2.9,2.7
		c0.2,0.7,0.1,1.3-0.2,2c-0.3,0.7-0.7,1.4-1.2,2.1c-0.5,0.7-1,1.3-1.6,2c-0.3,0.3-0.6,0.3-0.9,0c-0.9-1-1.7-2.1-2.4-3.3
		c-0.3-0.6-0.6-1.2-0.7-1.8C-21.2,5-21.2,4.5-21,4z M-17.7,9.6c0.1-0.1,0.1-0.1,0.2-0.2c0.8-1,1.5-2,2.1-3.1c0.2-0.3,0.3-0.7,0.3-1
		c0-0.7-0.3-1.3-0.9-1.8c-0.9-0.8-2.2-0.8-3.2-0.1c-0.7,0.6-1.3,1.8-0.7,3c0.4,0.8,0.9,1.6,1.5,2.3C-18.2,8.9-18,9.2-17.7,9.6z"/>
	<path class="st0" d="M-21.2,5c0-0.6,0.2-1.2,0.6-1.8c0.8-1,2.1-1.6,3.4-1.4c1.5,0.3,2.6,1.3,2.9,2.7c0.2,0.7,0.1,1.3-0.2,2
		c-0.3,0.7-0.7,1.4-1.2,2.1c-0.5,0.7-1,1.3-1.6,2c-0.3,0.3-0.6,0.3-0.9,0c-0.9-1-1.7-2.1-2.4-3.3C-21,6.6-21.2,5.8-21.2,5z
		 M-17.7,9.6c0.1-0.1,0.1-0.1,0.2-0.2c0.8-1,1.5-2,2.1-3.1c0.2-0.3,0.3-0.7,0.3-1c0-0.7-0.3-1.3-0.9-1.8c-0.9-0.8-2.2-0.8-3.2-0.1
		c-0.7,0.6-1.3,1.8-0.7,3c0.4,0.8,0.9,1.6,1.5,2.3C-18.2,8.9-18,9.2-17.7,9.6z"/>
	<path class="st0" d="M-5.1,5.3c0,0.4-0.1,0.8-0.3,1.3c-0.3,0.7-0.7,1.4-1.2,2c-0.5,0.7-1.1,1.4-1.6,2.1c-0.2,0.3-0.6,0.3-0.8,0
		c-0.9-1-1.7-2.1-2.4-3.3c-0.3-0.5-0.5-1-0.6-1.5c-0.1-0.7,0-1.3,0.2-1.9c0.5-1.1,1.3-1.7,2.5-2C-8,1.5-6.4,2.2-5.7,3.4
		C-5.3,4-5.1,4.6-5.1,5.3z M-8.6,9.6C-8.6,9.5-8.6,9.5-8.6,9.6C-8.2,9-7.7,8.4-7.4,7.9C-6.9,7.3-6.5,6.7-6.3,6
		c0.1-0.3,0.2-0.5,0.2-0.8c0-0.6-0.2-1.2-0.7-1.6C-7.6,2.7-9,2.5-10.1,3.2c-0.8,0.6-1.5,1.8-0.8,3.1c0.4,0.8,0.9,1.5,1.4,2.2
		C-9.2,8.9-8.9,9.2-8.6,9.6z"/>
	<path class="st0" d="M-5.1,5.3c0,0.4-0.1,0.8-0.3,1.3c-0.3,0.7-0.7,1.4-1.2,2c-0.5,0.7-1.1,1.4-1.6,2.1c-0.2,0.3-0.6,0.3-0.8,0
		c-0.9-1-1.7-2.1-2.4-3.3c-0.3-0.5-0.5-1-0.6-1.5c-0.1-0.7,0-1.3,0.2-1.9c0.5-1.1,1.3-1.7,2.5-2C-8,1.5-6.4,2.2-5.7,3.4
		C-5.3,4-5.1,4.6-5.1,5.3z M-8.6,9.6C-8.6,9.5-8.6,9.5-8.6,9.6C-8.2,9-7.7,8.4-7.4,7.9C-6.9,7.3-6.5,6.7-6.3,6
		c0.1-0.3,0.2-0.5,0.2-0.8c0-0.6-0.2-1.2-0.7-1.6C-7.6,2.7-9,2.5-10.1,3.2c-0.8,0.6-1.5,1.8-0.8,3.1c0.4,0.8,0.9,1.5,1.4,2.2
		C-9.2,8.9-8.9,9.2-8.6,9.6z"/>
	<path class="st0" d="M-13.2,13.9c-1,0-2,0-2.9,0c-0.1,0-0.2,0-0.2,0.1c-0.3,0.6-1.1,1-1.7,0.8c-0.8-0.2-1.2-0.9-1.1-1.6
		c0.1-0.7,0.6-1.2,1.2-1.3c0.7-0.1,1.4,0.2,1.6,0.9c0,0.1,0.1,0.1,0.2,0.1c2,0,4,0,6,0c0.1,0,0.2,0,0.2-0.1c0.3-0.7,1.1-1,1.7-0.8
		c0.8,0.2,1.2,0.9,1.1,1.6c-0.1,0.7-0.6,1.2-1.2,1.3C-9.1,15-9.7,14.6-10,14c0-0.1-0.1-0.1-0.2-0.1C-11.2,13.9-12.2,13.9-13.2,13.9z
		 M-17.7,12.9c-0.3,0-0.5,0.2-0.5,0.5c0,0.3,0.2,0.5,0.5,0.5c0.3,0,0.5-0.2,0.5-0.5C-17.2,13.1-17.4,12.9-17.7,12.9z M-8.1,13.4
		c0-0.3-0.2-0.5-0.5-0.5c-0.3,0-0.5,0.2-0.5,0.5c0,0.3,0.2,0.5,0.5,0.5C-8.4,13.9-8.1,13.6-8.1,13.4z"/>
	<path class="st0" d="M-13.2,13.9c-1,0-2,0-2.9,0c-0.1,0-0.2,0-0.2,0.1c-0.3,0.6-1.1,1-1.7,0.8c-0.8-0.2-1.2-0.9-1.1-1.6
		c0.1-0.7,0.6-1.2,1.2-1.3c0.7-0.1,1.4,0.2,1.6,0.9c0,0.1,0.1,0.1,0.2,0.1c2,0,4,0,6,0c0.1,0,0.2,0,0.2-0.1c0.3-0.7,1.1-1,1.7-0.8
		c0.8,0.2,1.2,0.9,1.1,1.6c-0.1,0.7-0.6,1.2-1.2,1.3C-9.1,15-9.7,14.6-10,14c0-0.1-0.1-0.1-0.2-0.1C-11.2,13.9-12.2,13.9-13.2,13.9z
		 M-17.7,12.9c-0.3,0-0.5,0.2-0.5,0.5c0,0.3,0.2,0.5,0.5,0.5c0.3,0,0.5-0.2,0.5-0.5C-17.2,13.1-17.4,12.9-17.7,12.9z M-8.1,13.4
		c0-0.3-0.2-0.5-0.5-0.5c-0.3,0-0.5,0.2-0.5,0.5c0,0.3,0.2,0.5,0.5,0.5C-8.4,13.9-8.1,13.6-8.1,13.4z"/>
	<path class="st0" d="M-16.2,5.3c0,0.8-0.7,1.5-1.5,1.5c-0.8,0-1.5-0.7-1.5-1.5c0-0.8,0.7-1.5,1.5-1.5C-16.9,3.8-16.2,4.5-16.2,5.3z
		 M-17.2,5.3c0-0.3-0.2-0.5-0.5-0.5c-0.3,0-0.5,0.2-0.5,0.5c0,0.3,0.2,0.5,0.5,0.5C-17.4,5.8-17.2,5.6-17.2,5.3z"/>
	<path class="st0" d="M-16.2,5.3c0,0.8-0.7,1.5-1.5,1.5c-0.8,0-1.5-0.7-1.5-1.5c0-0.8,0.7-1.5,1.5-1.5C-16.9,3.8-16.2,4.5-16.2,5.3z
		 M-17.2,5.3c0-0.3-0.2-0.5-0.5-0.5c-0.3,0-0.5,0.2-0.5,0.5c0,0.3,0.2,0.5,0.5,0.5C-17.4,5.8-17.2,5.6-17.2,5.3z"/>
	<path class="st0" d="M-10.1,5.3c0-0.8,0.7-1.5,1.5-1.5c0.8,0,1.5,0.7,1.5,1.5c0,0.8-0.7,1.5-1.5,1.5C-9.5,6.8-10.2,6.1-10.1,5.3z
		 M-8.6,5.8c0.3,0,0.5-0.2,0.5-0.5c0-0.3-0.2-0.5-0.5-0.5c-0.3,0-0.5,0.2-0.5,0.5C-9.1,5.6-8.9,5.8-8.6,5.8z"/>
	<path class="st0" d="M-10.1,5.3c0-0.8,0.7-1.5,1.5-1.5c0.8,0,1.5,0.7,1.5,1.5c0,0.8-0.7,1.5-1.5,1.5C-9.5,6.8-10.2,6.1-10.1,5.3z
		 M-8.6,5.8c0.3,0,0.5-0.2,0.5-0.5c0-0.3-0.2-0.5-0.5-0.5c-0.3,0-0.5,0.2-0.5,0.5C-9.1,5.6-8.9,5.8-8.6,5.8z"/>
</g>
<g>
	<path class="st0" d="M30.4,0.3c0.3,0,0.5,0,0.8,0c0,0,0.1,0,0.1,0c0.8,0.1,1.5,0.3,2.1,0.8c1.6,1.1,2.3,2.7,2.1,4.6
		c-0.1,0.9-0.5,1.7-0.9,2.5c-0.1,0.1-0.1,0.2-0.2,0.4c0,0,0.1,0,0.1,0c0.6,0.2,1.2,0.3,1.9,0.5c0.2,0.1,0.4,0.2,0.4,0.4
		c0.2,0.6,0.4,1.1,0.5,1.7c0.5,1.5,0.9,2.9,1.4,4.4c0,0.1,0.1,0.2,0,0.4c-0.1,0.3-0.3,0.4-0.7,0.3c-1.2-0.3-2.4-0.6-3.6-0.9
		c-0.1,0-0.2,0-0.3,0c-1,0.3-2.1,0.6-3.1,0.9c-0.2,0-0.3,0-0.5,0c-1-0.3-2.1-0.6-3.1-0.9c-0.1,0-0.2,0-0.2,0
		c-1.2,0.3-2.4,0.6-3.6,0.9c-0.4,0.1-0.6,0-0.8-0.3c0-0.1,0-0.2,0-0.3c0,0,0-0.1,0.1-0.1c0.6-2,1.3-4,1.9-6.1
		c0.1-0.2,0.2-0.4,0.5-0.4c0.5-0.1,1-0.3,1.5-0.4c0.1,0,0.3-0.1,0.4-0.1c-0.2-0.4-0.4-0.7-0.5-1c-0.4-0.9-0.7-1.9-0.6-2.9
		c0.2-1.9,1.6-3.6,3.4-4.1C29.8,0.4,30.1,0.4,30.4,0.3z M30.8,11.4c0.1-0.1,0.1-0.1,0.1-0.1c0.5-0.5,1-1.1,1.5-1.6
		c0.7-0.9,1.4-1.8,1.8-2.9c0.3-0.7,0.4-1.5,0.3-2.3c-0.3-1.7-1.8-3-3.5-3.1c-1.8-0.1-3.4,1.1-3.8,2.8c-0.2,0.9-0.1,1.8,0.3,2.7
		C28.2,8.6,29.4,10,30.8,11.4z M24,15.1c0.1,0,0.1,0,0.1,0c0.8-0.2,1.7-0.4,2.5-0.6c0.1,0,0.2-0.1,0.2-0.2c0.2-1.2,0.4-2.4,0.6-3.7
		c0.1-0.3,0.1-0.7,0.2-1c0,0-0.1,0-0.1,0C27,9.7,26.4,9.8,25.8,10c-0.1,0-0.1,0.1-0.1,0.2c-0.3,0.8-0.5,1.6-0.8,2.4
		C24.6,13.4,24.3,14.3,24,15.1z M33.9,9.5C33.9,9.5,33.9,9.6,33.9,9.5c0.3,1.6,0.5,3.2,0.8,4.8c0,0.1,0.1,0.1,0.2,0.2
		c0.8,0.2,1.6,0.4,2.4,0.6c0.1,0,0.2,0,0.3,0.1c0,0,0-0.1,0-0.1c-0.5-1.6-1.1-3.3-1.6-4.9c0-0.1-0.1-0.1-0.1-0.1
		c-0.3-0.1-0.6-0.2-0.9-0.2C34.5,9.7,34.2,9.6,33.9,9.5z M31.3,15.2c0.8-0.2,1.6-0.5,2.4-0.7c-0.2-1.3-0.4-2.7-0.7-4c0,0,0,0-0.1,0
		c-0.6,0.6-1.1,1.2-1.7,1.8c0,0-0.1,0.1-0.1,0.1C31.3,13.3,31.3,14.2,31.3,15.2z M28.5,10.5c-0.2,1.3-0.4,2.7-0.7,4
		c0.8,0.2,1.6,0.5,2.4,0.7c0-0.1,0-0.1,0-0.2c0-0.8,0-1.7,0-2.5c0-0.1,0-0.2-0.1-0.3c-0.2-0.1-0.3-0.3-0.5-0.5
		C29.3,11.3,28.9,10.9,28.5,10.5z"/>
	<path class="st0" d="M28,5.1c0-1.5,1.2-2.7,2.8-2.7c1.5,0,2.7,1.3,2.7,2.8c0,1.5-1.2,2.7-2.8,2.7C29.3,7.8,28,6.6,28,5.1z
		 M30.8,3.3c-1,0-1.8,0.8-1.8,1.7c0,1,0.8,1.8,1.7,1.8c1,0,1.8-0.8,1.8-1.7C32.5,4.1,31.8,3.3,30.8,3.3z"/>
</g>
<g>
	<path class="st0" d="M59.8,2.9c-0.1-0.1-0.3-0.1-0.4,0l-1.1,0.6c0-0.1,0-0.1,0-0.2c0-1.7-1.4-3-3-3s-3,1.4-3,3c0,0.1,0,0.1,0,0.2
		l-1.8-0.6c-0.1,0-0.2,0-0.3,0l-3.4,1.7c-0.1,0.1-0.2,0.2-0.2,0.4v10.6c0,0.1,0.1,0.3,0.2,0.4c0.1,0.1,0.3,0.1,0.4,0l3.3-1.4
		l4.7,1.9c0.1,0,0.1,0,0.2,0c0.1,0,0.1,0,0.2,0l4.4-2.2c0.2-0.1,0.2-0.2,0.2-0.4L60,3.2C60,3.1,59.9,2.9,59.8,2.9z M55.2,1.1
		c1.2,0,2.2,1,2.2,2.2c0,0.8-1.2,2.5-2.2,3.5c-0.9-1-2.2-2.7-2.2-3.5C53,2.1,54,1.1,55.2,1.1z M54.8,7.6v7.8l-4.1-1.6V12
		c0.5-0.5,1.7-1.9,1.7-2.9c0-1-0.7-1.9-1.7-2.1V3.8l1.8,0.6C53.1,5.7,54.3,7.1,54.8,7.6z M50.3,7.8c0.7,0,1.3,0.6,1.3,1.3
		c0,0.4-0.7,1.4-1.3,2.1C49.7,10.5,49,9.6,49,9.1C49,8.4,49.6,7.8,50.3,7.8z M47.3,5.2l2.6-1.3V7c-1,0.2-1.7,1.1-1.7,2.1
		c0,1,1.2,2.4,1.7,2.9v1.8l-2.6,1.1V5.2z M55.6,15.3V7.6c0.4-0.4,1.6-1.8,2.2-3l1.3-0.6l0.1,9.6L55.6,15.3z"/>
	<path class="st0" d="M50.3,9.7c0.3,0,0.5-0.2,0.5-0.5s-0.2-0.5-0.5-0.5c-0.3,0-0.5,0.2-0.5,0.5C49.7,9.4,50,9.7,50.3,9.7z"/>
	<path class="st0" d="M56.5,3.2c0-0.7-0.6-1.3-1.3-1.3s-1.3,0.6-1.3,1.3s0.6,1.3,1.3,1.3S56.5,3.9,56.5,3.2z M54.6,3.2
		c0-0.3,0.3-0.6,0.6-0.6c0.3,0,0.6,0.3,0.6,0.6s-0.3,0.6-0.6,0.6C54.9,3.8,54.6,3.5,54.6,3.2z"/>
</g>
<g>
	<path d="M66.8,2.9c0.1-0.2,0.1-0.5,0.2-0.7c0.4-1.2,1.6-1.9,2.8-1.8c1.2,0.1,2.3,0.9,2.6,2.1c0.2,0.7,0.1,1.4-0.2,2.1
		c-0.6,1.3-1.3,2.6-1.9,3.9c0,0.1,0,0.1-0.1,0.2c0.1,0,0.1,0,0.2,0c0.7,0,1.3,0,2,0c1.1,0,2,0.7,2.1,1.8c0.2,1.2-0.8,2.4-2,2.4
		c-1,0-2,0-3.1,0c-0.6,0-1.1,0.3-1.4,0.8c-0.4,0.9,0.2,2,1.1,2.1c0.2,0,0.3,0,0.5,0c3.1,0,6.2,0,9.3,0c0.1,0,0.1,0,0.2,0
		c0-0.1,0-0.1-0.1-0.2c-0.2-0.4-0.4-0.8-0.6-1.1c-0.1-0.1-0.1-0.3,0-0.4c0.1-0.1,0.2-0.1,0.3-0.1c0.1,0,0.2,0.1,0.2,0.2
		c0.2,0.3,0.3,0.7,0.5,1c0,0,0,0.1,0.1,0.2c0-0.1,0.1-0.1,0.1-0.2c0.8-1.7,1.7-3.4,2.5-5c0.9-1.8-0.3-4-2.3-4.2
		c-1.1-0.1-2.1,0.3-2.7,1.2c-0.6,0.9-0.7,1.9-0.2,2.9c0.3,0.5,0.5,1.1,0.8,1.6c0.1,0.2,0.1,0.4-0.1,0.5c-0.2,0.1-0.3,0-0.4-0.2
		c-0.1-0.2-0.2-0.4-0.3-0.7c-0.2-0.5-0.5-0.9-0.6-1.4c-0.6-1.6,0.1-3.6,1.7-4.4c1.9-0.9,4-0.2,4.9,1.7c0.4,1,0.4,2,0,2.9
		C82,12.2,81,14.2,80,16.1c-0.1,0.2-0.2,0.3-0.4,0.3c-3.4,0-6.8,0-10.1,0c-1.1,0-2-0.7-2.2-1.8c-0.2-1.1,0.6-2.2,1.7-2.4
		c0.2,0,0.3,0,0.5,0c1,0,1.9,0,2.9,0c0.7,0,1.3-0.4,1.5-1.1c0.3-0.8-0.4-1.8-1.3-1.8c-0.8,0-1.6,0-2.4,0c-0.2,0-0.4,0-0.5,0
		c-0.1,0-0.2-0.1-0.3-0.2c-0.2-0.4-0.4-0.7-0.6-1.1c-0.1-0.2,0-0.4,0.1-0.5c0.2-0.1,0.3,0,0.4,0.2c0.1,0.2,0.2,0.4,0.3,0.5
		C69.7,8,69.7,8,69.7,8c0.6-1.3,1.3-2.6,1.9-3.8c0.4-0.8,0.3-1.7-0.3-2.4c-0.6-0.7-1.4-1-2.3-0.7c-0.9,0.3-1.4,0.9-1.6,1.8
		c-0.1,0.5,0,0.9,0.2,1.3c0.2,0.3,0.3,0.6,0.5,1c0,0.1,0.1,0.2,0.1,0.2c0,0.1-0.1,0.2-0.2,0.3c-0.1,0-0.3,0-0.3-0.1
		c-0.1-0.1-0.2-0.3-0.2-0.4c-0.2-0.4-0.4-0.9-0.6-1.3c0-0.1-0.1-0.2-0.1-0.4C66.8,3.3,66.8,3.1,66.8,2.9z"/>
	<path d="M79.7,10.9c-1.2,0-2.1-1-2.1-2.1c0-1.2,1-2.1,2.1-2.1c1.2,0,2.1,1,2.1,2.1C81.8,10,80.9,10.9,79.7,10.9z M79.7,10.2
		c0.8,0,1.4-0.6,1.5-1.4c0-0.8-0.7-1.5-1.5-1.5c-0.8,0-1.4,0.6-1.5,1.4C78.2,9.6,78.9,10.2,79.7,10.2z"/>
	<path d="M69.7,4.9c-0.9,0-1.7-0.8-1.7-1.7c0-0.9,0.8-1.7,1.7-1.7c0.9,0,1.7,0.8,1.7,1.7C71.4,4.1,70.6,4.9,69.7,4.9z M69.6,4.2
		c0.6,0,1.1-0.5,1.1-1c0-0.6-0.5-1.1-1.1-1.1c-0.6,0-1.1,0.5-1.1,1.1C68.6,3.7,69.1,4.2,69.6,4.2z"/>
	<path d="M68.5,6.2c0.2,0,0.3,0.1,0.3,0.3c0,0.2-0.1,0.3-0.3,0.3c-0.2,0-0.3-0.1-0.3-0.3C68.2,6.3,68.3,6.2,68.5,6.2z"/>
	<path d="M78.5,13c0,0.2-0.1,0.3-0.3,0.3c-0.2,0-0.3-0.1-0.3-0.3c0-0.2,0.1-0.3,0.3-0.3C78.4,12.7,78.5,12.9,78.5,13z"/>
</g>
<image style="overflow:visible;" width="522" height="300" xlink:href="C:\Users\Nikita\Downloads\MicrosoftTeams-image.png"  transform="matrix(1 0 0 1 -244.344 -352.7624)">
</image>
<g>
	<path class="st0" d="M16.2,10c-0.1,0.7-0.4,1.4-0.9,2c-0.8,1-1.5,2.1-2.3,3.1c-0.2,0.3-0.5,0.4-0.9,0.2c-2.7-1.6-5.5-3.2-8.2-4.7
		c-0.2-0.1-0.3-0.2-0.5-0.4c-0.7-1-1.5-2-2.2-3C0.7,6.5,0.4,5.6,0.5,4.7c0.1-1.8,1.4-3.3,3.1-3.5C5.3,1,7,2.1,7.5,3.7
		c0.4,1.3,0.2,2.4-0.6,3.5c-0.7,0.9-1.3,1.8-2,2.7c1.9,1.1,3.7,2.2,5.6,3.2c0,0,0,0,0,0c-0.1-0.1-0.2-0.2-0.2-0.3
		C10,12.3,9.7,12,9.4,11.5c-1.2-2.2,0-4.9,2.4-5.4c1.4-0.3,2.9,0.3,3.6,1.5C16,8.4,16.3,9.2,16.2,10z M12.6,14
		c0.7-0.9,1.4-1.8,2.1-2.8c0.6-0.8,0.6-1.8,0.2-2.7c-0.8-1.6-3-1.9-4.2-0.5c-0.8,1-0.8,2.2,0,3.3c0.5,0.6,1,1.3,1.4,1.9
		C12.2,13.5,12.4,13.8,12.6,14z M4.1,9.1C4.1,9.1,4.1,9.1,4.1,9.1c0.7-0.9,1.3-1.8,2-2.7c0.7-1,0.7-2,0.1-3C5.5,2.4,4.1,2,3,2.5
		C1.8,3.1,1,4.8,2,6.3c0.4,0.5,0.7,1,1.1,1.5C3.4,8.3,3.8,8.7,4.1,9.1z"/>
	<path class="st0" d="M10.9,9.6c0-0.9,0.7-1.7,1.7-1.7c0.9,0,1.7,0.8,1.7,1.7c0,0.9-0.8,1.7-1.7,1.7C11.7,11.2,10.9,10.5,10.9,9.6z
		 M12.6,9C12.2,9,12,9.2,12,9.5c0,0.3,0.2,0.6,0.6,0.6c0.3,0,0.6-0.3,0.6-0.6C13.2,9.2,12.9,9,12.6,9z"/>
	<path class="st0" d="M5.8,4.7c0,0.9-0.8,1.7-1.7,1.7c-0.9,0-1.7-0.8-1.7-1.7C2.4,3.7,3.2,3,4.1,3C5,3,5.8,3.7,5.8,4.7z M4.7,4.7
		c0-0.3-0.3-0.6-0.6-0.6c-0.3,0-0.6,0.3-0.6,0.6c0,0.3,0.3,0.6,0.6,0.6C4.4,5.3,4.7,5,4.7,4.7z"/>
</g>
</svg>
