<svg xmlns="http://www.w3.org/2000/svg" width="24" height="24" viewBox="0 0 24 24">
  <g fill="none" fill-rule="evenodd">
    <circle cx="12" cy="12" r="12" fill="#5E5E5E"/>
    <path fill="#FFF" d="M17.6912357,5.30425881 C18.0982024,5.70528708 18.1035457,6.35383978 17.7032402,6.76132633 L12.4925291,11.8960021 C12.4644925,11.9235599 12.4487357,11.9609781 12.4487357,12 C12.4487357,12.0390219 12.4644925,12.0764401 12.4925291,12.1039979 L17.7032402,17.2386737 C18.1035457,17.6461602 18.0982024,18.2947129 17.6912357,18.6957412 C17.2842689,19.0967695 16.6261123,19.1020348 16.2125916,18.7075705 L10.5236805,13.1016726 C10.2270509,12.8096492 10.0607499,12.4131791 10.0615763,12 C10.0607499,11.5868209 10.2270509,11.1903508 10.5236805,10.8983274 L16.2125916,5.29242949 C16.6261123,4.89796521 17.2842689,4.90323053 17.6912357,5.30425881 Z M11.6296624,5.30425881 C12.0366292,5.70528708 12.0419725,6.35383978 11.6416669,6.76132633 L6.43095581,11.8960021 C6.40291919,11.9235599 6.38716241,11.9609781 6.38716241,12 C6.38716241,12.0390219 6.40291919,12.0764401 6.43095581,12.1039979 L11.6416669,17.2386737 C12.0419725,17.6461602 12.0366292,18.2947129 11.6296624,18.6957412 C11.2226956,19.0967695 10.564539,19.1020348 10.1510183,18.7075705 L4.4621072,13.1016726 C4.16547763,12.8096492 3.99917663,12.4131791 4.00000307,12 C3.99917663,11.5868209 4.16547763,11.1903508 4.4621072,10.8983274 L10.1510183,5.29242949 C10.564539,4.89796521 11.2226956,4.90323053 11.6296624,5.30425881 Z"/>
  </g>
</svg>
