<svg xmlns="http://www.w3.org/2000/svg" width="24" height="24" viewBox="0 0 24 24">
  <g fill="none" fill-rule="evenodd">
    <circle cx="12" cy="12" r="12" fill="#5E5E5E"/>
    <path fill="#FFF" d="M13.9384237,12 C13.9392501,12.4131791 13.7729491,12.8096492 13.4763195,13.1016726 L7.7874084,18.7075705 C7.37388771,19.1020348 6.71573111,19.0967695 6.30876433,18.6957412 C5.90179755,18.2947129 5.89645425,17.6461602 6.29675984,17.2386737 L11.5074709,12.1039979 C11.5355075,12.0764401 11.5512643,12.0390219 11.5512643,12 C11.5512643,11.9609781 11.5355075,11.9235599 11.5074709,11.8960021 L6.29675984,6.76132633 C5.89645425,6.35383978 5.90179755,5.70528708 6.30876433,5.30425881 C6.71573111,4.90323053 7.37388771,4.89796521 7.7874084,5.29242949 L13.4763195,10.8983274 C13.7729491,11.1903508 13.9392501,11.5868209 13.9384237,12 L13.9384237,12 Z M19.9999969,12 C20.0008234,12.4131791 19.8345224,12.8096492 19.5378928,13.1016726 L13.8489817,18.7075705 C13.435461,19.1020348 12.7773044,19.0967695 12.3703376,18.6957412 C11.9633708,18.2947129 11.9580275,17.6461602 12.3583331,17.2386737 L17.5690442,12.1039979 C17.5970808,12.0764401 17.6128376,12.0390219 17.6128376,12 C17.6128376,11.9609781 17.5970808,11.9235599 17.5690442,11.8960021 L12.3583331,6.76132633 C11.9580275,6.35383978 11.9633708,5.70528708 12.3703376,5.30425881 C12.7773044,4.90323053 13.435461,4.89796521 13.8489817,5.29242949 L19.5378928,10.8983274 C19.8345224,11.1903508 20.0008234,11.5868209 19.9999969,12 Z"/>
  </g>
</svg>
