<svg xmlns="http://www.w3.org/2000/svg" width="24" height="24" viewBox="0 0 24 24">
  <path fill="#5E5E5E" fill-rule="evenodd" d="M12,0 C18.627417,0 24,5.372583 24,12 C24,18.627417 18.627417,24 12,24 C5.372583,24 0,18.627417 0,12 C0,5.372583 5.372583,0 12,0 Z M7.11709091,11.2283636 L5.05745455,13.2850909 C3.92371724,14.4221685 3.92371724,16.2621952 5.05745455,17.3992727 L6.60072727,18.9418182 C7.73672684,20.0774747 9.57818225,20.0774747 10.7141818,18.9418182 L12.7716364,16.8850909 C13.3945521,16.2603505 13.5812451,15.3225836 13.2450909,14.5069091 C13.09161,14.1358198 12.666408,13.9593577 12.2952727,14.1127273 C12.1167549,14.1862885 11.9748155,14.3278178 11.9007381,14.5061221 C11.8266607,14.6844263 11.826526,14.8848691 11.9003636,15.0632727 C12.0129585,15.335111 11.9506657,15.6480105 11.7425455,15.856 L9.68581818,17.9134545 C9.1178184,18.4812828 8.19709069,18.4812828 7.62909091,17.9134545 L6.08581818,16.3709091 C5.81291054,16.098112 5.65958332,15.7280534 5.65958332,15.3421818 C5.65958332,14.9563103 5.81291054,14.5862517 6.08581818,14.3134545 L8.14545455,12.2567273 C8.35481473,12.0506226 8.66661526,11.9886054 8.93890909,12.0989091 C9.31024527,12.252143 9.73549336,12.0753362 9.88872727,11.704 C10.0419612,11.3326638 9.86515436,10.9074157 9.49381818,10.7541818 C8.67790863,10.4240755 7.74385636,10.6104287 7.11709091,11.2283636 Z M14.5716364,8.39927273 L8.91418182,14.056 C8.63026768,14.3399999 8.63026768,14.8003637 8.91418182,15.0843636 C9.19996319,15.3639429 9.65676409,15.3639429 9.94254545,15.0843636 L15.6,9.42763636 C15.8756162,9.1422699 15.8716745,8.68866562 15.5911408,8.40813195 C15.3106071,8.12759827 14.8570028,8.12365657 14.5716364,8.39927273 Z M13.2858182,5.05672727 L11.2283636,7.11345455 C10.6053937,7.73786748 10.4186749,8.67547693 10.7549091,9.49090909 C10.854164,9.73112149 11.074031,9.90013505 11.3316885,9.93428401 C11.589346,9.96843296 11.8456496,9.86252927 12.0040522,9.65646582 C12.1624548,9.45040238 12.1988912,9.17548512 12.0996364,8.93527273 C11.9883485,8.66424512 12.0505593,8.35290413 12.2574545,8.14545455 L14.3141818,6.08872727 C14.5869789,5.81581963 14.9570376,5.66249241 15.3429091,5.66249241 C15.7287806,5.66249241 16.0988393,5.81581963 16.3716364,6.08872727 L17.9141818,7.63127273 C18.1870895,7.90406983 18.3404167,8.27412846 18.3404167,8.66 C18.3404167,9.04587154 18.1870895,9.41593017 17.9141818,9.68872727 L15.8545455,11.7418182 C15.6449998,11.9475723 15.333422,12.0095451 15.0610909,11.8996364 C14.6897547,11.7460008 14.264181,11.922482 14.1105455,12.2938182 C13.9569099,12.6651544 14.1333911,13.0907281 14.5047273,13.2443636 C15.3207517,13.5768922 16.2564569,13.3906096 16.8829091,12.7709091 L18.9396364,10.7141818 C20.0742619,9.57765679 20.0755629,7.73740089 18.9425455,6.59927273 L17.4,5.05672727 C16.2629224,3.92298997 14.4228957,3.92298997 13.2858182,5.05672727 Z"/>
</svg>
