<svg xmlns="http://www.w3.org/2000/svg" width="24" height="24" viewBox="0 0 24 24">
  <path fill="#5E5E5E" fill-rule="evenodd" d="M24,12 C24,5.372583 18.627417,0 12,0 C5.372583,0 0,5.372583 0,12 C0,21.155 8.513,24 12,24 C21.232,24 24,15.51 24,12 Z M22.0000002,12 C22.0003617,13.9063269 21.4507153,15.7722775 20.417,17.374 C20.3363689,17.5000118 20.2035497,17.583299 20.055,17.601 C19.9064534,17.6185275 19.7578616,17.56863 19.65,17.465 L13.15,11.243 C13.0530815,11.148009 12.9989378,11.0177032 12.9999847,10.882 L12.9999847,2.619 C13.0002105,2.47271603 13.064472,2.33386131 13.1758509,2.23902574 C13.2872298,2.14419017 13.4345534,2.10288696 13.579,2.126 C18.4274092,2.90721584 21.9938776,7.08905992 22.0000002,12 L22.0000002,12 Z M11.0000008,21.38 C11.0001295,21.5266638 10.9358592,21.6659888 10.8242053,21.7610871 C10.7125513,21.8561855 10.5647744,21.8974663 10.42,21.874 C8.75348078,21.605829 7.18275313,20.9175172 5.856,19.874 C5.74295178,19.7858633 5.67316868,19.6534456 5.66436993,19.5103703 C5.65557118,19.367295 5.70860314,19.2273245 5.81,19.126 L10.146,14.79 C10.2890142,14.6466232 10.5043894,14.6036699 10.6914633,14.6812157 C10.8785371,14.7587615 11.0003623,14.9414911 11.0000008,15.144 L11.0000008,21.38 Z M12.9999999,15.035 C12.9999999,14.834682 13.1195173,14.6536874 13.3037623,14.5750675 C13.4880072,14.4964476 13.7013909,14.5353799 13.846,14.674 L18.346,18.984 C18.4497231,19.0829984 18.5059534,19.2217625 18.5004059,19.3650397 C18.4948585,19.508317 18.4280672,19.6423179 18.317,19.733 C16.9553099,20.8539381 15.3201616,21.5928264 13.579,21.874 C13.4343809,21.8971405 13.2868875,21.85571 13.1754707,21.7606497 C13.0640539,21.6655895 12.9999178,21.5264587 12.9999999,21.38 L12.9999999,15.035 Z M10.421,2.126 C10.5654466,2.10288696 10.7127702,2.14419017 10.8241491,2.23902574 C10.935528,2.33386131 10.9997895,2.47271603 11.0000008,2.619 L11.0000008,10.9 C11.000237,11.0326989 10.9477139,11.1600493 10.854,11.254 L4.474,17.634 C4.36839276,17.7399286 4.22090749,17.7930127 4.07201664,17.7786851 C3.9231258,17.7643575 3.7884696,17.6841233 3.705,17.56 C1.79857513,14.7325864 1.46811337,11.127377 2.82875403,8.0004967 C4.18939469,4.87361643 7.0526854,2.6581466 10.421,2.126 L10.421,2.126 Z"/>
</svg>
