<svg xmlns="http://www.w3.org/2000/svg" width="24" height="24" viewBox="0 0 24 24">
  <path fill="#5E5E5E" fill-rule="evenodd" d="M22,1.5 L2,1.5 C1.17157288,1.5 0.5,2.17157288 0.5,3 L0.5,16.552 C0.502802207,16.9442488 0.663431761,17.3188464 0.94564929,17.5912804 C1.22786682,17.8637144 1.60789634,18.011033 2,18 L5,18 L5,22 C4.99993387,22.1860906 5.10321948,22.3568217 5.26808082,22.4431376 C5.43294215,22.5294535 5.63209968,22.5170716 5.785,22.411 L12.156,18 L22,18 C22.8284271,18 23.5,17.3284271 23.5,16.5 L23.5,3 C23.5,2.17157288 22.8284271,1.5 22,1.5 Z M6,10.5 C6.82842712,10.5 7.5,11.1715729 7.5,12 C7.5,12.8284271 6.82842712,13.5 6,13.5 C5.17157288,13.5 4.5,12.8284271 4.5,12 C4.5,11.1715729 5.17157288,10.5 6,10.5 Z M4.5,7.5 C4.5,6.67157288 5.17157288,6 6,6 C6.82842712,6 7.5,6.67157288 7.5,7.5 C7.5,8.32842712 6.82842712,9 6,9 C5.17157288,9 4.5,8.32842712 4.5,7.5 Z M10.25,12 C10.25,11.5857864 10.5857864,11.25 11,11.25 L19,11.25 C19.4142136,11.25 19.75,11.5857864 19.75,12 C19.75,12.4142136 19.4142136,12.75 19,12.75 L11,12.75 C10.5857864,12.75 10.25,12.4142136 10.25,12 Z M19,8.25 L11,8.25 C10.5857864,8.25 10.25,7.91421356 10.25,7.5 C10.25,7.08578644 10.5857864,6.75 11,6.75 L19,6.75 C19.4142136,6.75 19.75,7.08578644 19.75,7.5 C19.75,7.91421356 19.4142136,8.25 19,8.25 Z"/>
</svg>
