<svg xmlns="http://www.w3.org/2000/svg" width="24" height="24" viewBox="0 0 24 24">
  <path fill="#5E5E5E" fill-rule="evenodd" d="M18.07,11.25 C17.9936046,11.250822 17.9217786,11.2865311 17.8750087,11.3469422 C17.8282388,11.4073534 17.8116596,11.4858342 17.83,11.56 C18.4278452,13.9808344 17.4660824,16.5191056 15.4141339,17.9359208 C13.3621854,19.352736 10.6478146,19.352736 8.59586611,17.9359208 C6.54391759,16.5191056 5.58215479,13.9808344 6.18,11.56 C6.19834037,11.4858342 6.18176119,11.4073534 6.13499128,11.3469422 C6.08822137,11.2865311 6.01639538,11.250822 5.94,11.25 L0.5,11.25 C0.223857625,11.25 0,11.4738576 0,11.75 L0,17.5 C0.0055066367,21.0875675 2.91243253,23.9944934 6.5,24 L17.5,24 C21.0875675,23.9944934 23.9944934,21.0875675 24,17.5 L24,11.75 C24,11.4738576 23.7761424,11.25 23.5,11.25 L18.07,11.25 Z M23.5,9.75000724 C23.7761424,9.75000724 24,9.52614237 24,9.25 L24,6.5 C23.9944934,2.91243253 21.0875675,0.0055066367 17.5,-9.13437078e-14 L11.75,-9.13437078e-14 C11.4738576,-9.13606213e-14 11.25,0.223857625 11.25,0.5 L11.25,4.5 C11.25,4.91421356 10.9142136,5.25 10.5,5.25 C10.0857864,5.25 9.75,4.91421356 9.75,4.5 L9.75,0.5 C9.75,0.223857625 9.52614237,-9.13267942e-14 9.25,-9.13437078e-14 L8.75,-9.13437078e-14 C8.47385763,-9.13606213e-14 8.25,0.223857625 8.25,0.5 L8.25,4.5 C8.25,4.91421356 7.91421356,5.25 7.5,5.25 C7.08578644,5.25 6.75,4.91421356 6.75,4.5 L6.75,0.5 C6.75010896,0.363852671 6.69469405,0.233548232 6.59655452,0.139183301 C6.49841499,0.04481837 6.36603841,-0.00544593853 6.23,-9.13437078e-14 L5.68,-9.13437078e-14 C5.43149187,0.0351247887 5.24752996,0.249033986 5.25,0.5 L5.25,4.5 C5.25,4.91421356 4.91421356,5.25 4.5,5.25 C4.08578644,5.25 3.75,4.91421356 3.75,4.5 L3.75,1 C3.74050023,0.916982992 3.69015323,0.844200701 3.61582209,0.80603066 C3.54149096,0.767860619 3.45300444,0.769350018 3.38,0.81 C1.29981439,1.94817412 0.00446935246,4.12879935 0,6.5 L0,9.25 C0,9.52614237 0.223857625,9.75000724 0.5,9.75000724 L6.7,9.75000724 C6.86269326,9.7508742 7.01563889,9.6725362 7.11,9.54 C8.23498651,7.95289648 10.0596229,7.00972261 12.005,7.00972261 C13.9503771,7.00972261 15.7750135,7.95289648 16.9,9.54 C16.9943611,9.6725362 17.1473067,9.7508742 17.31,9.75000724 L23.5,9.75000724 Z M17.5,4.5 C17.5,3.94771525 17.9477153,3.5 18.5,3.5 L19.5,3.5 C20.0522847,3.5 20.5,3.94771525 20.5,4.5 L20.5,5.5 C20.5,6.05228475 20.0522847,6.5 19.5,6.5 L18.5,6.5 C17.9477153,6.5 17.5,6.05228475 17.5,5.5 L17.5,4.5 Z M12,16 C13.6568542,16 15,14.6568542 15,13 C15,11.3431458 13.6568542,10 12,10 C10.3431458,10 9,11.3431458 9,13 C9,14.6568542 10.3431458,16 12,16 Z"/>
</svg>
