<svg xmlns="http://www.w3.org/2000/svg" width="24" height="24" viewBox="0 0 24 24">
  <path fill="#5E5E5E" fill-rule="evenodd" d="M17.37,19.68 C21.2599517,17.2297816 23.0772069,12.5144596 21.8377191,8.08738782 C20.5982314,3.66031606 16.5967161,0.574128354 12,0.5 C9.27090253,0.518502139 6.66093892,1.62040877 4.74430354,3.56329943 C2.82766815,5.5061901 1.76137157,8.13090339 1.78,10.86 C1.76137157,13.5890966 2.82766815,16.2138099 4.74430354,18.1567006 C6.66093892,20.0995912 9.27090253,21.2014979 12,21.22 C12.8120706,21.2205705 13.6212463,21.1232008 14.41,20.93 C15.3111794,22.8891724 17.4755587,23.9336112 19.57,23.42 C19.8147474,23.3854076 19.9974889,23.1771672 20,22.93 L20,22 C19.9999104,21.789485 19.8679737,21.6015751 19.67,21.53 C18.6905689,21.2384769 17.8646857,20.5741796 17.37,19.68 L17.37,19.68 Z M17.3,12.23 C17.3225034,13.8344174 16.8164851,15.4016686 15.86,16.69 C14.66576,15.4073021 13.0022472,14.6639536 11.25,14.63 C11.1156677,14.6273128 10.9859065,14.6788025 10.8899643,14.7728636 C10.794022,14.8669246 10.7399731,14.9956408 10.74,15.13 L10.74,16.26 C10.7412631,16.4850325 10.8927023,16.6814942 11.11,16.74 C12.0475511,17.013977 12.834066,17.6561773 13.29,18.52 C12.8974575,18.6380373 12.4899032,18.6986652 12.08,18.7 C9.2,18.7 6.86,15.81 6.86,12.24 L6.86,9.56 C6.86,6 9.19,3.1 12.08,3.1 C14.97,3.1 17.3,6 17.3,9.56 L17.3,12.23 Z"/>
</svg>
