<svg xmlns="http://www.w3.org/2000/svg" width="24" height="24" viewBox="0 0 24 24">
  <path fill="#5E5E5E" fill-rule="evenodd" d="M23.32,6.44 C23.4651089,6.31938727 23.5299592,6.12735697 23.4876848,5.94346327 C23.4454104,5.75956956 23.3032122,5.61513662 23.12,5.57 L22.33,5.37 C22.1845422,5.33358414 22.0631066,5.23380957 21.9991663,5.09817873 C21.9352261,4.96254788 21.9355321,4.80538083 22,4.67 L22.44,3.78 C22.5248817,3.60388329 22.4993301,3.39444988 22.3745948,3.2439072 C22.2498594,3.09336453 22.0488245,3.0293315 21.86,3.08 L19.86,3.64 C19.7089165,3.68406602 19.5459029,3.65442719 19.42,3.56 C18.5545191,2.91088936 17.5018511,2.56 16.42,2.56 C13.6585763,2.56 11.42,4.79857625 11.42,7.56 L11.42,7.92 C11.4209185,8.04715642 11.3262413,8.15474415 11.2,8.17 C8.38999973,8.5 5.7,7.07 2.8,3.73 C2.67156124,3.58834766 2.47467749,3.53044067 2.29,3.58 C2.12377696,3.6564045 2.01255182,3.81748918 2,4 C1.59945751,5.64534174 1.76140012,7.3774236 2.46,8.92 C2.50213762,9.00340635 2.49424174,9.10334998 2.43952985,9.1791049 C2.38481797,9.25485981 2.29242495,9.29377773 2.2,9.28 L1.08,9.06 C0.918566443,9.03404524 0.754641623,9.08866173 0.641035197,9.20625434 C0.527428772,9.32384696 0.478495643,9.48955712 0.51,9.65 C0.684890124,11.2045595 1.55689544,12.5953528 2.88,13.43 C2.96624758,13.4717716 3.02102753,13.5591694 3.02102753,13.655 C3.02102753,13.7508306 2.96624758,13.8382284 2.88,13.88 L2.35,14.09 C2.21986231,14.1421726 2.11760915,14.2465882 2.06817112,14.3777891 C2.0187331,14.50899 2.02665306,14.6549202 2.09,14.78 C2.6849358,16.081805 3.88092523,17.0086969 5.29,17.26 C5.38887112,17.2958854 5.45470639,17.389818 5.45470639,17.495 C5.45470639,17.600182 5.38887112,17.6941146 5.29,17.73 C3.93036349,18.292336 2.47126447,18.5746326 1,18.56 C0.723857629,18.5047715 0.455228487,18.6838576 0.400000013,18.96 C0.344771539,19.2361424 0.523857632,19.5047715 0.8,19.56 C3.3475447,20.7682457 6.12118289,21.4258773 8.94,21.49 C11.4194534,21.5278164 13.8547822,20.8320081 15.94,19.49 C19.423778,17.1644785 21.5112286,13.2486314 21.5,9.06 L21.5,8.19 C21.5012352,8.04303474 21.5670673,7.9040559 21.68,7.81 L23.32,6.44 Z"/>
</svg>
