<svg xmlns="http://www.w3.org/2000/svg" width="24" height="24" viewBox="0 0 24 24">
  <path fill="#5E5E5E" fill-rule="evenodd" d="M10.8493846,12.1364442 C10.9412779,12.2390687 11.070581,12.2969778 11.2057196,12.2960422 C11.4607771,12.2965066 11.6719503,12.0909241 11.6872534,11.8272452 L12.2458326,0.566419039 C12.2685831,0.394470266 12.2033812,0.222637677 12.0736824,0.112735715 C11.9439835,0.00283375233 11.7684426,-0.0293301935 11.610208,0.0278144201 L3.53970162,2.93029487 C3.38735195,2.98643114 3.27237984,3.11801489 3.2336169,3.28060393 C3.19485396,3.44319297 3.23747623,3.61507674 3.3470881,3.7382018 L10.8493846,12.1364442 Z M20.9230716,11.8372194 L17.9279314,6.61075976 C17.8418238,6.46423338 17.6890499,6.37382045 17.523443,6.37137993 C17.3576157,6.37363297 17.2031822,6.45918302 17.1093239,6.60078561 L13.1992695,12.7847646 C13.1042685,12.9381173 13.0975797,13.1329207 13.1818228,13.2928749 C13.266066,13.4528292 13.4278308,13.5524716 13.6037579,13.5527749 L13.6711726,13.5527749 L20.5859979,12.5553589 C20.7453711,12.5319796 20.8829255,12.4276743 20.9525796,12.2773861 C21.0222337,12.1270978 21.014775,11.9507037 20.9327022,11.8072969 L20.9230716,11.8372194 Z M20.2970776,17.5224904 L13.5556045,15.0688471 C13.3767967,15.0032371 13.1774565,15.0524647 13.0464742,15.1945782 C12.915492,15.3366917 12.8772777,15.5452068 12.9488719,15.7271417 L15.5106317,22.4497252 C15.5685217,22.606703 15.6988506,22.7229334 15.857336,22.7589332 L15.9536428,22.7589332 C16.0792883,22.7597059 16.2002524,22.7095946 16.2907165,22.6192859 L20.4704298,18.3503456 C20.5896091,18.2289586 20.639479,18.0522447 20.6021792,17.883492 C20.5648794,17.7147394 20.4457466,17.5780926 20.2874469,17.5224904 L20.2970776,17.5224904 Z M11.4946399,15.6174259 C11.316586,15.5497285 11.1167464,15.5965889 10.9842141,15.7371158 L6.11109207,20.8937563 C5.99574877,21.0125567 5.94611786,21.1836386 5.9791404,21.3486048 C6.01216295,21.513571 6.12337434,21.6501183 6.27481356,21.7116374 L11.7450375,23.9657975 C11.9002847,24.0286197 12.075861,24.0038272 12.2092025,23.9002542 C12.3425441,23.7966813 12.4146866,23.6290584 12.3999234,23.4571154 L11.8220829,16.0862114 C11.8205585,15.8736446 11.6891014,15.6854433 11.4946399,15.6174259 Z M10.4930496,14.310811 C10.4792398,14.1180813 10.3591575,13.9509656 10.184868,13.8819221 L3.64563905,11.3584597 C3.49484842,11.3018494 3.32674019,11.3267123 3.19727648,11.4247716 C3.06781276,11.522831 2.99399017,11.681213 3.00038377,11.8471936 L3.27004269,17.9214568 C3.27770529,18.0913756 3.36846517,18.2455305 3.51080959,18.3303973 C3.65733008,18.4156947 3.83619222,18.4156947 3.98271271,18.3303973 L10.242652,14.7795965 C10.4069533,14.6869715 10.50459,14.5041795 10.4930496,14.310811 Z"/>
</svg>
