<svg xmlns="http://www.w3.org/2000/svg" width="24" height="24" viewBox="0 0 24 24">
  <path fill="none" stroke="#5E5E5E" stroke-linecap="round" stroke-linejoin="round" stroke-width="1.5" d="M21.76,8.253 L21.76,2.253 C21.76,1.42457288 21.0884271,0.753 20.26,0.753 L2.26,0.753 C1.43157288,0.753 0.76,1.42457288 0.76,2.253 L0.76,18.753 C0.76,19.5814271 1.43157288,20.253 2.26,20.253 L8.26,20.253 M0.76,5.253 L21.76,5.253 M17.26,23.253 C20.5737085,23.253 23.26,20.5667085 23.26,17.253 C23.26,13.9392915 20.5737085,11.253 17.26,11.253 C13.9462915,11.253 11.26,13.9392915 11.26,17.253 C11.26,20.5667085 13.9462915,23.253 17.26,23.253 Z M17.26,14.253 L17.26,20.253 M17.26,20.253 L15.01,18.003 M17.26,20.253 L19.51,18.003"/>
</svg>
