<svg xmlns="http://www.w3.org/2000/svg" width="24" height="24" viewBox="0 0 24 24">
  <path fill="none" stroke="#5E5E5E" stroke-linecap="round" stroke-linejoin="round" stroke-width="1.5" d="M17.5,23 C20.5375661,23 23,20.5375661 23,17.5 C23,14.4624339 20.5375661,12 17.5,12 C14.4624339,12 12,14.4624339 12,17.5 C12,20.5375661 14.4624339,23 17.5,23 Z M17.5,15 L17.5,20 M15,17.5 L20,17.5 M7,4.5 L20,4.5 M7,9.5 L20,9.5 M7,15.5 L10,15.5 M3.5,4.125 C3.70710678,4.125 3.875,4.29289322 3.875,4.5 C3.875,4.70710678 3.70710678,4.875 3.5,4.875 C3.29289322,4.875 3.125,4.70710678 3.125,4.5 C3.125,4.29289322 3.29289322,4.125 3.5,4.125 M3.5,9.125 C3.70710678,9.125 3.875,9.29289322 3.875,9.5 C3.875,9.70710678 3.70710678,9.875 3.5,9.875 C3.29289322,9.875 3.125,9.70710678 3.125,9.5 C3.125,9.29289322 3.29289322,9.125 3.5,9.125 M3.5,15.125 C3.70710678,15.125 3.875,15.2928932 3.875,15.5 C3.875,15.7071068 3.70710678,15.875 3.5,15.875 C3.29289322,15.875 3.125,15.7071068 3.125,15.5 C3.125,15.2928932 3.29289322,15.125 3.5,15.125"/>
</svg>
