<svg xmlns="http://www.w3.org/2000/svg" width="24" height="24" viewBox="0 0 24 24">
  <path fill="none" stroke="#5E5E5E" stroke-linecap="round" stroke-linejoin="round" stroke-width="1.5" d="M10.536,11.568 L13.216,20.499 C13.2997789,20.7789574 13.5246068,20.9942308 13.8079364,21.0657807 C14.0912659,21.1373306 14.3913461,21.0546136 14.598,20.848 L15.963,19.483 L19.485,23.005 C19.6406634,23.1607172 19.8518206,23.2482028 20.072,23.2482028 C20.2921794,23.2482028 20.5033366,23.1607172 20.659,23.005 L23.007,20.657 C23.1627172,20.5013366 23.2502028,20.2901794 23.2502028,20.07 C23.2502028,19.8498206 23.1627172,19.6386634 23.007,19.483 L19.485,15.961 L20.85,14.6 C21.0566347,14.3934874 21.1394858,14.093549 21.0681494,13.8102533 C20.996813,13.5269576 20.7817947,13.3020253 20.502,13.218 L11.57,10.538 C11.2783218,10.4514348 10.9626557,10.5311902 10.7471,10.745912 C10.5315443,10.9606338 10.4505659,11.2759885 10.536,11.568 Z M21.723,10.5 C21.3238308,4.90939177 16.6040994,0.617920873 11.000833,0.750744591 C5.39756657,0.88356831 0.886478003,5.39385298 0.752655665,10.9970956 C0.618833328,16.6003382 4.909463,21.3208345 10.5,21.721 M16.813,9 C15.7904178,6.4708512 13.1903594,4.94990591 10.4846214,5.29811481 C7.7788833,5.64632371 5.6486367,7.776025 5.2997351,10.4816738 C4.9508335,13.1873227 6.47111308,15.7877704 9,16.811"/>
</svg>
