<svg xmlns="http://www.w3.org/2000/svg" width="24" height="24" viewBox="0 0 24 24">
  <path fill="none" stroke="#5E5E5E" stroke-linecap="round" stroke-linejoin="round" stroke-width="1.5" d="M2.60227965,15.8886775 C1.88756327,15.8886654 1.25929008,15.4298153 1.0622343,14.7639279 C0.865178515,14.0980405 1.14700243,13.3861753 1.753051,13.018979 L19.5493018,2.23637873 C20.0887853,1.90914953 20.7769958,1.92265019 21.3023769,2.27076888 C21.827758,2.61888757 22.0905627,3.23553178 21.971818,3.84154339 L18.5055786,21.7344632 C18.3880439,22.3393015 17.9130577,22.8197825 17.2946189,22.9594318 C16.6761801,23.0990811 16.0310103,22.8715418 15.6497825,22.3793288 L10.6333638,15.8886775 L2.60227965,15.8886775 Z M10.6333638,15.8886775 L8.22625309,15.8886775 L8.22625309,20.714437 C8.22625309,21.2897494 8.55453551,21.8178781 9.07932754,22.0866821 C9.60411958,22.3554861 10.2392698,22.320856 10.7296482,21.9967023 L13.7895673,19.9753147 L10.6333638,15.8886775 Z M10.6324009,15.8886775 L21.3007156,2.2727749"/>
</svg>
